<svg width="166" height="141" viewBox="0 0 166 141" fill="none" xmlns="http://www.w3.org/2000/svg">
<path d="M156.44 6.25H44.72V18.83C44.6839 19.4164 44.4179 19.9648 43.9797 20.3561C43.5416 20.7475 42.9667 20.9501 42.38 20.92H40.93C40.93 22.99 40.75 25.76 40.02 25.2C39.29 24.64 38.72 22.32 38.45 20.89H38.23H25.23C24.6416 20.9228 24.0642 20.7214 23.6238 20.3298C23.1835 19.9382 22.9161 19.3882 22.88 18.8V6.25H9.56C8.43504 6.25 7.32112 6.47174 6.28192 6.90255C5.24272 7.33335 4.29863 7.96477 3.50363 8.7607C2.70863 9.55663 2.07831 10.5015 1.64872 11.5412C1.21913 12.5809 0.998686 13.695 1 14.82V132C1 134.273 1.90291 136.453 3.5101 138.06C5.11728 139.667 7.29709 140.57 9.57 140.57H156.44C158.711 140.567 160.888 139.663 162.493 138.056C164.098 136.449 165 134.271 165 132V14.82C165.001 13.695 164.781 12.5809 164.351 11.5412C163.922 10.5015 163.291 9.55663 162.496 8.7607C161.701 7.96477 160.757 7.33335 159.718 6.90255C158.679 6.47174 157.565 6.25 156.44 6.25ZM149.9 47.14L151.04 46.14C151.049 46.1267 151.054 46.1111 151.054 46.095C151.054 46.079 151.049 46.0633 151.04 46.05L150.14 44.84C150.13 44.8306 150.124 44.8182 150.123 44.8048C150.121 44.7915 150.124 44.7779 150.131 44.7664C150.138 44.7549 150.148 44.746 150.161 44.7412C150.173 44.7364 150.187 44.736 150.2 44.74L151.69 45C151.7 45.0073 151.712 45.0113 151.725 45.0113C151.738 45.0113 151.75 45.0073 151.76 45L152.15 43.53C152.155 43.5193 152.162 43.5102 152.172 43.5038C152.182 43.4974 152.193 43.494 152.205 43.494C152.217 43.494 152.228 43.4974 152.238 43.5038C152.248 43.5102 152.255 43.5193 152.26 43.53L152.99 44.87C153.001 44.8798 153.015 44.8853 153.03 44.8853C153.045 44.8853 153.059 44.8798 153.07 44.87L154.45 44.25C154.462 44.2463 154.474 44.2457 154.486 44.2482C154.498 44.2507 154.509 44.2563 154.518 44.2644C154.527 44.2724 154.534 44.2827 154.538 44.2942C154.541 44.3058 154.542 44.3181 154.54 44.33L154 45.7C154 45.7 154 45.76 154 45.78L155.35 46.48C155.36 46.4862 155.369 46.495 155.375 46.5055C155.381 46.516 155.384 46.5279 155.384 46.54C155.384 46.5521 155.381 46.564 155.375 46.5745C155.369 46.585 155.36 46.5938 155.35 46.6L153.89 47.01C153.89 47.01 153.89 47.01 153.89 47.08L154.18 48.57C154.184 48.5828 154.184 48.5967 154.179 48.6092C154.174 48.6218 154.165 48.6324 154.154 48.6393C154.142 48.6462 154.129 48.6491 154.115 48.6474C154.102 48.6457 154.089 48.6396 154.08 48.63L152.85 47.74C152.839 47.7302 152.825 47.7247 152.81 47.7247C152.795 47.7247 152.781 47.7302 152.77 47.74L151.77 48.9C151.765 48.9107 151.758 48.9198 151.748 48.9262C151.738 48.9326 151.727 48.936 151.715 48.936C151.703 48.936 151.692 48.9326 151.682 48.9262C151.672 48.9198 151.665 48.9107 151.66 48.9L151.58 47.39C151.58 47.3741 151.574 47.3588 151.562 47.3476C151.551 47.3363 151.536 47.33 151.52 47.33H150.01C149.985 47.3446 149.955 47.3486 149.927 47.3411C149.899 47.3336 149.875 47.3152 149.86 47.29C149.845 47.2648 149.841 47.2348 149.849 47.2067C149.856 47.1786 149.875 47.1546 149.9 47.14ZM149.78 73.71L150.59 74.49C150.59 74.49 150.59 74.49 150.65 74.49L151.5 73.75H151.58L151.46 74.87L152.57 75.07C152.578 75.0741 152.586 75.0805 152.591 75.0884C152.596 75.0964 152.598 75.1056 152.598 75.115C152.598 75.1244 152.596 75.1336 152.591 75.1416C152.586 75.1495 152.578 75.1559 152.57 75.16L151.62 75.77V75.83L152.15 76.83C152.15 76.83 152.15 76.91 152.09 76.9L151.03 76.54H150.97L150.53 77.54C150.53 77.54 150.45 77.54 150.44 77.54L150.05 76.48L148.96 76.79L148.91 76.72L149.5 75.72C149.5 75.72 149.5 75.72 149.5 75.66L148.59 75V74.92L149.71 74.78L149.66 73.65L149.78 73.71ZM141.58 18.46L143.21 16.96C143.222 16.9387 143.229 16.9146 143.229 16.89C143.229 16.8654 143.222 16.8413 143.21 16.82L142.27 14.82C142.26 14.8 142.257 14.7776 142.26 14.7556C142.264 14.7337 142.273 14.7133 142.289 14.697C142.304 14.6808 142.323 14.6695 142.345 14.6647C142.367 14.6599 142.389 14.6617 142.41 14.67L144.52 15.32C144.539 15.3338 144.562 15.3413 144.585 15.3413C144.608 15.3413 144.631 15.3338 144.65 15.32L145.91 13.5C145.92 13.4812 145.936 13.4656 145.954 13.4547C145.973 13.4438 145.994 13.4381 146.015 13.4381C146.036 13.4381 146.057 13.4438 146.076 13.4547C146.094 13.4656 146.11 13.4812 146.12 13.5L146.6 15.66C146.609 15.6835 146.623 15.7042 146.643 15.72C146.662 15.7358 146.685 15.7462 146.71 15.75L148.91 15.93C148.932 15.9333 148.952 15.9424 148.968 15.9563C148.985 15.9702 148.998 15.9884 149.005 16.009C149.012 16.0295 149.014 16.0516 149.009 16.073C149.005 16.0943 148.995 16.114 148.98 16.13L147.35 17.63C147.339 17.6498 147.333 17.6722 147.333 17.695C147.333 17.7178 147.339 17.7402 147.35 17.76L148.29 19.76C148.3 19.78 148.303 19.8024 148.3 19.8244C148.296 19.8463 148.287 19.8667 148.271 19.883C148.256 19.8992 148.237 19.9105 148.215 19.9153C148.193 19.9201 148.171 19.9183 148.15 19.91L146 19.27C145.981 19.2562 145.958 19.2487 145.935 19.2487C145.912 19.2487 145.889 19.2562 145.87 19.27L144.61 21.09C144.6 21.1088 144.584 21.1244 144.566 21.1353C144.547 21.1462 144.526 21.1519 144.505 21.1519C144.484 21.1519 144.463 21.1462 144.444 21.1353C144.426 21.1244 144.41 21.1088 144.4 21.09L144 18.93C143.991 18.9065 143.977 18.8858 143.957 18.87C143.938 18.8542 143.915 18.8438 143.89 18.84L141.69 18.66C141.665 18.6648 141.639 18.6615 141.616 18.6507C141.593 18.6399 141.575 18.6222 141.562 18.6C141.55 18.5778 141.545 18.5523 141.548 18.5271C141.552 18.502 141.563 18.4785 141.58 18.46ZM124.78 39.61L125.69 39.39L125.55 38.46C125.55 38.46 125.55 38.46 125.61 38.46L126.35 39.04H126.4L127.04 38.36H127.11V39.3L128.04 39.37V39.44L127.31 40.03L127.84 40.8V40.86L126.93 40.66C126.93 40.66 126.93 40.66 126.88 40.66L126.6 41.55H126.53L126.12 40.7L125.25 41.05C125.25 41.05 125.19 41.05 125.2 40.99L125.6 40.15L124.79 39.68C124.79 39.68 124.74 39.61 124.78 39.61ZM117 65.88L118.09 64.88C118.099 64.8667 118.104 64.851 118.104 64.835C118.104 64.8189 118.099 64.8033 118.09 64.79L117.46 63.44C117.454 63.4265 117.452 63.4117 117.454 63.3972C117.456 63.3827 117.462 63.369 117.472 63.3576C117.481 63.3462 117.493 63.3377 117.507 63.3328C117.521 63.3279 117.536 63.327 117.55 63.33L118.97 63.77C118.983 63.779 118.999 63.7839 119.015 63.7839C119.031 63.7839 119.047 63.779 119.06 63.77L119.91 62.55C119.915 62.537 119.924 62.5259 119.936 62.518C119.947 62.5102 119.961 62.506 119.975 62.506C119.989 62.506 120.003 62.5102 120.014 62.518C120.026 62.5259 120.035 62.537 120.04 62.55L120.37 64C120.375 64.0154 120.384 64.0291 120.397 64.0396C120.409 64.0502 120.424 64.0572 120.44 64.06L121.92 64.19C121.937 64.1854 121.955 64.1873 121.97 64.1951C121.986 64.2029 121.998 64.2162 122.004 64.2324C122.01 64.2486 122.01 64.2665 122.004 64.2827C121.997 64.2989 121.985 64.3122 121.97 64.32L120.88 65.32C120.871 65.3333 120.866 65.3489 120.866 65.365C120.866 65.381 120.871 65.3967 120.88 65.41L121.51 66.76C121.518 66.7729 121.522 66.788 121.52 66.8032C121.519 66.8183 121.513 66.8326 121.503 66.8439C121.492 66.8552 121.479 66.8628 121.464 66.8658C121.449 66.8687 121.434 66.8666 121.42 66.86L120 66.42C119.987 66.411 119.971 66.4061 119.955 66.4061C119.939 66.4061 119.923 66.411 119.91 66.42L119 67.67C118.995 67.683 118.986 67.6941 118.974 67.702C118.963 67.7098 118.949 67.714 118.935 67.714C118.921 67.714 118.907 67.7098 118.896 67.702C118.884 67.6941 118.875 67.683 118.87 67.67L118.54 66.21C118.533 66.1955 118.524 66.1827 118.512 66.1723C118.5 66.162 118.485 66.1543 118.47 66.15L117 66C116.991 65.9925 116.985 65.9833 116.98 65.9729C116.975 65.9626 116.973 65.9514 116.973 65.94C116.973 65.9287 116.975 65.9174 116.98 65.9071C116.985 65.8967 116.991 65.8875 117 65.88ZM104.35 19.6L105.94 19.23C105.949 19.2207 105.954 19.2081 105.954 19.195C105.954 19.1819 105.949 19.1693 105.94 19.16L105.7 17.54C105.697 17.5262 105.699 17.5119 105.704 17.4989C105.71 17.486 105.719 17.475 105.731 17.4675C105.743 17.4599 105.757 17.4561 105.771 17.4565C105.785 17.457 105.799 17.4617 105.81 17.47L107.09 18.47C107.104 18.4814 107.122 18.4875 107.14 18.4875C107.158 18.4875 107.176 18.4814 107.19 18.47L108.3 17.27C108.306 17.2596 108.315 17.2511 108.326 17.2451C108.336 17.2392 108.348 17.2361 108.36 17.2361C108.372 17.2361 108.384 17.2392 108.394 17.2451C108.405 17.2511 108.414 17.2596 108.42 17.27V19C108.422 19.0168 108.431 19.0321 108.444 19.0432C108.457 19.0542 108.473 19.0602 108.49 19.06L110.12 19.19C110.13 19.1962 110.139 19.205 110.145 19.2155C110.151 19.226 110.154 19.2379 110.154 19.25C110.154 19.2621 110.151 19.274 110.145 19.2845C110.139 19.295 110.13 19.3038 110.12 19.31L108.84 20.31C108.829 20.3242 108.822 20.3418 108.822 20.36C108.822 20.3782 108.829 20.3958 108.84 20.41L109.76 21.76C109.767 21.7646 109.772 21.7704 109.776 21.7772C109.781 21.784 109.784 21.7915 109.785 21.7994C109.786 21.8073 109.786 21.8154 109.785 21.8232C109.783 21.831 109.78 21.8384 109.775 21.845C109.77 21.8516 109.765 21.8572 109.758 21.8615C109.751 21.8658 109.743 21.8687 109.736 21.8701C109.728 21.8715 109.72 21.8713 109.712 21.8696C109.704 21.8679 109.697 21.8646 109.69 21.86L108.09 21.5C108.078 21.4938 108.064 21.4906 108.05 21.4906C108.036 21.4906 108.022 21.4938 108.01 21.5L107.53 23.06C107.525 23.073 107.516 23.0841 107.504 23.092C107.493 23.0998 107.479 23.104 107.465 23.104C107.451 23.104 107.437 23.0998 107.426 23.092C107.414 23.0841 107.405 23.073 107.4 23.06L106.69 21.59C106.677 21.581 106.661 21.5761 106.645 21.5761C106.629 21.5761 106.613 21.581 106.6 21.59L105.08 22.19C105.066 22.1966 105.051 22.1987 105.036 22.1958C105.021 22.1928 105.008 22.1852 104.997 22.1739C104.987 22.1626 104.981 22.1483 104.98 22.1332C104.978 22.118 104.982 22.1029 104.99 22.09L105.69 20.62C105.696 20.6144 105.702 20.6074 105.705 20.5997C105.709 20.5919 105.71 20.5835 105.71 20.575C105.71 20.5665 105.709 20.5581 105.705 20.5503C105.702 20.5426 105.696 20.5356 105.69 20.53L104.27 19.71C104.26 19.698 104.254 19.683 104.253 19.6673C104.253 19.6517 104.258 19.6363 104.267 19.6236C104.276 19.6109 104.289 19.6017 104.304 19.5974C104.319 19.5931 104.335 19.594 104.35 19.6ZM73.13 16.2C75.44 13.62 77.92 14.61 80.02 16.81C84.1 15.1 88.21 13.76 88.83 14.97C89.45 16.18 86.11 17.89 81.83 19.14C78.5032 20.1342 75.0681 20.7218 71.6 20.89C71.5852 20.8926 71.5699 20.8904 71.5564 20.8836C71.5429 20.8768 71.532 20.8658 71.5253 20.8524C71.5185 20.8389 71.5163 20.8236 71.519 20.8087C71.5216 20.7939 71.529 20.7803 71.54 20.77C71.5498 19.1127 72.109 17.5055 73.13 16.2ZM77 35.42L76.25 35.17L75.94 35.9H75.88L75.61 35.16L74.85 35.37L75.27 34.69L74.63 34.23V34.17L75.42 34.07V33.28C75.42 33.28 75.42 33.28 75.48 33.28L76.04 33.83L76.63 33.31H76.69L76.61 34.1L77.39 34.24C77.39 34.24 77.39 34.29 77.39 34.3L76.73 34.73L77 35.42ZM31.89 42.11L32.8 41.89L32.66 40.96C32.66 40.96 32.66 40.9 32.72 40.96L33.46 41.54L34.1 40.86H34.17V41.8L35.1 41.87V41.94L34.37 42.53L34.9 43.3V43.36L33.99 43.16L33.71 44.06H33.64L33.23 43.21C33.23 43.21 33.23 43.21 33.18 43.21L32.31 43.56C32.31 43.56 32.25 43.56 32.26 43.5L32.66 42.66L31.85 42.19C31.85 42.19 31.85 42.11 31.89 42.11ZM6.94 20L7.85 19.78L7.71 18.85C7.71 18.85 7.71 18.85 7.77 18.85L8.51 19.43C8.51 19.43 8.51 19.43 8.56 19.43L9.2 18.75H9.27V19.69L10.2 19.76V19.83L9.47 20.42L10 21.19V21.25L9.09 21.05C9.09 21.05 9.09 21.05 9.04 21.05L8.8 22H8.73L8.32 21.15H8.27L7.4 21.5C7.4 21.5 7.34 21.5 7.4 21.44L7.8 20.6L6.99 20.13C6.99 20.13 6.9 20 6.94 20ZM9.77 67.63L9.08 68.26C9.07555 68.2694 9.07325 68.2796 9.07325 68.29C9.07325 68.3004 9.07555 68.3106 9.08 68.32L9.48 69.16C9.48441 69.1688 9.48612 69.1787 9.48492 69.1885C9.48373 69.1983 9.47967 69.2075 9.47326 69.2149C9.46685 69.2224 9.45838 69.2278 9.4489 69.2305C9.43943 69.2332 9.42937 69.233 9.42 69.23L8.53 68.95C8.53 68.95 8.53 68.95 8.47 68.95L7.94 69.71H7.86L7.65 68.8L6.72 68.72V68.64L7.4 68.01V67.95L7.01 67.11C6.99541 67.1113 6.9809 67.1068 6.96964 67.0974C6.95839 67.0881 6.95133 67.0746 6.95 67.06C6.94867 67.0454 6.9532 67.0309 6.96257 67.0196C6.97195 67.0084 6.98541 67.0013 7 67L7.89 67.28C7.89 67.28 7.89 67.28 7.94 67.28L8.47 66.51C8.47409 66.5015 8.48049 66.4944 8.48845 66.4894C8.4964 66.4844 8.50561 66.4818 8.515 66.4818C8.52439 66.4818 8.53359 66.4844 8.54155 66.4894C8.54951 66.4944 8.55591 66.5015 8.56 66.51L8.76 67.42L9.69 67.49C9.70724 67.4794 9.72799 67.4761 9.74768 67.4808C9.76737 67.4854 9.78439 67.4978 9.795 67.515C9.80561 67.5322 9.80894 67.553 9.80425 67.5727C9.79956 67.5924 9.78724 67.6094 9.77 67.62V67.63ZM17.77 128.4L16.14 129.9C16.1275 129.919 16.1209 129.942 16.1209 129.965C16.1209 129.988 16.1275 130.011 16.14 130.03L17.08 132.03C17.0879 132.05 17.0901 132.073 17.0863 132.094C17.0825 132.116 17.0728 132.136 17.0584 132.152C17.044 132.169 17.0253 132.181 17.0045 132.188C16.9836 132.194 16.9613 132.195 16.94 132.19L14.83 131.54C14.8111 131.526 14.7884 131.519 14.765 131.519C14.7416 131.519 14.7189 131.526 14.7 131.54L13.44 133.36C13.4296 133.379 13.4144 133.394 13.3959 133.405C13.3775 133.416 13.3564 133.422 13.335 133.422C13.3136 133.422 13.2925 133.416 13.2741 133.405C13.2556 133.394 13.2404 133.379 13.23 133.36L12.75 131.2C12.7424 131.176 12.7279 131.155 12.7084 131.139C12.6889 131.123 12.6651 131.113 12.64 131.11L10.44 130.92C10.4184 130.919 10.3977 130.912 10.3803 130.899C10.3629 130.886 10.3496 130.868 10.3421 130.848C10.3347 130.828 10.3333 130.806 10.3383 130.785C10.3432 130.764 10.3543 130.745 10.37 130.73L11.99 129.23C12.0047 129.21 12.0125 129.185 12.0125 129.16C12.0125 129.135 12.0047 129.11 11.99 129.09L11.05 127.09C11.0421 127.07 11.0399 127.047 11.0437 127.026C11.0475 127.004 11.0572 126.984 11.0716 126.968C11.086 126.951 11.1047 126.939 11.1255 126.932C11.1464 126.926 11.1687 126.925 11.19 126.93L13.3 127.59C13.3241 127.598 13.3502 127.597 13.3739 127.588C13.3976 127.579 13.4174 127.562 13.43 127.54L14.69 125.73C14.6988 125.711 14.7129 125.695 14.7306 125.683C14.7483 125.672 14.7689 125.666 14.79 125.666C14.8111 125.666 14.8317 125.672 14.8494 125.683C14.8671 125.695 14.8812 125.711 14.89 125.73L15.38 127.89C15.3881 127.913 15.4029 127.933 15.4226 127.947C15.4422 127.961 15.4657 127.969 15.49 127.97L17.69 128.16C17.7205 128.147 17.755 128.146 17.786 128.158C17.8169 128.171 17.8417 128.195 17.855 128.225C17.8683 128.256 17.8689 128.29 17.8567 128.321C17.8445 128.352 17.8205 128.377 17.79 128.39L17.77 128.4ZM23.11 92.29L21.82 93.48C21.8078 93.4958 21.8012 93.5151 21.8012 93.535C21.8012 93.5549 21.8078 93.5742 21.82 93.59L22.57 95.18C22.5796 95.1961 22.584 95.2148 22.5824 95.2335C22.5809 95.2522 22.5736 95.27 22.5614 95.2843C22.5493 95.2986 22.533 95.3088 22.5148 95.3134C22.4967 95.318 22.4775 95.3168 22.46 95.31L20.78 94.79C20.7633 94.7803 20.7443 94.7753 20.725 94.7753C20.7057 94.7753 20.6867 94.7803 20.67 94.79L19.67 96.24C19.661 96.2545 19.6485 96.2664 19.6336 96.2747C19.6188 96.283 19.602 96.2873 19.585 96.2873C19.568 96.2873 19.5512 96.283 19.5364 96.2747C19.5215 96.2664 19.509 96.2545 19.5 96.24L19.11 94.52C19.1076 94.5006 19.0981 94.4827 19.0833 94.4698C19.0686 94.4569 19.0496 94.4498 19.03 94.45L17.28 94.3C17.2631 94.2968 17.2474 94.2893 17.2342 94.2783C17.2211 94.2672 17.211 94.2529 17.205 94.2369C17.199 94.2208 17.1972 94.2034 17.1998 94.1865C17.2025 94.1695 17.2094 94.1535 17.22 94.14L18.52 92.95C18.5297 92.9333 18.5347 92.9143 18.5347 92.895C18.5347 92.8757 18.5297 92.8567 18.52 92.84L17.77 91.25C17.7604 91.2339 17.756 91.2152 17.7576 91.1965C17.7591 91.1778 17.7664 91.16 17.7786 91.1457C17.7907 91.1314 17.807 91.1212 17.8252 91.1166C17.8433 91.112 17.8625 91.1132 17.88 91.12L19.56 91.64C19.5748 91.6499 19.5922 91.6552 19.61 91.6552C19.6278 91.6552 19.6452 91.6499 19.66 91.64L20.66 90.19C20.6676 90.1753 20.679 90.163 20.6932 90.1544C20.7073 90.1458 20.7235 90.1412 20.74 90.1412C20.7565 90.1412 20.7727 90.1458 20.7868 90.1544C20.801 90.163 20.8124 90.1753 20.82 90.19L21.21 91.91C21.2124 91.9294 21.2219 91.9473 21.2367 91.9602C21.2514 91.9731 21.2704 91.9802 21.29 91.98L23.05 92.13C23.0685 92.1271 23.0874 92.13 23.1041 92.1384C23.1208 92.1467 23.1345 92.1601 23.1433 92.1766C23.1521 92.1931 23.1555 92.2119 23.1532 92.2304C23.1508 92.2489 23.1427 92.2663 23.13 92.28L23.11 92.29ZM52 129.91L50.29 130.3C50.2706 130.302 50.2527 130.312 50.2398 130.327C50.2269 130.341 50.2198 130.36 50.22 130.38L50.07 132.14C50.0687 132.158 50.062 132.175 50.0508 132.19C50.0396 132.204 50.0243 132.214 50.0071 132.22C49.9898 132.225 49.9713 132.225 49.954 132.22C49.9366 132.215 49.9213 132.204 49.91 132.19L48.71 130.9C48.6958 130.889 48.6782 130.882 48.66 130.882C48.6418 130.882 48.6242 130.889 48.61 130.9L47.01 131.65C46.9942 131.656 46.9769 131.658 46.9601 131.655C46.9433 131.652 46.9277 131.645 46.9151 131.633C46.9026 131.621 46.8935 131.607 46.8891 131.59C46.8846 131.574 46.8849 131.556 46.89 131.54L47.41 129.85C47.4188 129.835 47.4234 129.818 47.4234 129.8C47.4234 129.782 47.4188 129.765 47.41 129.75L45.96 128.75C45.9424 128.744 45.9271 128.732 45.9162 128.717C45.9054 128.702 45.8996 128.684 45.8996 128.665C45.8996 128.646 45.9054 128.628 45.9162 128.613C45.9271 128.598 45.9424 128.586 45.96 128.58L47.68 128.19C47.6994 128.188 47.7173 128.178 47.7302 128.163C47.7431 128.149 47.7502 128.13 47.75 128.11L47.9 126.36C47.8993 126.341 47.9045 126.322 47.915 126.307C47.9254 126.291 47.9406 126.279 47.9583 126.272C47.976 126.266 47.9954 126.265 48.0137 126.27C48.0319 126.275 48.0481 126.285 48.06 126.3L49.25 127.6C49.2674 127.607 49.2861 127.611 49.305 127.611C49.3239 127.611 49.3426 127.607 49.36 127.6L50.95 126.85C50.9661 126.84 50.9848 126.836 51.0035 126.838C51.0222 126.839 51.04 126.846 51.0543 126.859C51.0686 126.871 51.0788 126.887 51.0834 126.905C51.088 126.923 51.0868 126.943 51.08 126.96L50.56 128.64C50.5486 128.654 50.5425 128.672 50.5425 128.69C50.5425 128.708 50.5486 128.726 50.56 128.74L52.01 129.74C52.0274 129.747 52.0421 129.759 52.0521 129.775C52.0621 129.791 52.0668 129.81 52.0657 129.829C52.0646 129.847 52.0577 129.865 52.0459 129.88C52.0341 129.894 52.0181 129.905 52 129.91ZM79.21 117.22L78.21 117.83C78.21 117.83 78.21 117.83 78.21 117.89L78.75 118.89C78.75 118.89 78.75 118.97 78.69 118.95L77.62 118.59L77.17 119.59C77.17 119.59 77.1 119.59 77.09 119.59L76.7 118.54H76.64L75.56 118.84C75.56 118.84 75.48 118.84 75.56 118.77L76.14 117.77V117.7L75.23 117.04V116.96L76.35 116.82L76.3 115.69H76.38L77.18 116.47C77.1902 116.477 77.2024 116.481 77.215 116.481C77.2276 116.481 77.2398 116.477 77.25 116.47L78.1 115.72C78.1 115.72 78.18 115.72 78.17 115.72L78.06 116.84C78.0556 116.849 78.0532 116.86 78.0532 116.87C78.0532 116.88 78.0556 116.891 78.06 116.9L79.17 117.1C79.17 117.1 79.28 117.2 79.25 117.22H79.21ZM107 133.57L106 134.18V134.24L106.53 135.24C106.534 135.249 106.536 135.259 106.535 135.268C106.534 135.278 106.53 135.287 106.523 135.295C106.517 135.302 106.508 135.308 106.499 135.311C106.489 135.313 106.479 135.313 106.47 135.31L105.41 134.95H105.35L104.91 135.95C104.91 135.95 104.83 135.95 104.82 135.95L104.43 134.89L103.34 135.19V135.12L103.93 134.12V134.06L103.02 133.4C103.012 133.396 103.004 133.39 102.999 133.382C102.994 133.374 102.992 133.364 102.992 133.355C102.992 133.346 102.994 133.336 102.999 133.328C103.004 133.32 103.012 133.314 103.02 133.31L104.14 133.17V132.05H104.22L105.03 132.84C105.03 132.84 105.03 132.84 105.09 132.84L105.94 132.1H106.02L105.9 133.22V133.27L107.01 133.47C107.023 133.471 107.035 133.478 107.044 133.488C107.052 133.498 107.056 133.512 107.055 133.525C107.054 133.538 107.047 133.55 107.037 133.559C107.027 133.567 107.013 133.571 107 133.57ZM140.91 111.18L140.83 111.12C140.25 110.71 137.97 109.19 134.52 106.88H134.41L103.53 94C102.73 93.5746 101.848 93.3268 100.944 93.2733C100.04 93.2198 99.1344 93.3619 98.29 93.69V93.75C99.4658 94.5403 100.558 95.4484 101.55 96.46L125.17 121.63L118.86 128L91.81 108.34C89.3505 106.815 86.4622 106.131 83.58 106.39C73.4 107.39 59.58 108.78 52.99 106.83C49.831 105.787 47.0831 103.77 45.14 101.07C43.0627 98.2709 41.4985 95.1255 40.52 91.78V91.72L40.27 91.8C37.74 72.59 40.76 61.8 40.76 61.8C40.76 61.8 29.3 75 24.88 73.46C19.23 71.54 13 48 13 48H13.14V47.84C12.88 46.99 10.71 44.84 8.84 43.69C7.84 43.11 6.78 42.69 6.17 42.28C6.0689 42.209 5.98638 42.1146 5.92942 42.005C5.87246 41.8953 5.84272 41.7736 5.84272 41.65C5.84272 41.5264 5.87246 41.4047 5.92942 41.295C5.98638 41.1854 6.0689 41.091 6.17 41.02L6.05 40.85C5.92445 40.7356 5.8301 40.5911 5.77587 40.4301C5.72163 40.2692 5.70929 40.0971 5.74 39.93C5.93 39.35 6.87 39.21 8.04 39.4V39.17C8.31 38.23 9.45 38.46 9.96 38.55C12.71 39.05 16.31 41.95 16.51 42.63L16.67 42.81C16.9849 42.5779 17.3195 42.3737 17.67 42.2C17.78 41.96 16.5 39.2 17.8 38.91C18.29 38.81 18.74 39.35 18.92 39.73C19.29 40.47 20.13 43.23 19.25 47.8H19.5C23.95 58.8 26.6 63.14 26.91 63.13C27.22 63.12 36.13 53 39.67 48.87C41.67 46.58 49.12 46.78 49.12 46.78C49.2727 45.9858 49.7101 45.2746 50.35 44.78L50.26 44.62C50.26 38.7 49.94 33.32 50.44 27.41V27.33C50.0313 27.4866 49.5854 27.5189 49.1584 27.4228C48.7313 27.3267 48.3423 27.1066 48.04 26.79C47.04 25.52 48.62 21.05 50.96 23.08C51.28 20.81 51.37 18.62 53.19 17.08C59.29 12.08 64.19 21.53 65.19 25.24C66.07 28.7 61.19 36.5 59.78 37.05C59.6164 37.1196 59.4452 37.17 59.27 37.2C59.78 39.45 59.92 42.2 60.88 44.2V44.3C61.3109 44.4615 61.6939 44.7297 61.9929 45.0795C62.292 45.4292 62.4974 45.8492 62.59 46.3C62.59 46.3 68.68 46.52 70.5 47.35C73.61 48.78 82.21 61.83 82.5 61.84C82.79 61.85 86.09 57.29 90.5 46.3H90.78C89.97 41.65 90.91 38.73 91.29 37.99C91.48 37.61 91.94 37.08 92.43 37.19C93.72 37.48 92.37 40.24 92.43 40.48C92.43 40.56 92.9 40.68 93.31 41.01L93.59 40.94C93.8 40.26 97.47 37.45 100.24 37.01C100.75 36.93 101.89 36.73 102.14 37.67V37.9C103.32 37.74 104.25 37.9 104.43 38.48C104.457 38.6472 104.44 38.8184 104.382 38.9776C104.325 39.1368 104.228 39.2787 104.1 39.39L103.82 39.49C103.949 39.5394 104.062 39.6237 104.147 39.7335C104.231 39.8433 104.284 39.9743 104.298 40.112C104.313 40.2498 104.289 40.3888 104.229 40.5138C104.169 40.6387 104.076 40.7447 103.96 40.82C103.34 41.25 102.24 41.61 101.26 42.17C99.36 43.27 97.11 45.62 96.84 46.46V46.54H96.98C96.98 46.54 90.98 68.9 85.49 71.21C80 73.52 69.07 60.4 69.07 60.4C68.59 74.07 72.36 78.4 74.07 82.03C94.97 74.53 103.63 75.32 111.45 79.95C118.89 84.36 139.54 99.48 139.54 99.48L134.45 106.81L134.52 106.86L139.79 99.37C140.39 98.8 145.61 96.04 148.49 92.73C149.87 91.14 151.95 90.16 153.89 92.07L155.41 93.07L142.41 112.14L140.91 111.18ZM157.16 117.05L156.43 117.64V117.69L156.95 118.46V118.52L156.04 118.32H155.99L155.72 119.22H155.64L155.23 118.38C155.23 118.38 155.23 118.38 155.18 118.38L154.31 118.73C154.31 118.73 154.25 118.73 154.31 118.67L154.72 117.83C154.72 117.83 154.72 117.83 154.72 117.78L153.91 117.31V117.24L154.82 117.02L154.68 116.09H154.75L155.48 116.67L156.12 115.99H156.19V116.93L157.12 117L157.18 117.05H157.16Z" fill="black"/>
<path d="M153.85 92.0498L140.85 111.12C140.27 110.71 137.99 109.19 134.54 106.88H134.43V106.83L134.5 106.88L139.77 99.3898C140.37 98.8198 145.59 96.0598 148.47 92.7498C149.83 91.1198 151.91 90.1398 153.85 92.0498Z" fill="black"/>
<path d="M19.35 47.82H19.6C24.05 58.82 26.7 63.16 27.01 63.15C27.32 63.14 36.13 53 39.67 48.87C41.67 46.58 49.12 46.78 49.12 46.78C49.2727 45.9858 49.7101 45.2746 50.35 44.78C51.1 44.31 57.22 43.48 60.6 44.26C60.6723 44.2707 60.7429 44.2908 60.81 44.32C61.2409 44.4815 61.6239 44.7497 61.9229 45.0995C62.222 45.4492 62.4274 45.8692 62.52 46.32C62.52 46.32 68.61 46.54 70.43 47.37C73.54 48.8 82.14 61.85 82.43 61.86C82.72 61.87 86.02 57.31 90.43 46.32H90.71L96.85 46.52H96.99C96.99 46.52 90.99 68.88 85.5 71.19C80.01 73.5 69.07 60.4 69.07 60.4C68.59 74.07 72.36 78.4 74.07 82.03L40.58 91.73L40.33 91.81C37.8 72.6 40.82 61.81 40.82 61.81C40.82 61.81 29.3 75 24.88 73.46C19.23 71.54 13 48 13 48H13.14L19.35 47.82Z" fill="black"/>
<path d="M98.29 93.6502C99.1344 93.3221 100.04 93.18 100.944 93.2335C101.848 93.287 102.73 93.5349 103.53 93.9602L134.38 106.84V106.79L139.47 99.4602C139.47 99.4602 118.82 84.3402 111.38 79.9302C103.56 75.3002 94.75 74.4002 73.85 81.9302" stroke="black" stroke-width="0.86" stroke-linecap="round" stroke-linejoin="round"/>
<path d="M40.52 91.7901C41.4985 95.1356 43.0627 98.281 45.14 101.08C47.0857 103.782 49.8373 105.799 53 106.84C59.55 108.79 73.41 107.42 83.59 106.4C86.4722 106.141 89.3605 106.825 91.82 108.35L118.86 128L125.13 121.58L101.51 96.4101C100.518 95.3985 99.4258 94.4904 98.25 93.7001C93.46 90.3601 83.37 85.4501 67.82 88.1201" stroke="black" stroke-width="0.86" stroke-linecap="round" stroke-linejoin="round"/>
<path d="M62.03 26.7101C62.262 26.7101 62.45 26.5221 62.45 26.2901C62.45 26.0582 62.262 25.8701 62.03 25.8701C61.798 25.8701 61.61 26.0582 61.61 26.2901C61.61 26.5221 61.798 26.7101 62.03 26.7101Z" fill="black"/>
<path d="M56.42 26.6198C56.652 26.6198 56.84 26.4317 56.84 26.1998C56.84 25.9678 56.652 25.7798 56.42 25.7798C56.188 25.7798 56 25.9678 56 26.1998C56 26.4317 56.188 26.6198 56.42 26.6198Z" fill="black"/>
<path d="M29.1 11.9399H30.78" stroke="black" stroke-width="0.86" stroke-linecap="round" stroke-linejoin="round"/>
<path d="M29.1 11.9398V6.25977L25.32 11.9398H29.1Z" stroke="black" stroke-width="0.86" stroke-linecap="round" stroke-linejoin="round"/>
<path d="M29.1 15.2899V11.9399" stroke="black" stroke-width="0.86" stroke-linecap="round" stroke-linejoin="round"/>
<path d="M40.91 11.9399H42.59" stroke="black" stroke-width="0.86" stroke-linecap="round" stroke-linejoin="round"/>
<path d="M40.91 11.94V6.27002L37.13 11.94H40.91Z" stroke="black" stroke-width="0.86" stroke-linecap="round" stroke-linejoin="round"/>
<path d="M40.91 15.2899V11.9399" stroke="black" stroke-width="0.86" stroke-linecap="round" stroke-linejoin="round"/>
<path d="M33.93 15.3002C35.1229 15.3002 36.09 13.2676 36.09 10.7602C36.09 8.25284 35.1229 6.22021 33.93 6.22021C32.7371 6.22021 31.77 8.25284 31.77 10.7602C31.77 13.2676 32.7371 15.3002 33.93 15.3002Z" stroke="black" stroke-width="0.86" stroke-linecap="round" stroke-linejoin="round"/>
<path d="M51 22.9998C51.32 20.7298 51.41 18.5398 53.23 16.9998C59.33 11.9998 64.23 21.4498 65.23 25.1598C66.11 28.6198 61.23 36.4198 59.82 36.9698C59.6564 37.0395 59.4852 37.0898 59.31 37.1198C57.25 37.4998 54.63 35.6698 53.74 33.8498" stroke="black" stroke-width="0.86" stroke-miterlimit="10" stroke-linecap="round"/>
<path d="M50.26 44.6202C50.26 38.7002 49.94 33.3202 50.44 27.4102" stroke="black" stroke-width="0.86" stroke-miterlimit="10"/>
<path d="M59.18 37L59.24 37.24C59.75 39.49 59.89 42.24 60.85 44.24" stroke="black" stroke-width="0.86" stroke-miterlimit="10"/>
<path d="M51.79 24.0799C51.5513 23.7081 51.2619 23.3715 50.93 23.0799C48.59 21.0799 47.04 25.5199 48.01 26.7899C48.3123 27.1065 48.7013 27.3266 49.1284 27.4227C49.5554 27.5188 50.0013 27.4865 50.41 27.3299C50.5992 27.2723 50.7832 27.1987 50.96 27.1099" stroke="black" stroke-width="0.86" stroke-miterlimit="10" stroke-linecap="round"/>
<path d="M71.52 20.75C71.5399 19.0972 72.106 17.4975 73.13 16.2C75.44 13.62 77.92 14.61 80.02 16.81C80.6498 17.4912 81.2218 18.2238 81.73 19" stroke="#323232" stroke-width="0.86" stroke-miterlimit="10" stroke-linecap="round"/>
<path d="M80 16.8099C76.27 18.3699 72.56 20.2399 71.54 20.7599C71.529 20.7702 71.5216 20.7838 71.519 20.7986C71.5163 20.8135 71.5185 20.8288 71.5253 20.8423C71.532 20.8557 71.5429 20.8667 71.5564 20.8735C71.5699 20.8803 71.5852 20.8825 71.6 20.8799C75.0547 20.7085 78.4761 20.121 81.79 19.1299C86.11 17.8799 89.46 16.1999 88.79 14.9599C88.12 13.7199 84.1 15.0999 80 16.8099Z" fill="#5FB2FF" stroke="#323232" stroke-width="0.86" stroke-miterlimit="10"/>
<path d="M57.46 24C57.2934 23.8408 57.095 23.7187 56.8779 23.6418C56.6607 23.5649 56.4297 23.5349 56.2001 23.5538C55.9704 23.5727 55.7474 23.6401 55.5457 23.7515C55.3441 23.8629 55.1683 24.0157 55.03 24.2" stroke="black" stroke-width="0.86" stroke-miterlimit="10" stroke-linecap="round"/>
<path d="M62.79 24.08C62.6232 23.92 62.4246 23.7971 62.207 23.7193C61.9894 23.6415 61.7578 23.6105 61.5274 23.6285C61.2971 23.6464 61.0731 23.7128 60.8702 23.8234C60.6673 23.9339 60.49 24.0861 60.35 24.27" stroke="black" stroke-width="0.86" stroke-miterlimit="10" stroke-linecap="round"/>
<path d="M57.19 33.6002C57.66 32.7202 59.32 32.4402 59.83 33.3302" stroke="black" stroke-width="0.86" stroke-linecap="round" stroke-linejoin="round"/>
<path d="M50.49 24.8799C50.0616 25.2689 49.5084 25.4923 48.93 25.5099" stroke="black" stroke-width="0.86" stroke-miterlimit="10" stroke-linecap="round"/>
<path d="M60.32 24.3198C59.83 25.5398 60.41 27.4598 60.59 28.7198C60.72 29.5898 60.9 31.2598 59.42 30.7198" stroke="black" stroke-width="0.86" stroke-miterlimit="10" stroke-linecap="round"/>
<path d="M52.07 93C52.2 97.46 49.01 100.08 45.14 101C44.2379 101.219 43.3172 101.353 42.39 101.4" stroke="black" stroke-width="0.86" stroke-miterlimit="10" stroke-linecap="round"/>
<path d="M140.93 111.18L142.37 112.16L155.38 93.09L153.85 92.05L153.8 92.02L140.81 111.09H140.8L140.83 111.11L140.85 111.12L140.93 111.18Z" fill="black" stroke="white" stroke-width="0.86" stroke-miterlimit="10"/>
<path d="M41.07 20.9202H42.38C42.9667 20.9503 43.5416 20.7477 43.9797 20.3563C44.4179 19.965 44.6839 19.4166 44.72 18.8302V3.5002C44.6865 2.91289 44.4212 2.3629 43.9824 1.97103C43.5437 1.57916 42.9674 1.37745 42.38 1.4102H25.2C24.6116 1.37739 24.0342 1.57879 23.5938 1.97041C23.1535 2.36203 22.8861 2.91202 22.85 3.5002V18.8302C22.8861 19.4184 23.1535 19.9684 23.5938 20.36C24.0342 20.7516 24.6116 20.953 25.2 20.9202H38.2" stroke="black" stroke-width="0.86" stroke-linecap="round" stroke-linejoin="round"/>
<path d="M38.25 19.6798C38.25 19.6798 38.32 20.1798 38.45 20.8798C38.72 22.3098 39.26 24.5898 40.02 25.1898C40.78 25.7898 40.91 22.9798 40.93 20.9098C40.93 19.7498 40.93 18.7998 40.93 18.7998" stroke="black" stroke-width="0.86" stroke-linecap="round" stroke-linejoin="round"/>
<path d="M13.18 47.8599C12.92 47.0099 10.75 44.8599 8.88 43.7099C7.88 43.1299 6.82 42.7099 6.21 42.2999C6.1089 42.2288 6.02638 42.1345 5.96942 42.0249C5.91246 41.9152 5.88272 41.7935 5.88272 41.6699C5.88272 41.5463 5.91246 41.4246 5.96942 41.3149C6.02638 41.2053 6.1089 41.1109 6.21 41.0399C6.52071 40.8905 6.87022 40.8416 7.21 40.8999C9.0606 41.365 10.7743 42.263 12.21 43.5199" stroke="black" stroke-width="0.86" stroke-linecap="round" stroke-linejoin="round"/>
<path d="M16.6 42.65C16.4 41.97 12.8 39.07 10.05 38.57C9.54 38.48 8.4 38.25 8.13 39.19" stroke="black" stroke-width="0.86" stroke-linecap="round" stroke-linejoin="round"/>
<path d="M13.2 42.08C11.8341 40.6574 10.0388 39.7229 8.09 39.42C6.92 39.23 5.98 39.42 5.79 39.95C5.75929 40.1171 5.77163 40.2892 5.82587 40.4502C5.8801 40.6111 5.97445 40.7556 6.1 40.87" stroke="black" stroke-width="0.86" stroke-linecap="round" stroke-linejoin="round"/>
<path d="M16.18 44.5602C16.1169 44.2463 16.1372 43.9214 16.239 43.6178C16.3408 43.3142 16.5204 43.0426 16.76 42.8302C17.0749 42.5981 17.4095 42.394 17.76 42.2202C17.87 41.9802 16.59 39.2202 17.89 38.9302C18.38 38.8302 18.79 39.3902 19.01 39.7502C19.41 40.4102 20.29 45.8702 18.95 49.2002" stroke="black" stroke-width="0.86" stroke-linecap="round" stroke-linejoin="round"/>
<path d="M96.92 46.4798C97.19 45.6398 99.44 43.2898 101.34 42.1898C102.34 41.6298 103.42 41.2698 104.04 40.8398C104.156 40.7645 104.249 40.6585 104.309 40.5335C104.369 40.4086 104.393 40.2695 104.378 40.1318C104.364 39.9941 104.311 39.8631 104.227 39.7533C104.142 39.6435 104.029 39.5592 103.9 39.5098C103.625 39.4107 103.33 39.3799 103.04 39.4198C101.185 39.8449 99.4572 40.7052 98 41.9298" stroke="black" stroke-width="0.86" stroke-linecap="round" stroke-linejoin="round"/>
<path d="M93.64 40.9999C93.85 40.3199 97.52 37.5099 100.29 37.0699C100.8 36.9899 101.94 36.7899 102.19 37.7299" stroke="black" stroke-width="0.86" stroke-linecap="round" stroke-linejoin="round"/>
<path d="M97.05 40.4599C98.4516 39.0739 100.266 38.1823 102.22 37.9199C103.4 37.7599 104.33 37.9199 104.51 38.4999C104.537 38.6671 104.52 38.8383 104.462 38.9974C104.405 39.1566 104.308 39.2985 104.18 39.4099" stroke="black" stroke-width="0.86" stroke-linecap="round" stroke-linejoin="round"/>
<path d="M94 42.88C94.0748 42.5408 94.0525 42.1874 93.9358 41.8602C93.8191 41.533 93.6126 41.2453 93.34 41.03C92.93 40.7 92.49 40.58 92.46 40.5C92.35 40.26 93.7 37.5 92.46 37.21C91.97 37.1 91.46 37.63 91.32 38.01C90.3066 40.9109 90.2123 44.0537 91.05 47.01" stroke="black" stroke-width="0.86" stroke-linecap="round" stroke-linejoin="round"/>
<path d="M44.64 6.25001H156.44C157.565 6.25001 158.679 6.47175 159.718 6.90255C160.757 7.33336 161.701 7.96478 162.496 8.76071C163.291 9.55664 163.922 10.5015 164.351 11.5412C164.781 12.5809 165.001 13.695 165 14.82V132C165 134.273 164.097 136.453 162.49 138.06C160.883 139.667 158.703 140.57 156.43 140.57H9.56C7.28883 140.567 5.11158 139.663 3.50656 138.056C1.90153 136.449 0.999999 134.271 1 132V14.82C0.998684 13.6942 1.21946 12.5792 1.64967 11.5389C2.07989 10.4985 2.7111 9.55323 3.50716 8.75717C4.30322 7.96111 5.24849 7.3299 6.28885 6.89968C7.3292 6.46946 8.4442 6.24869 9.57 6.25001H22.79" stroke="black" stroke-width="0.86" stroke-linecap="round" stroke-linejoin="round"/>
<path d="M140.32 110.76C139.74 110.35 134.71 106.25 134.69 106.28" stroke="white" stroke-width="0.86" stroke-linecap="square" stroke-linejoin="bevel"/>
<path d="M134.63 106.22L139.15 99.7798C139.75 99.2098 145.57 96.0198 148.45 92.7098C149.83 91.1198 151.91 90.1398 153.85 92.0498L140.93 111.18L140.85 111.12" stroke="white" stroke-width="0.86" stroke-linecap="square" stroke-linejoin="bevel"/>
<path d="M124.29 133.36L125.52 134.6L141.95 118.4L140.65 117.08L140.62 117.04L124.19 133.25H124.18L124.21 133.28L124.22 133.29L124.29 133.36Z" fill="black" stroke="white" stroke-width="0.86" stroke-miterlimit="10"/>
<path d="M123.77 132.83C123.28 132.32 119.14 127.33 119.12 127.35" stroke="white" stroke-width="0.86" stroke-linecap="square" stroke-linejoin="bevel"/>
<path d="M119.07 127.28L124.74 121.83C125.44 121.39 131.74 119.39 135.22 116.69C136.89 115.39 139.12 114.83 140.65 117.08L124.29 133.36L124.22 133.29" stroke="white" stroke-width="0.86" stroke-linecap="square" stroke-linejoin="bevel"/>
<path d="M69.07 60.3999C69.07 60.3999 80.07 73.5399 85.57 71.2299C91.07 68.92 96.88 46.4499 96.88 46.4499L90.73 46.2499C86.28 57.2499 82.73 61.8999 82.46 61.8899C82.19 61.8799 73.54 48.8299 70.46 47.3999C68.64 46.5699 62.55 46.3499 62.55 46.3499C62.4574 45.8991 62.252 45.4792 61.9529 45.1294C61.6539 44.7796 61.2709 44.5114 60.84 44.3499C60.7729 44.3208 60.7023 44.3006 60.63 44.2899C57.25 43.5099 51.13 44.2899 50.38 44.8099C49.7401 45.3045 49.3027 46.0157 49.15 46.8099C49.15 46.8099 41.68 46.6099 39.7 48.8999C36.13 52.9999 27.33 63.1399 27 63.1499C26.67 63.1599 19.34 48.0699 19.34 48.0699L13.34 48.2299C13.34 48.2299 19.25 71.5399 24.9 73.4599C29.3 74.9999 40.75 61.8399 40.75 61.8399C40.75 61.8399 37.75 72.5999 40.26 91.8399L40.51 91.7599L74 81.9999C72.32 78.3499 68.55 73.9999 69 60.3699V60.2999" stroke="white" stroke-width="0.86" stroke-linecap="round" stroke-linejoin="round"/>
<path d="M79.5 17L81 19" stroke="black"/>
</svg>
