<svg width="200" height="200" viewBox="0 0 200 200" fill="none" xmlns="http://www.w3.org/2000/svg">
<path d="M109.86 36C109.848 36.3103 109.96 36.6126 110.171 36.8405C110.382 37.0684 110.675 37.2031 110.985 37.215C111.295 37.2269 111.598 37.1151 111.825 36.9041C112.053 36.6932 112.188 36.4003 112.2 36.09C112.215 35.9839 112.215 35.8761 112.2 35.77C112.2 34.88 112.15 34.04 112.15 33.25C112.938 33.3654 113.647 33.7889 114.123 34.4275C114.598 35.066 114.8 35.8673 114.685 36.655C114.57 37.4427 114.146 38.1523 113.508 38.6277C112.869 39.1031 112.068 39.3054 111.28 39.19C111.167 39.2 111.053 39.2 110.94 39.19C110.111 39.1562 109.33 38.795 108.768 38.1856C108.205 37.5763 107.908 36.7686 107.94 35.94C107.975 35.4045 108.153 34.8883 108.456 34.445C108.758 34.0018 109.174 33.6478 109.66 33.42C109.664 34.2821 109.714 35.1433 109.81 36H109.86Z" fill="black"/>
<path d="M121.05 53.2598C121.583 53.6746 122.011 54.209 122.3 54.8198H129.06C129.925 54.811 130.786 54.69 131.62 54.4598L138.78 52.4598V52.3698L128.1 42.1998L128.17 42.1198L131.17 38.8298L131.23 38.7598C131.23 38.7598 152.33 49.9998 152.14 54.2298C151.93 58.8398 133.76 67.8898 133.76 67.8898C133.76 67.8898 134.23 107.24 134.28 108.12H133.92H95.73H95.66C95.79 101.85 97.18 80.7998 98.29 67.6198C92.5381 69.9143 86.6739 71.9169 80.72 73.6198C79.74 73.9998 73 66.7998 68 59.1098V58.9998C68.346 58.9051 68.6511 58.699 68.8681 58.4134C69.085 58.1277 69.2017 57.7785 69.2 57.4198V53.9398H69.28C69.578 53.8262 69.8603 53.675 70.12 53.4898C72.48 56.2598 81 63.9998 82 63.6498C85 62.5198 91.17 59.0998 98 55.7698C100.11 54.7698 105.35 54.8698 109.31 54.9398C109.46 54.272 109.834 53.6757 110.37 53.2498L110.56 53.1698C113.858 52.436 117.27 52.3782 120.59 52.9998C120.756 53.0628 120.911 53.1504 121.05 53.2598Z" fill="black"/>
<path d="M117.68 35.09C117.693 35.1949 117.667 35.3009 117.605 35.387C117.544 35.473 117.452 35.5327 117.349 35.5542C117.245 35.5756 117.137 35.5573 117.047 35.5027C116.956 35.4482 116.889 35.3615 116.86 35.26C116.847 35.1551 116.873 35.0491 116.935 34.9631C116.996 34.877 117.088 34.8173 117.191 34.7959C117.295 34.7744 117.403 34.7928 117.493 34.8473C117.584 34.9018 117.651 34.9885 117.68 35.09Z" fill="black"/>
<path d="M122.76 34.0001C122.781 34.1086 122.76 34.2211 122.7 34.3142C122.641 34.4073 122.547 34.4739 122.44 34.5001C122.359 34.518 122.274 34.5114 122.197 34.4811C122.119 34.4509 122.053 34.3984 122.005 34.3302C121.958 34.2621 121.931 34.1813 121.93 34.0983C121.928 34.0152 121.951 33.9335 121.996 33.8635C122.041 33.7935 122.105 33.7384 122.181 33.7051C122.258 33.6718 122.342 33.6619 122.424 33.6765C122.505 33.6911 122.581 33.7297 122.641 33.7873C122.701 33.8449 122.742 33.9189 122.76 34.0001Z" fill="black"/>
<path d="M124.36 179.29C124.77 179.41 125.18 179.51 125.58 179.6C125.18 179.52 124.77 179.41 124.36 179.29Z" fill="black"/>
<path d="M91.83 167.77H68.68V167.78H91.83V167.77Z" fill="white"/>
<path d="M73.24 175.07C73.1838 175.034 73.1354 174.987 73.0977 174.933C73.0599 174.878 73.0335 174.816 73.02 174.75C72.9933 174.614 73.0214 174.472 73.0981 174.356C73.1748 174.24 73.294 174.159 73.43 174.13C73.4971 174.114 73.5667 174.112 73.6347 174.123C73.7027 174.135 73.7676 174.16 73.8256 174.198C73.8835 174.235 73.9333 174.284 73.9719 174.341C74.0105 174.398 74.037 174.463 74.05 174.53C74.074 174.633 74.0659 174.741 74.027 174.84C73.988 174.938 73.92 175.022 73.832 175.081C73.7439 175.139 73.6401 175.17 73.5343 175.168C73.4286 175.166 73.3259 175.132 73.24 175.07Z" fill="black"/>
<path d="M60.93 175.22C60.8714 175.262 60.8048 175.292 60.7343 175.307C60.6638 175.323 60.5909 175.323 60.52 175.31C60.3832 175.279 60.2639 175.195 60.1874 175.078C60.1109 174.96 60.0831 174.817 60.11 174.68C60.1412 174.543 60.2244 174.424 60.342 174.347C60.4595 174.271 60.6023 174.243 60.74 174.27C60.8084 174.284 60.8733 174.312 60.9309 174.351C60.9886 174.391 61.0379 174.441 61.076 174.5C61.1141 174.558 61.1403 174.624 61.153 174.692C61.1657 174.761 61.1647 174.831 61.15 174.9C61.1207 175.031 61.0419 175.146 60.93 175.22Z" fill="black"/>
<path d="M87.17 177.31C87.0983 177.234 87.0115 177.173 86.9151 177.132C86.8187 177.09 86.7149 177.07 86.61 177.07C86.4792 177.07 86.3507 177.104 86.2364 177.168C86.1221 177.231 86.026 177.323 85.9569 177.434C85.8879 177.545 85.8483 177.672 85.8418 177.802C85.8354 177.933 85.8623 178.063 85.92 178.18C85.98 178.313 86.0772 178.425 86.1997 178.503C86.3222 178.581 86.4647 178.622 86.61 178.62C86.7547 178.619 86.8963 178.577 87.0183 178.5C87.1403 178.422 87.238 178.311 87.3 178.18C87.3524 178.075 87.3797 177.958 87.38 177.84C87.3794 177.643 87.3044 177.454 87.17 177.31Z" fill="black"/>
<path d="M94.66 188.22V167.77H91.83H68.68H54.59V188.22H94.66Z" stroke="black" stroke-width="0.86" stroke-miterlimit="10" stroke-linecap="round"/>
<path d="M110.78 116.71C110.88 119.54 111.06 122.36 111.34 125.16C113.21 144.46 119.03 163.16 124.34 179.16V179.26" stroke="black" stroke-width="0.86" stroke-miterlimit="10" stroke-linecap="round"/>
<path d="M133.92 108.42C133.97 112.42 134.01 116.63 134.03 120.93C134.14 146.84 133.65 175.93 133.69 178.93V179.15" stroke="black" stroke-width="0.86" stroke-miterlimit="10"/>
<path d="M133.67 178.9L133.28 179.02L133.09 179.09L132.72 179.2L132.53 179.26L132.22 179.34H132.12C130.636 179.764 129.092 179.94 127.55 179.86H127.3L126.81 179.81H126.56C126.223 179.771 125.889 179.71 125.56 179.63C125.16 179.55 124.75 179.44 124.34 179.32H124.22" stroke="black" stroke-width="0.86" stroke-miterlimit="10"/>
<path d="M82.52 158.66H82.44" stroke="black" stroke-width="0.86" stroke-miterlimit="10"/>
<path d="M91.87 158.28H91.77L91.2 158.47L90.84 158.58L90.01 158.8H89.91H89.78L89.12 158.94L88.83 158.99H88.67H88.51L88.2 159.04L87.6 159.1H87.16H87C86.5203 159.126 86.0397 159.126 85.56 159.1L84.83 159.02H84.58H84.34L83.86 158.92L83.37 158.81L83.13 158.75L82.65 158.61H82.58" stroke="black" stroke-width="0.86" stroke-miterlimit="10"/>
<path d="M111.13 125.18C104.26 125.05 96.37 127.41 91.9 131.18C89.57 133.18 90.54 151.7 91.77 158.27C91.7653 158.36 91.7653 158.45 91.77 158.54" stroke="black" stroke-width="0.86" stroke-miterlimit="10" stroke-linecap="round"/>
<path d="M95.76 108.16H95.69C89.69 110.66 77.3 116.87 76.03 120.42C73.33 128.03 77.53 145.84 82.63 158.64C82.6473 158.699 82.6707 158.756 82.7 158.81" stroke="black" stroke-width="0.86" stroke-miterlimit="10"/>
<path d="M69.28 53.9399C69.578 53.8263 69.8603 53.6751 70.12 53.4899C72.61 51.6499 72.12 46.7699 70.73 45.3699C70.281 44.9467 69.7593 44.6079 69.19 44.3699C68.5103 44.0401 67.7433 43.935 67 44.0699C66.8739 44.1065 66.7579 44.1715 66.6608 44.2599C66.5638 44.3484 66.4882 44.4578 66.44 44.5799C66.4074 44.7972 66.4317 45.0192 66.5106 45.2243C66.5895 45.4294 66.7202 45.6105 66.89 45.7499C67.5807 46.4255 68.3574 47.0072 69.2 47.4799L69.45 47.6199" stroke="black" stroke-width="0.86" stroke-miterlimit="10"/>
<path d="M62.5 48.3603C61.73 47.1903 61.92 46.2903 62.56 45.7403C63.1645 45.3164 63.8905 45.1008 64.6284 45.126C65.3663 45.1513 66.0759 45.416 66.65 45.8803C67.11 46.2503 67.72 47.2203 66.3 47.6003" stroke="black" stroke-width="0.86" stroke-miterlimit="10"/>
<path d="M62.52 45.6902C61.35 43.5202 63.11 42.6102 64.91 42.9502C65.6582 43.0866 66.352 43.4335 66.91 43.9502" stroke="black" stroke-width="0.86" stroke-miterlimit="10"/>
<path d="M64.82 53.5899C64.3162 53.4321 63.8499 53.1733 63.4493 52.8295C63.0487 52.4857 62.7223 52.0639 62.49 51.5899C62.244 51.1098 62.1284 50.5736 62.1547 50.0348C62.181 49.4961 62.3484 48.9736 62.64 48.5199C62.7495 48.3531 62.8769 48.1989 63.02 48.0599C63.4304 47.6578 63.9595 47.3987 64.5287 47.3213C65.098 47.2438 65.6771 47.352 66.18 47.6299C66.3659 47.7332 66.5346 47.8647 66.68 48.0199C67.29 48.6799 66.78 49.8299 66.15 49.5199C65.7883 49.3627 65.3924 49.3007 65 49.3399C64.8636 49.3422 64.7331 49.3961 64.6347 49.4907C64.5364 49.5853 64.4776 49.7136 64.47 49.8499C64.47 49.9999 64.77 50.1699 64.87 50.2199" stroke="black" stroke-width="0.86" stroke-miterlimit="10"/>
<path d="M69.19 44.45V41.56C69.1913 41.3442 69.1498 41.1304 69.0679 40.9308C68.9859 40.7312 68.8652 40.5499 68.7126 40.3973C68.5601 40.2448 68.3787 40.124 68.1792 40.0421C67.9796 39.9601 67.7657 39.9186 67.55 39.92H66.6C66.172 39.9304 65.7651 40.1078 65.4661 40.4142C65.1672 40.7207 64.9999 41.1318 65 41.56V42.69" stroke="black" stroke-width="0.86" stroke-miterlimit="10"/>
<path d="M69.2 47.4502V57.4502C69.1952 57.8038 69.0755 58.1461 68.859 58.4257C68.6426 58.7053 68.3411 58.9069 68 59.0002C67.8568 59.0404 67.7087 59.0606 67.56 59.0602H66.62C66.1937 59.0551 65.7861 58.8841 65.4837 58.5836C65.1812 58.283 65.0078 57.8765 65 57.4502V49.2902" stroke="black" stroke-width="0.86" stroke-miterlimit="10"/>
<path d="M67.89 33.4902V33.7602L67.9 39.7302" stroke="black" stroke-width="0.86" stroke-miterlimit="10"/>
<path d="M66.27 39.7295V34.0195" stroke="black" stroke-width="0.86" stroke-miterlimit="10"/>
<path d="M56.66 22.9403V22.6403C56.66 22.5103 56.66 22.3903 56.66 22.2603C57.39 16.5203 62.27 12.4203 67.57 13.0903C72.87 13.7603 76.57 18.9603 75.84 24.6903C75.6157 26.8464 74.7245 28.8789 73.2905 30.5047C71.8566 32.1304 69.9513 33.2684 67.84 33.7603C66.8878 33.9442 65.9126 33.978 64.95 33.8603C62.6967 33.5044 60.636 32.3798 59.1176 30.6773C57.5992 28.9749 56.7168 26.7994 56.62 24.5203C56.62 24.4403 56.62 24.3603 56.62 24.2903" stroke="black" stroke-width="0.86" stroke-miterlimit="10"/>
<path d="M56.66 22.9403V22.6403C56.66 22.5103 56.66 22.3903 56.66 22.2603C57.39 16.5203 62.27 12.4203 67.57 13.0903C72.87 13.7603 76.57 18.9603 75.84 24.6903C75.6157 26.8464 74.7245 28.8789 73.2905 30.5047C71.8566 32.1304 69.9513 33.2684 67.84 33.7603C66.8878 33.9442 65.9126 33.978 64.95 33.8603C62.6967 33.5044 60.636 32.3798 59.1176 30.6773C57.5992 28.9749 56.7168 26.7994 56.62 24.5203C56.62 24.4403 56.62 24.3603 56.62 24.2903" stroke="black" stroke-width="0.86" stroke-miterlimit="10"/>
<path d="M54.51 24.7497C54.51 24.6597 54.51 24.5597 54.51 24.4697" stroke="black" stroke-width="0.86" stroke-miterlimit="10"/>
<path d="M54.51 24.7497C54.51 24.6597 54.51 24.5597 54.51 24.4697" stroke="black" stroke-width="0.86" stroke-miterlimit="10"/>
<path d="M77.07 16.0498C78.6084 18.7419 79.2033 21.8709 78.76 24.9398C78.5994 26.1379 78.2869 27.3107 77.83 28.4298" stroke="black" stroke-width="0.86" stroke-miterlimit="10" stroke-linecap="round"/>
<path d="M79.29 13.7803C81.4066 17.4801 82.2234 21.7821 81.61 26.0003C81.386 27.6411 80.956 29.2471 80.33 30.7803" stroke="black" stroke-width="0.86" stroke-miterlimit="10" stroke-linecap="round"/>
<path d="M81.84 11.7197C84.4649 16.3211 85.4818 21.6659 84.73 26.9097C84.4515 28.9519 83.9173 30.9509 83.14 32.8597" stroke="black" stroke-width="0.86" stroke-miterlimit="10" stroke-linecap="round"/>
<path d="M53.92 22.5301C53.9605 21.6767 54.0845 20.8294 54.29 20.0001C54.5618 18.8236 54.9854 17.6875 55.55 16.6201" stroke="black" stroke-width="0.86" stroke-miterlimit="10" stroke-linecap="round"/>
<path d="M55.11 29.0003C54.4953 27.596 54.1201 26.0986 54 24.5703" stroke="black" stroke-width="0.86" stroke-miterlimit="10" stroke-linecap="round"/>
<path d="M51 22.5696C51.0267 21.2641 51.2012 19.9658 51.52 18.6996C51.8987 17.0861 52.48 15.5271 53.25 14.0596" stroke="black" stroke-width="0.86" stroke-miterlimit="10" stroke-linecap="round"/>
<path d="M52.68 31.0603C51.7527 29.0119 51.2006 26.8137 51.05 24.5703" stroke="black" stroke-width="0.86" stroke-miterlimit="10" stroke-linecap="round"/>
<path d="M49.94 32.8604C47.7719 28.0264 47.2758 22.6078 48.53 17.4604C49.0083 15.4551 49.7338 13.5169 50.69 11.6904" stroke="black" stroke-width="0.86" stroke-miterlimit="10" stroke-linecap="round"/>
<path d="M57.93 22.6396H64.85C65.0818 22.6576 65.2971 22.7665 65.4489 22.9426C65.6006 23.1187 65.6765 23.3477 65.66 23.5796C65.6624 23.8214 65.5772 24.0559 65.42 24.2396C65.3513 24.3252 65.2646 24.3946 65.1661 24.443C65.0676 24.4913 64.9597 24.5175 64.85 24.5196H51.59C51.3582 24.5017 51.1429 24.3928 50.9911 24.2167C50.8394 24.0406 50.7635 23.8116 50.78 23.5796C50.7776 23.3379 50.8628 23.1034 51.02 22.9196C51.0887 22.8341 51.1754 22.7647 51.2739 22.7163C51.3724 22.668 51.4803 22.6418 51.59 22.6396H57.93Z" stroke="black" stroke-width="0.86" stroke-miterlimit="10"/>
<path d="M126.15 114.59C126.93 118.74 130.28 120.65 134.03 120.93C135.159 121.006 136.293 120.952 137.41 120.77" stroke="black" stroke-width="0.86" stroke-miterlimit="10" stroke-linecap="round"/>
<path d="M124.4 179.18H124.23H124.11H123.96L123.77 179.24C123.704 179.251 123.64 179.271 123.58 179.3H123.47L123.23 179.38L122.63 179.61L122.47 179.67L122.08 179.82C120.93 180.27 119.51 180.82 117.97 181.32L117.78 181.38L117.39 181.49L117.19 181.55L117 181.6L116.39 181.76L115.83 181.89L115 182.05H114.8L114.2 182.13C113.821 182.176 113.446 182.253 113.08 182.36L112.83 182.45L112.67 182.51L112.44 182.61L112.14 182.76C112.043 182.81 111.95 182.867 111.86 182.93L111.66 183.07L111.47 183.23C111.07 183.606 110.779 184.083 110.627 184.611C110.476 185.139 110.47 185.699 110.61 186.23H118.83L133.69 186.3" stroke="black" stroke-width="0.86" stroke-linecap="round" stroke-linejoin="round"/>
<path d="M133.68 186.41H133.69V188.31H110.54V186.41H118.81H133.68Z" stroke="black" stroke-width="0.86" stroke-linecap="round" stroke-linejoin="round"/>
<path d="M133.68 178.84V178.9V186.39" stroke="black" stroke-width="0.86" stroke-miterlimit="10"/>
<path d="M82.54 158.66H82.46H82.31H82.16L81.97 158.72L81.67 158.81L80.96 159.06L80.72 159.15L79.24 159.73L78.92 159.85L78.39 160.06L78.06 160.18C76.973 160.59 75.8647 160.94 74.74 161.23L74.39 161.32L73.57 161.5L73.23 161.56L72.91 161.61H72.55H72.35C70.25 161.85 68.27 163.02 68.75 165.69H76.98L91.84 165.76" stroke="black" stroke-width="0.86" stroke-linecap="round" stroke-linejoin="round"/>
<path d="M91.83 167.77V167.78H68.68V167.77V165.88H76.95H91.82H91.83V167.77Z" stroke="black" stroke-width="0.86" stroke-linecap="round" stroke-linejoin="round"/>
<path d="M91.82 158.68V165.88V166.29" stroke="black" stroke-width="0.86" stroke-miterlimit="10"/>
<path d="M115.05 23.8896C116.901 24.3073 118.59 25.2561 119.91 26.6196C121.707 28.2813 123.262 30.1865 124.53 32.2796C124.67 32.5196 124.79 32.7396 124.89 32.9396L124.98 33.1297C125.57 34.5597 125.34 36.8997 124.8 39.1297C124.68 39.6397 124.54 40.1297 124.39 40.6497C123.65 43.0897 122.65 45.1796 122.07 45.5696C121.415 45.9725 120.644 46.1449 119.88 46.0597C118.174 45.9036 116.596 45.0894 115.48 43.7896" stroke="black" stroke-width="0.86" stroke-miterlimit="10" stroke-linecap="round"/>
<path d="M110.47 53.0604C110.78 48.2704 110.98 44.3504 111.26 39.1904" stroke="black" stroke-width="0.86" stroke-miterlimit="10"/>
<path d="M119.85 46V46.16C120.23 48.43 120.2 51.23 121.02 53.31" stroke="black" stroke-width="0.86" stroke-miterlimit="10"/>
<path d="M112.36 28.3704C116.04 27.4504 119.36 26.8004 119.84 26.6904" stroke="black" stroke-width="0.86" stroke-miterlimit="10"/>
<path d="M109.65 31.8303C107.78 32.7403 102.65 34.9403 102.26 32.9103C102.02 31.5903 105.75 30.1803 109.84 29.0303" fill="#5FB2FF"/>
<path d="M109.65 31.8303C107.78 32.7403 102.65 34.9403 102.26 32.9103C102.02 31.5903 105.75 30.1803 109.84 29.0303" stroke="black" stroke-width="0.86" stroke-miterlimit="10"/>
<path d="M120.42 33.1401C121 32.6519 121.732 32.3798 122.49 32.3701" stroke="black" stroke-width="0.86" stroke-miterlimit="10" stroke-linecap="round"/>
<path d="M117.61 33.7895C117.187 33.7255 116.755 33.7618 116.348 33.8956C115.942 34.0293 115.572 34.2568 115.27 34.5595" stroke="black" stroke-width="0.86" stroke-miterlimit="10" stroke-linecap="round"/>
<path d="M120.33 33.25C120.11 34.57 121.09 36.37 121.54 37.6C121.84 38.43 122.38 40.06 120.81 39.82" stroke="black" stroke-width="0.86" stroke-miterlimit="10" stroke-linecap="round"/>
<path d="M116.7 42.0004C117.054 41.8263 117.452 41.7645 117.842 41.8235C118.231 41.8825 118.594 42.0594 118.88 42.3304" stroke="black" stroke-width="0.86" stroke-linecap="round" stroke-linejoin="round"/>
<path d="M109.64 33.42C109.154 33.6478 108.738 34.0018 108.436 34.445C108.133 34.8883 107.955 35.4045 107.92 35.94C107.888 36.7686 108.185 37.5763 108.748 38.1856C109.31 38.795 110.091 39.1562 110.92 39.19C111.033 39.2 111.147 39.2 111.26 39.19C112.048 39.3054 112.849 39.1031 113.488 38.6277C114.126 38.1523 114.55 37.4427 114.665 36.655C114.78 35.8673 114.578 35.066 114.103 34.4275C113.627 33.7889 112.918 33.3654 112.13 33.25H112.07" stroke="black" stroke-width="0.86" stroke-miterlimit="10"/>
<path d="M124.76 39.1804L125.1 39.1203C125.91 38.9562 126.623 38.4781 127.082 37.7905C127.541 37.1029 127.709 36.2616 127.55 35.4504C127.41 34.8491 127.091 34.3042 126.636 33.8868C126.181 33.4693 125.611 33.1987 125 33.1104" stroke="black" stroke-width="0.86" stroke-miterlimit="10"/>
<path d="M109.83 35.9996C109.734 35.1429 109.684 34.2817 109.68 33.4196C109.68 32.9096 109.68 32.3696 109.68 31.8396C109.68 30.9096 109.79 29.9596 109.91 29.0396C110.21 26.6496 110.8 24.4796 111.72 23.5796C112.027 23.287 112.39 23.0602 112.788 22.913C113.185 22.7659 113.608 22.7016 114.032 22.7241C114.455 22.7466 114.869 22.8554 115.249 23.0437C115.629 23.2321 115.966 23.4962 116.24 23.8196" stroke="black" stroke-width="0.86" stroke-linecap="round" stroke-linejoin="round"/>
<path d="M112.18 35.7895C112.18 34.8995 112.13 34.0595 112.13 33.2695C112.099 31.6398 112.172 30.0098 112.35 28.3895C112.7 25.6695 113.5 24.2095 115.05 23.8895C115.444 23.8285 115.846 23.8285 116.24 23.8895" stroke="black" stroke-width="0.86" stroke-linecap="round" stroke-linejoin="round"/>
<path d="M112.18 35.7696C112.127 35.4855 111.972 35.2308 111.742 35.0548C111.513 34.8787 111.227 34.7937 110.939 34.816C110.651 34.8384 110.381 34.9665 110.182 35.1758C109.983 35.3851 109.868 35.6607 109.86 35.9496C109.854 36.1032 109.879 36.2565 109.932 36.4007C109.985 36.545 110.066 36.6773 110.171 36.7901C110.275 36.9029 110.401 36.994 110.541 37.0583C110.68 37.1226 110.831 37.1587 110.985 37.1646C111.139 37.1705 111.292 37.1461 111.436 37.0927C111.58 37.0394 111.713 36.9582 111.825 36.8537C111.938 36.7492 112.029 36.6236 112.094 36.4839C112.158 36.3442 112.194 36.1932 112.2 36.0396C112.204 35.9491 112.197 35.8585 112.18 35.7696Z" stroke="black" stroke-width="0.86" stroke-miterlimit="10"/>
<path d="M95.66 108.21C95.79 101.94 97.18 80.8904 98.29 67.7104C92.5381 70.0049 86.6739 72.0074 80.72 73.7104C79.74 74.0004 73 66.8004 68 59.1104" stroke="black" stroke-width="0.86" stroke-linejoin="round"/>
<path d="M70.15 53.5298C72.48 56.2598 81 63.9998 82 63.6498C85 62.5198 91.17 59.0998 98 55.7698C100.11 54.7698 105.35 54.8698 109.31 54.9398C109.46 54.2721 109.834 53.6758 110.37 53.2498L110.56 53.1698C113.858 52.4361 117.27 52.3783 120.59 52.9998C120.753 53.0505 120.908 53.1246 121.05 53.2198C121.583 53.6347 122.011 54.1691 122.3 54.7798H129.06C129.925 54.7711 130.786 54.6501 131.62 54.4198L138.78 52.4198L140.89 51.8398" stroke="black" stroke-width="0.86" stroke-linecap="round" stroke-linejoin="round"/>
<path d="M95.73 108.17H133.92H134.28C134.23 107.29 133.76 67.9396 133.76 67.9396C133.76 67.9396 151.93 58.9396 152.14 54.2796C152.33 50.0396 131.26 38.8096 131.26 38.8096L131.2 38.8796L128.2 42.1696L128.13 42.2496L138.78 52.4096" stroke="black" stroke-width="0.86" stroke-linecap="round" stroke-linejoin="round"/>
<path d="M131.1 38.7295C130.714 38.49 130.347 38.2226 130 37.9295C129.9 36.8295 130.05 35.2195 129.62 34.6395C129.04 33.8495 127.99 32.3195 124.54 32.2695" stroke="black" stroke-width="0.86" stroke-linecap="round" stroke-linejoin="round"/>
<path d="M128 42.0005C127.815 41.7686 127.564 41.5979 127.28 41.5105C126.64 41.5105 125.2 41.4405 124.54 40.7305" stroke="black" stroke-width="0.86" stroke-linecap="round" stroke-linejoin="round"/>
<path d="M60.98 179.11C63.1284 179.11 64.87 177.368 64.87 175.22C64.87 173.072 63.1284 171.33 60.98 171.33C58.8316 171.33 57.09 173.072 57.09 175.22C57.09 177.368 58.8316 179.11 60.98 179.11Z" stroke="black" stroke-width="0.86" stroke-miterlimit="10" stroke-linecap="round"/>
<path d="M77 175.22C77.002 175.99 76.7755 176.743 76.3493 177.384C75.923 178.025 75.3162 178.525 74.6056 178.821C73.895 179.117 73.1125 179.195 72.3572 179.046C71.602 178.897 70.9079 178.528 70.3629 177.984C69.8179 177.44 69.4464 176.747 69.2955 175.992C69.1446 175.238 69.221 174.455 69.5152 173.744C69.8093 173.032 70.3079 172.424 70.9478 171.996C71.5877 171.568 72.3402 171.34 73.11 171.34C74.14 171.34 75.1279 171.748 75.8571 172.476C76.5863 173.203 76.9973 174.19 77 175.22Z" stroke="black" stroke-width="0.86" stroke-miterlimit="10" stroke-linecap="round"/>
<path d="M61 184.31C61.002 184.694 60.8896 185.071 60.6772 185.391C60.4648 185.712 60.1619 185.962 59.807 186.11C59.4521 186.258 59.0613 186.298 58.684 186.223C58.3067 186.149 57.9602 185.964 57.6882 185.692C57.4163 185.42 57.2314 185.073 57.1568 184.696C57.0823 184.319 57.1215 183.928 57.2696 183.573C57.4177 183.218 57.6679 182.915 57.9884 182.703C58.309 182.49 58.6855 182.378 59.07 182.38C59.5819 182.38 60.0728 182.583 60.4347 182.945C60.7967 183.307 61 183.798 61 184.31Z" stroke="black" stroke-width="0.86" stroke-miterlimit="10" stroke-linecap="round"/>
<path d="M66.69 184.31C66.692 184.694 66.5796 185.071 66.3672 185.391C66.1548 185.712 65.8519 185.962 65.497 186.11C65.1421 186.258 64.7512 186.298 64.374 186.223C63.9967 186.149 63.6502 185.964 63.3782 185.692C63.1063 185.42 62.9214 185.073 62.8468 184.696C62.7723 184.319 62.8115 183.928 62.9596 183.573C63.1077 183.218 63.3579 182.915 63.6784 182.703C63.999 182.49 64.3755 182.378 64.76 182.38C65.0135 182.38 65.2644 182.43 65.4986 182.527C65.7327 182.624 65.9455 182.766 66.1247 182.945C66.3039 183.124 66.4461 183.337 66.5431 183.571C66.6401 183.805 66.69 184.056 66.69 184.31Z" stroke="black" stroke-width="0.86" stroke-miterlimit="10" stroke-linecap="round"/>
<path d="M72.27 184.31C72.272 184.694 72.1599 185.07 71.9479 185.39C71.736 185.711 71.4337 185.961 71.0794 186.109C70.725 186.258 70.3347 186.298 69.9577 186.224C69.5807 186.15 69.2341 185.966 68.9618 185.695C68.6895 185.424 68.5037 185.079 68.428 184.702C68.3524 184.325 68.3902 183.935 68.5367 183.58C68.6833 183.225 68.9319 182.921 69.2512 182.708C69.5704 182.494 69.9459 182.38 70.33 182.38C70.8428 182.38 71.3347 182.583 71.6983 182.945C72.0618 183.306 72.2674 183.797 72.27 184.31Z" stroke="black" stroke-width="0.86" stroke-miterlimit="10" stroke-linecap="round"/>
<path d="M59.11 182.54V183.9" stroke="black" stroke-width="0.86" stroke-miterlimit="10" stroke-linecap="round"/>
<path d="M63.53 183.26L64.6 184.09" stroke="black" stroke-width="0.86" stroke-miterlimit="10" stroke-linecap="round"/>
<path d="M70.53 184.56L71.6 185.39" stroke="black" stroke-width="0.86" stroke-miterlimit="10" stroke-linecap="round"/>
<path d="M86.03 178H82.08H81.13V172.45H92.06V178H91.1H87.16" stroke="black" stroke-width="0.86" stroke-miterlimit="10"/>
<path d="M82.07 178C82.1757 176.879 82.6955 175.839 83.5277 175.081C84.36 174.324 85.4448 173.904 86.57 173.904C87.6952 173.904 88.78 174.324 89.6123 175.081C90.4445 175.839 90.9643 176.879 91.07 178" stroke="black" stroke-width="0.86" stroke-miterlimit="10"/>
<path d="M86.84 177.48L87.05 177.3L88.76 175.8" stroke="black" stroke-width="0.86" stroke-miterlimit="10" stroke-linecap="round"/>
<path d="M73.38 174.89L73.24 175.07L72.08 176.61" stroke="black" stroke-width="0.86" stroke-miterlimit="10" stroke-linecap="round"/>
<path d="M60.79 175.04L60.93 175.22L62.09 176.75" stroke="black" stroke-width="0.86" stroke-miterlimit="10" stroke-linecap="round"/>
<path d="M91.95 182.23H88.57V186.4H91.95V182.23Z" stroke="black" stroke-width="0.86" stroke-miterlimit="10"/>
<path d="M88.72 184.23H91.91" stroke="black" stroke-width="0.86" stroke-miterlimit="10"/>
<path d="M91.82 165.88H77H68.77C68.29 163.21 70.27 162.04 72.37 161.8H72.57H72.93L73.25 161.75L73.59 161.69L74.41 161.51L74.76 161.42C75.86 161.088 76.9415 160.698 78 160.25L78.33 160.13L78.86 159.92L79.18 159.8L80.66 159.22L80.9 159.13L81.61 158.88L81.91 158.79L82.1 158.73H82.25H82.4H82.47H82.54L83.02 158.87L83.26 158.93L83.75 159.04L84.23 159.14H84.47H84.72L85.45 159.22C85.9297 159.246 86.4103 159.246 86.89 159.22H87.05H87.49L88.09 159.16L88.4 159.11H88.56H88.72L89.01 159.06L89.67 158.92H89.8H89.9L90.73 158.7L91.09 158.59L91.66 158.4C91.6553 158.49 91.6553 158.58 91.66 158.67V165.97L91.82 165.88Z" fill="black"/>
<path d="M133.68 186.41H118.81H110.59C110.45 185.879 110.456 185.32 110.607 184.792C110.759 184.264 111.05 183.786 111.45 183.41L111.64 183.25L111.84 183.11C111.93 183.048 112.023 182.991 112.12 182.94L112.42 182.79L112.65 182.69L112.81 182.63L113.06 182.54C113.426 182.433 113.801 182.356 114.18 182.31L114.78 182.23H114.98L115.81 182.07L116.37 181.94L116.98 181.78L117.17 181.73L117.37 181.67L117.76 181.56L117.95 181.5C119.49 181.02 120.95 180.45 122.06 180L122.45 179.85L122.61 179.79L123.21 179.56L123.45 179.48H123.56C123.62 179.451 123.684 179.431 123.75 179.42L123.94 179.36H124.09H124.21H124.31V179.46C124.72 179.58 125.13 179.69 125.53 179.77C125.859 179.85 126.193 179.91 126.53 179.95H126.78L127.27 180H127.52C129.062 180.08 130.606 179.904 132.09 179.48H132.19L132.5 179.4L132.69 179.34L133.06 179.23L133.25 179.16L133.64 179.04V186.55L133.68 186.41Z" fill="black"/>
</svg>
