<svg width="200" height="200" viewBox="0 0 200 200" fill="none" xmlns="http://www.w3.org/2000/svg">
<rect x="82.9208" y="25.4209" width="3" height="1" transform="rotate(-15.5753 82.9208 25.4209)" fill="#5FB2FF"/>
<path d="M67.69 106.07C67.9 102.24 69.84 74.8404 70.1 69.1504L57.15 78.7904C57.15 78.7904 48.41 95.1504 48.15 95.1504C48.1137 95.1576 48.0763 95.1576 48.04 95.1504C47.31 95.0104 43.67 93.9604 42.92 93.7504H42.79L49.84 73.0004C53.53 66.4004 67.56 55.5004 71.08 53.6604C74.15 52.0604 79.62 52.2204 79.81 52.2304C80.13 51.4104 80.23 50.3704 81.03 49.8804H81.09C82.09 49.4204 87.97 48.8804 91.27 49.7704C91.4261 49.8141 91.5745 49.8815 91.71 49.9704C92.4737 50.5317 93.0182 51.3413 93.25 52.2604C93.25 52.2604 101.02 52.6204 103.8 54.3604C108.8 57.5204 119.33 77.0804 120.46 78.2004C123.09 80.8204 132.96 86.5104 136.75 88.5004C137.51 89.2404 137.2 92.8904 136.13 93.6204V93.6804C128.878 91.1729 121.777 88.2514 114.86 84.9304C113 83.7904 103 72.0904 103 72.0904C104.73 83.5604 107 100.17 107.12 105.99H106.12L68.29 106.06L67.69 106.07Z" fill="black"/>
<path d="M78 184.7V184.93L65.86 184.82L56 180.18L59.16 173.69L59.29 173.74L66.1 176.44L66.28 176.53C69.89 178.37 70.07 180.84 71.93 180.75C75.1 180.6 77.69 183 78 184.7Z" fill="black"/>
<path d="M117.06 183.05L115.06 175.74L115.16 175.98C115.16 175.98 122.79 174.09 122.82 173.86H123.07C124.41 173.61 130.5 174.73 134.85 174.09C136.95 173.78 139.17 174.4 139.4 177.09L117.06 183.2V183.05Z" fill="black"/>
<path d="M162.64 20.3096V186.64H147.94V20.3196L162.64 20.3096Z" fill="black"/>
<path d="M93.22 31.9999C93.2241 32.0551 93.2172 32.1106 93.1998 32.1631C93.1824 32.2156 93.1548 32.2642 93.1185 32.306C93.0823 32.3478 93.0382 32.382 92.9886 32.4068C92.9391 32.4315 92.8852 32.4461 92.83 32.4499C92.7186 32.4579 92.6086 32.4213 92.5242 32.3481C92.4398 32.275 92.388 32.1713 92.38 32.0599C92.3721 31.9485 92.4087 31.8385 92.4818 31.7542C92.555 31.6698 92.6586 31.6179 92.77 31.6099C92.8808 31.6043 92.9896 31.6417 93.0734 31.7144C93.1573 31.7871 93.2098 31.8894 93.22 31.9999Z" fill="black"/>
<path d="M87.71 32.1399C87.7155 32.1945 87.7099 32.2497 87.6937 32.3022C87.6774 32.3547 87.6508 32.4034 87.6153 32.4453C87.5799 32.4873 87.5363 32.5217 87.4873 32.5466C87.4383 32.5714 87.3848 32.5861 87.33 32.5899C87.2748 32.5939 87.2194 32.5871 87.1668 32.5697C87.1143 32.5523 87.0658 32.5246 87.0239 32.4884C86.9821 32.4522 86.9479 32.408 86.9232 32.3585C86.8985 32.309 86.8838 32.2551 86.88 32.1999C86.8759 32.1452 86.8829 32.0903 86.9004 32.0383C86.9179 31.9864 86.9457 31.9385 86.9821 31.8975C87.0184 31.8564 87.0626 31.8231 87.1121 31.7995C87.1616 31.7759 87.2152 31.7624 87.27 31.7599C87.3242 31.7544 87.3789 31.76 87.4308 31.7763C87.4827 31.7927 87.5307 31.8195 87.5719 31.8551C87.6131 31.8907 87.6465 31.9343 87.6703 31.9832C87.6941 32.0322 87.7076 32.0855 87.71 32.1399Z" fill="black"/>
<path d="M162.64 20.3096V186.64H147.94H85.33V140.64" stroke="black" stroke-width="0.86" stroke-linecap="round" stroke-linejoin="round"/>
<path d="M85.33 19.8296V19.7696V13.0596H162.64V20.3096L147.94 20.3196H147.89" stroke="black" stroke-width="0.86" stroke-linecap="round" stroke-linejoin="round"/>
<path d="M102.3 16.7499C102.3 17.0703 102.205 17.3835 102.027 17.6499C101.849 17.9163 101.596 18.124 101.3 18.2466C101.004 18.3692 100.678 18.4013 100.364 18.3388C100.05 18.2762 99.761 18.122 99.5345 17.8954C99.3079 17.6688 99.1536 17.3802 99.0911 17.0659C99.0286 16.7517 99.0607 16.426 99.1833 16.1299C99.3059 15.8339 99.5136 15.5809 99.78 15.4029C100.046 15.2249 100.36 15.1299 100.68 15.1299C101.109 15.1325 101.519 15.304 101.823 15.6073C102.126 15.9105 102.297 16.321 102.3 16.7499Z" stroke="black" stroke-width="0.86" stroke-linecap="round" stroke-linejoin="round"/>
<path d="M96.59 16.7502C96.5899 17.0718 96.4941 17.3862 96.3148 17.6532C96.1354 17.9202 95.8806 18.1278 95.5828 18.2495C95.2851 18.3712 94.9578 18.4015 94.6428 18.3365C94.3277 18.2715 94.0392 18.1142 93.8138 17.8846C93.5885 17.6551 93.4366 17.3636 93.3776 17.0474C93.3185 16.7312 93.3549 16.4046 93.4821 16.1091C93.6093 15.8137 93.8216 15.5628 94.092 15.3885C94.3623 15.2141 94.6784 15.1242 95 15.1302C95.4244 15.138 95.8288 15.3122 96.1262 15.6151C96.4235 15.9181 96.5901 16.3257 96.59 16.7502Z" stroke="black" stroke-width="0.86" stroke-linecap="round" stroke-linejoin="round"/>
<path d="M90.89 16.7499C90.89 17.0703 90.795 17.3835 90.617 17.6499C90.439 17.9163 90.186 18.124 89.8899 18.2466C89.5939 18.3692 89.2682 18.4013 88.9539 18.3388C88.6397 18.2762 88.351 18.122 88.1245 17.8954C87.8979 17.6688 87.7436 17.3802 87.6811 17.0659C87.6186 16.7517 87.6507 16.426 87.7733 16.1299C87.8959 15.8339 88.1036 15.5809 88.37 15.4029C88.6364 15.2249 88.9496 15.1299 89.27 15.1299C89.4827 15.1299 89.6934 15.1718 89.8899 15.2532C90.0865 15.3346 90.2651 15.4539 90.4155 15.6044C90.5659 15.7548 90.6853 15.9334 90.7667 16.1299C90.8481 16.3265 90.89 16.5371 90.89 16.7499Z" stroke="black" stroke-width="0.86" stroke-linecap="round" stroke-linejoin="round"/>
<path d="M139.57 177.195L117.156 183.222L117.652 185.066L140.066 179.039L139.57 177.195Z" stroke="black" stroke-width="0.86" stroke-linecap="round" stroke-linejoin="round"/>
<path d="M66.24 176.52C68.03 175.06 77.82 158.52 85.31 140.64C86.79 137.11 88.18 133.52 89.41 129.99C91.099 125.272 92.436 120.435 93.41 115.52" stroke="black" stroke-width="0.86" stroke-linecap="round" stroke-linejoin="round"/>
<path d="M68.24 106.12C68.04 109.96 67.65 114.41 67.15 119.12C64.65 142.7 59.28 173.61 59.28 173.61" stroke="black" stroke-width="0.86" stroke-linecap="round" stroke-linejoin="round"/>
<path d="M89.53 130C94.9 137.57 113.19 171.17 115.1 175.7L115.2 175.94C115.2 175.94 122.83 174.05 122.86 173.82C123.33 170.49 116.26 140.89 106.06 106.04" stroke="black" stroke-width="0.86" stroke-linecap="round" stroke-linejoin="round"/>
<path d="M73.75 113C73.06 116.68 70.36 118.6 67.15 119.19C65.5983 119.46 64.0117 119.46 62.46 119.19" stroke="black" stroke-width="0.86" stroke-linecap="round" stroke-linejoin="round"/>
<path d="M123.12 173.85C124.46 173.6 130.55 174.72 134.9 174.08C137 173.77 139.22 174.39 139.45 177.08L117.11 183.19" stroke="black" stroke-width="0.86" stroke-linecap="round" stroke-linejoin="round"/>
<path d="M115.09 175.74L117.06 183.05" stroke="black" stroke-width="0.86" stroke-linecap="round" stroke-linejoin="round"/>
<path d="M55.96 180.18L54.89 182.23L65.36 186.94L77.96 186.84V184.93H77.95L65.81 184.82L55.96 180.18Z" stroke="black" stroke-width="0.86" stroke-linecap="round" stroke-linejoin="round"/>
<path d="M78 184.7C77.74 182.98 75.15 180.6 71.94 180.75C70.08 180.84 69.94 178.37 66.29 176.53L66.11 176.44L59.3 173.74L59.17 173.69L56 180.18" stroke="black" stroke-width="0.86" stroke-linecap="round" stroke-linejoin="round"/>
<path d="M70.1 69.1504C69.84 74.8404 67.9 102.24 67.69 106.07H68.24L106.07 106H107.07C106.96 100.18 104.68 83.5704 102.95 72.1004C102.51 69.2004 102.11 66.6404 101.79 64.6504" stroke="black" stroke-width="0.86" stroke-linecap="round" stroke-linejoin="round"/>
<path d="M81.8 28.4203C81.92 27.5803 82.05 26.5803 82.24 25.5803C82.4627 23.9192 83.1064 22.3426 84.11 21.0003C84.4788 20.5729 84.9144 20.2082 85.4 19.9203C87.3 18.8303 89.26 19.7903 90.97 21.5603C91.5679 22.1833 92.1162 22.852 92.61 23.5603C94.1077 25.7013 95.2616 28.0631 96.03 30.5603C96.92 34.0303 92.03 41.8503 90.61 42.4103C90.4429 42.4799 90.2685 42.5303 90.09 42.5603C88.02 42.9403 85.39 41.1003 84.51 39.2803" stroke="black" stroke-width="0.86" stroke-linecap="round" stroke-linejoin="round"/>
<path d="M81.09 50.0701V49.8301C81.09 43.9801 80.77 38.6601 81.26 32.8301" stroke="black" stroke-width="0.86" stroke-linecap="round" stroke-linejoin="round"/>
<path d="M90 42.7695L90.06 42.9995C90.58 45.2095 90.72 47.9995 91.68 49.9195" stroke="black" stroke-width="0.84" stroke-linecap="round" stroke-linejoin="round"/>
<path d="M82.62 29.4703C82.3778 29.1012 82.0887 28.765 81.76 28.4703C79.41 26.4703 77.86 30.9303 78.83 32.2003C79.1346 32.5166 79.5254 32.7364 79.9539 32.8325C80.3823 32.9285 80.8296 32.8964 81.24 32.7403C81.4267 32.6847 81.6076 32.611 81.78 32.5203" stroke="black" stroke-width="0.86" stroke-linecap="round" stroke-linejoin="round"/>
<path d="M92.65 23.5496C93.08 23.5496 97.75 22.5496 99.38 21.1596C99.87 20.7396 100.09 20.2696 99.83 19.7796C99.2 18.5396 95.1 19.8496 91.02 21.5396C87.14 23.1496 83.26 25.0896 82.37 25.5396L82.22 25.6096" fill="#5FB2FF"/>
<path d="M92.65 23.5496C93.08 23.5496 97.75 22.5496 99.38 21.1596C99.87 20.7396 100.09 20.2696 99.83 19.7796C99.2 18.5396 95.1 19.8496 91.02 21.5396C87.14 23.1496 83.26 25.0896 82.37 25.5396L82.22 25.6096" stroke="black" stroke-width="0.86" stroke-linecap="round" stroke-linejoin="round"/>
<path d="M88.06 29.9002C87.6487 29.779 87.2148 29.7557 86.7928 29.8321C86.3709 29.9085 85.9727 30.0825 85.63 30.3402" stroke="black" stroke-width="0.86" stroke-linecap="round" stroke-linejoin="round"/>
<path d="M81.31 30.2803C80.8792 30.6642 80.3268 30.8838 79.75 30.9003" stroke="black" stroke-width="0.86" stroke-linecap="round" stroke-linejoin="round"/>
<path d="M93.51 30.0595C92.85 29.7495 91.34 29.8395 91.08 30.4895C90.65 31.5395 91.29 33.7295 91.56 34.9795C91.75 35.8395 92.05 37.4895 90.56 37.0495" stroke="black" stroke-width="0.86" stroke-linecap="round" stroke-linejoin="round"/>
<path d="M88.5 39.18C88.678 39.3725 88.8969 39.5228 89.1405 39.6199C89.3841 39.717 89.6463 39.7585 89.9079 39.7412C90.1696 39.724 90.4241 39.6485 90.6528 39.5202C90.8816 39.392 91.0788 39.2142 91.23 39" stroke="black" stroke-width="0.86" stroke-linecap="round" stroke-linejoin="round"/>
<path d="M79.81 52.2298C79.62 52.2298 74.15 52.0598 71.08 53.6598C67.56 55.4998 53.53 66.3998 49.84 72.9998L42.74 93.6798H42.87C43.62 93.8898 47.26 94.9398 47.99 95.0798C48.0263 95.0871 48.0637 95.0871 48.1 95.0798C48.41 95.0798 57.1 78.7198 57.1 78.7198L70.03 69.0498L73.67 66.3298" stroke="black" stroke-width="0.86" stroke-linecap="round" stroke-linejoin="round"/>
<path d="M46.51 99.5098C46.3551 100.499 46.0375 101.455 45.57 102.34C44.12 105.08 41.57 106.22 40.64 104.54" stroke="black" stroke-width="0.86" stroke-linecap="round" stroke-linejoin="round"/>
<path d="M44.62 99.46C44.4295 100.529 43.991 101.538 43.3397 102.406C42.6884 103.274 41.8425 103.978 40.87 104.46L40.64 104.57C40.11 104.81 39.17 105.14 38.83 104.44C38.7331 104.203 38.7179 103.941 38.7867 103.695C38.8555 103.448 39.0045 103.232 39.21 103.08H39.28" stroke="black" stroke-width="0.86" stroke-linecap="round" stroke-linejoin="round"/>
<path d="M42.58 98.9302C42.34 100.26 40.49 102.31 39.2 103.05C38.9566 103.206 38.6782 103.299 38.39 103.32C37.03 103.32 37.1 101.91 38.13 101.21C41.65 98.8102 40.82 94.7102 42.87 93.7402" stroke="black" stroke-width="0.86" stroke-linecap="round" stroke-linejoin="round"/>
<path d="M45.61 102.36C45.7917 102.476 45.9978 102.548 46.2121 102.57C46.4264 102.593 46.6429 102.565 46.8446 102.489C47.0463 102.414 47.2277 102.292 47.3744 102.135C47.5211 101.977 47.6292 101.787 47.69 101.58C48.0574 100.697 48.2705 99.7563 48.32 98.8005C48.462 97.6012 48.353 96.3854 48 95.2305" stroke="black" stroke-width="0.86" stroke-linecap="round" stroke-linejoin="round"/>
<path d="M146.11 93.5701C146.263 94.1232 146.224 94.7119 146 95.2401C145.753 95.8269 145.302 96.3044 144.73 96.5839C144.158 96.8634 143.505 96.926 142.89 96.7601L142.57 96.6501C142.158 96.4791 141.797 96.2057 141.52 95.8559C141.243 95.506 141.06 95.0913 140.989 94.651C140.917 94.2108 140.959 93.7595 141.11 93.34C141.262 92.9204 141.518 92.5466 141.855 92.2538C142.191 91.961 142.597 91.7589 143.033 91.6668C143.47 91.5747 143.923 91.5956 144.349 91.7274C144.775 91.8592 145.16 92.0977 145.469 92.4201C145.777 92.7426 145.998 93.1384 146.11 93.5701Z" stroke="black" stroke-width="0.86" stroke-linecap="round" stroke-linejoin="round"/>
<path d="M146.33 93.5005C147.09 92.5005 146.59 91.3805 145.65 90.6605C145.444 90.4972 145.219 90.3595 144.98 90.2505C144.134 89.8088 143.149 89.7142 142.234 89.9868C141.319 90.2594 140.547 90.8777 140.08 91.7105" stroke="black" stroke-width="0.86" stroke-linecap="round" stroke-linejoin="round"/>
<path d="M145.87 90.6102C146.14 89.1602 144.49 88.6102 143.87 88.4802C143.762 88.4505 143.652 88.4305 143.54 88.4202C141.85 88.1402 140.34 88.4202 139.37 90.1602" stroke="black" stroke-width="0.86" stroke-linecap="round" stroke-linejoin="round"/>
<path d="M79.81 52.2099C80.13 51.3899 80.23 50.3499 81.03 49.8599H81.09C82.09 49.3999 87.97 48.8599 91.27 49.7499C91.4261 49.7936 91.5745 49.861 91.71 49.9499C92.4737 50.5111 93.0182 51.3208 93.25 52.2399C93.25 52.2399 101.02 52.5999 103.8 54.3399C108.8 57.4999 119.33 77.0599 120.46 78.1799C123.09 80.7999 132.96 86.4899 136.75 88.4799C137.216 88.7676 137.712 89.0024 138.23 89.1799C138.89 87.6699 142.23 86.1199 143.59 88.2399" stroke="black" stroke-width="0.86" stroke-linecap="round" stroke-linejoin="round"/>
<path d="M103 72.0898C103 72.0898 113 83.7898 114.87 84.8998C121.787 88.2209 128.888 91.1424 136.14 93.6498C136.89 93.8898 137.6 94.0998 138.24 94.2698C138.37 94.3021 138.491 94.3639 138.594 94.4507C138.696 94.5374 138.777 94.6467 138.83 94.7698C139.24 95.7698 140.51 97.9898 142.92 96.7698" stroke="black" stroke-width="0.86" stroke-linecap="round" stroke-linejoin="round"/>
<path d="M99.42 21.2095L147.94 15.7695V20.3195V186.64V186.65" stroke="black" stroke-width="0.86" stroke-linecap="round" stroke-linejoin="round"/>
<path d="M136.11 93.5897C137.18 92.8597 137.49 89.2097 136.73 88.4697" stroke="black" stroke-width="0.86" stroke-linecap="round" stroke-linejoin="round"/>
<path d="M82.087 26.3961L92.913 23.6039" stroke="black"/>
</svg>
