<svg xmlns="http://www.w3.org/2000/svg" xmlns:xlink="http://www.w3.org/1999/xlink" width="500" zoomAndPan="magnify" viewBox="0 0 375 374.999991" height="500" preserveAspectRatio="xMidYMid meet" version="1.0"><defs><g/><clipPath id="b5e11816cf"><path d="M 10.714844 10.179688 L 365 10.179688 L 365 363.75 L 10.714844 363.75 Z M 10.714844 10.179688 " clip-rule="nonzero"/></clipPath><clipPath id="de600db03f"><path d="M 27.964844 10.179688 L 347.570312 10.179688 C 352.144531 10.179688 356.535156 11.996094 359.769531 15.230469 C 363.003906 18.464844 364.820312 22.855469 364.820312 27.429688 L 364.820312 346.5 C 364.820312 351.074219 363.003906 355.460938 359.769531 358.699219 C 356.535156 361.933594 352.144531 363.75 347.570312 363.75 L 27.964844 363.75 C 23.390625 363.75 19 361.933594 15.765625 358.699219 C 12.53125 355.460938 10.714844 351.074219 10.714844 346.5 L 10.714844 27.429688 C 10.714844 22.855469 12.53125 18.464844 15.765625 15.230469 C 19 11.996094 23.390625 10.179688 27.964844 10.179688 Z M 27.964844 10.179688 " clip-rule="nonzero"/></clipPath><clipPath id="6810ce4b64"><path d="M 9.375 9.375 L 365.625 9.375 L 365.625 365.625 L 9.375 365.625 Z M 9.375 9.375 " clip-rule="nonzero"/></clipPath><clipPath id="21fafff935"><path d="M 7.097656 6.5625 L 367.847656 6.5625 L 367.847656 367.3125 L 7.097656 367.3125 Z M 7.097656 6.5625 " clip-rule="nonzero"/></clipPath></defs><g clip-path="url(#b5e11816cf)"><g clip-path="url(#de600db03f)"><path fill="#ffffff" d="M 10.714844 10.179688 L 364.285156 10.179688 L 364.285156 363.75 L 10.714844 363.75 Z M 10.714844 10.179688 " fill-opacity="1" fill-rule="nonzero"/></g></g><path fill="#000000" d="M 324.277344 0 L 50.722656 0 C 22.933594 0 0 22.933594 0 50.722656 L 0 324.277344 C 0 352.066406 22.933594 375 50.722656 375 L 324.277344 375 C 352.066406 375 375 352.066406 375 324.277344 L 375 50.722656 C 375 22.933594 352.066406 0 324.277344 0 Z M 363.792969 54.53125 L 363.792969 324.277344 C 363.792969 345.867188 345.867188 363.792969 324.277344 363.792969 L 50.722656 363.792969 C 29.132812 363.792969 11.207031 345.867188 11.207031 324.277344 L 11.207031 50.722656 C 11.207031 29.132812 29.132812 11.207031 50.722656 11.207031 L 324.277344 11.207031 C 345.867188 11.207031 363.792969 29.132812 363.792969 50.722656 Z M 363.792969 54.53125 " fill-opacity="1" fill-rule="nonzero"/><g fill="#000000" fill-opacity="1"><g transform="translate(66.84558, 385.27236)"><g><path d="M 129.5 3.5 C 117.832031 3.5 109.082031 0.757812 103.25 -4.71875 C 97.414062 -10.207031 94.5 -17.382812 94.5 -26.25 L 94.5 -87.15625 L 14.34375 -191.796875 C 7.113281 -200.429688 3.5 -208.597656 3.5 -216.296875 C 3.5 -226.328125 6.472656 -234.203125 12.421875 -239.921875 C 18.367188 -245.640625 27.0625 -248.5 38.5 -248.5 C 48.53125 -248.5 56.988281 -246.457031 63.875 -242.375 C 70.757812 -238.289062 76.535156 -232.515625 81.203125 -225.046875 L 159.25 -96.59375 C 159.71875 -95.664062 160.414062 -95.203125 161.34375 -95.203125 C 162.28125 -95.203125 163.097656 -95.550781 163.796875 -96.25 L 165.90625 -98.703125 C 174.300781 -109.898438 180.015625 -120.109375 183.046875 -129.328125 C 186.078125 -138.546875 187.59375 -147.003906 187.59375 -154.703125 C 187.59375 -162.867188 186.539062 -170.390625 184.4375 -177.265625 C 182.34375 -184.148438 180.242188 -190.6875 178.140625 -196.875 C 176.046875 -203.0625 175 -209.070312 175 -214.90625 C 175 -224 178.03125 -231.867188 184.09375 -238.515625 C 190.164062 -245.171875 199.734375 -248.5 212.796875 -248.5 C 225.867188 -248.5 236.132812 -245.695312 243.59375 -240.09375 C 251.0625 -234.5 254.796875 -227.269531 254.796875 -218.40625 C 254.796875 -213.5 253.863281 -208.710938 252 -204.046875 C 250.132812 -199.378906 246.519531 -193.664062 241.15625 -186.90625 L 164.5 -87.15625 L 164.5 -26.25 C 164.5 -17.382812 161.640625 -10.207031 155.921875 -4.71875 C 150.203125 0.757812 141.394531 3.5 129.5 3.5 Z M 129.5 3.5 "/></g></g></g><g clip-path="url(#6810ce4b64)"><path fill="#000000" d="M 317.4375 9.375 L 57.5625 9.375 C 31.160156 9.375 9.375 31.160156 9.375 57.5625 L 9.375 317.4375 C 9.375 343.839844 31.160156 365.625 57.5625 365.625 L 317.4375 365.625 C 343.839844 365.625 365.625 343.839844 365.625 317.4375 L 365.625 57.5625 C 365.625 31.160156 343.839844 9.375 317.4375 9.375 Z M 354.980469 61.179688 L 354.980469 317.4375 C 354.980469 337.949219 337.949219 354.980469 317.4375 354.980469 L 57.5625 354.980469 C 37.050781 354.980469 20.019531 337.949219 20.019531 317.4375 L 20.019531 57.5625 C 20.019531 37.050781 37.050781 20.019531 57.5625 20.019531 L 317.4375 20.019531 C 337.949219 20.019531 354.980469 37.050781 354.980469 57.5625 Z M 354.980469 61.179688 " fill-opacity="1" fill-rule="nonzero"/></g><g clip-path="url(#21fafff935)"><path fill="#000000" d="M 319.09375 6.5625 L 55.898438 6.5625 C 29.164062 6.5625 7.097656 28.628906 7.097656 55.363281 L 7.097656 318.558594 C 7.097656 345.292969 29.164062 367.359375 55.898438 367.359375 L 319.09375 367.359375 C 345.832031 367.359375 367.894531 345.292969 367.894531 318.558594 L 367.894531 55.363281 C 367.894531 28.628906 345.832031 6.5625 319.09375 6.5625 Z M 357.113281 59.027344 L 357.113281 318.558594 C 357.113281 339.328125 339.863281 356.578125 319.09375 356.578125 L 55.898438 356.578125 C 35.128906 356.578125 17.878906 339.328125 17.878906 318.558594 L 17.878906 55.363281 C 17.878906 34.59375 35.128906 17.34375 55.898438 17.34375 L 319.09375 17.34375 C 339.863281 17.34375 357.113281 34.59375 357.113281 55.363281 Z M 357.113281 59.027344 " fill-opacity="1" fill-rule="nonzero"/></g></svg>