<svg width="124" height="124" viewBox="0 0 124 124" fill="none" xmlns="http://www.w3.org/2000/svg">
<g clip-path="url(#clip0_241_588)">
<path d="M86.6605 0.0620544C86.397 -0.232446 76.9032 0.178305 68.6417 9.14505C60.3802 18.1041 61.6512 28.3806 61.8372 28.6441C62.0232 28.9076 73.6172 29.3183 81.0185 18.8946C88.4197 8.4708 86.924 0.364304 86.6605 0.0620544ZM112.344 90.9928C111.972 90.2488 94.3252 81.4293 95.9682 64.4723C97.6112 47.5153 108.949 42.8576 109.128 42.3538C109.306 41.8501 104.501 36.2313 99.4092 33.3871C95.67 31.3837 91.5328 30.2349 87.296 30.0236C86.459 30.0003 83.5527 29.2873 77.5775 30.9226C73.6405 31.9998 64.7667 35.4873 62.3255 35.6268C59.8765 35.7663 52.5915 31.5813 44.7562 30.4731C39.742 29.5043 34.4255 31.4883 30.6202 33.0151C26.8227 34.5341 19.5997 38.8586 14.5467 50.3518C9.49372 61.8373 12.1365 80.0343 14.0275 85.6918C15.9185 91.3493 18.8712 100.603 23.8932 107.361C28.3572 114.987 34.2782 120.28 36.7505 122.078C39.2227 123.876 46.1977 125.07 51.0337 122.597C54.9242 120.21 61.9457 118.839 64.7202 118.939C67.487 119.04 72.943 120.133 78.5307 123.117C82.956 124.643 87.141 124.008 91.3337 122.303C95.5265 120.59 101.595 114.096 108.678 100.928C111.365 94.8058 112.587 91.494 112.344 90.9928Z" fill="black"/>
<path d="M86.6605 0.0620544C86.397 -0.232446 76.9032 0.178305 68.6417 9.14505C60.3802 18.1041 61.6512 28.3806 61.8372 28.6441C62.0232 28.9076 73.6172 29.3183 81.0185 18.8946C88.4197 8.4708 86.924 0.364304 86.6605 0.0620544ZM112.344 90.9928C111.972 90.2488 94.3252 81.4293 95.9682 64.4723C97.6112 47.5153 108.949 42.8576 109.128 42.3538C109.306 41.8501 104.501 36.2313 99.4092 33.3871C95.67 31.3837 91.5328 30.2349 87.296 30.0236C86.459 30.0003 83.5527 29.2873 77.5775 30.9226C73.6405 31.9998 64.7667 35.4873 62.3255 35.6268C59.8765 35.7663 52.5915 31.5813 44.7562 30.4731C39.742 29.5043 34.4255 31.4883 30.6202 33.0151C26.8227 34.5341 19.5997 38.8586 14.5467 50.3518C9.49372 61.8373 12.1365 80.0343 14.0275 85.6918C15.9185 91.3493 18.8712 100.603 23.8932 107.361C28.3572 114.987 34.2782 120.28 36.7505 122.078C39.2227 123.876 46.1977 125.07 51.0337 122.597C54.9242 120.21 61.9457 118.839 64.7202 118.939C67.487 119.04 72.943 120.133 78.5307 123.117C82.956 124.643 87.141 124.008 91.3337 122.303C95.5265 120.59 101.595 114.096 108.678 100.928C111.365 94.8058 112.587 91.494 112.344 90.9928Z" fill="black"/>
</g>
<defs>
<clipPath id="clip0_241_588">
<rect width="124" height="124" fill="white"/>
</clipPath>
</defs>
</svg>
