<svg width="200" height="200" viewBox="0 0 200 200" fill="none" xmlns="http://www.w3.org/2000/svg">
<rect x="102.83" y="46.5693" width="4.78713" height="3.55767" transform="rotate(-14.6316 102.83 46.5693)" fill="#956556"/>
<path d="M173.88 71.4995C172.38 68.4195 162.77 54.8095 160.66 53.0795C159.744 52.4115 158.733 51.8856 157.66 51.5195L157.58 51.7395C156.023 59.2922 157.488 67.1541 161.66 73.6395C163.16 76.1395 164.58 77.8695 165.14 78.7095C165.84 79.8895 164.43 81.5295 162.22 83.1695C158.603 85.7263 154.635 87.7471 150.44 89.1695V89.0895C150.66 88.6295 149.29 87.3195 147.67 87.2195H147.4V88.3695C146.84 89.9795 143.95 89.6995 142.69 89.4895C142.26 89.4095 140.23 88.5795 140.23 87.9595V87.8595C140.078 87.8444 139.925 87.8605 139.779 87.9069C139.634 87.9532 139.499 88.0288 139.384 88.129C139.269 88.2292 139.175 88.3519 139.109 88.4896C139.043 88.6273 139.006 88.777 139 88.9295C139.052 89.2653 139.183 89.5841 139.381 89.8603C139.579 90.1365 139.839 90.3623 140.14 90.5195C140.007 90.4903 139.869 90.4905 139.735 90.52C139.602 90.5495 139.477 90.6077 139.368 90.6905C139.26 90.7733 139.171 90.8787 139.107 90.9994C139.044 91.1201 139.007 91.2532 139 91.3895C139.064 91.693 139.197 91.9774 139.39 92.2204C139.583 92.4633 139.829 92.6582 140.11 92.7895C139.987 92.7514 139.857 92.7417 139.73 92.7612C139.602 92.7808 139.481 92.8289 139.375 92.9021C139.269 92.9753 139.181 93.0716 139.118 93.1838C139.055 93.2959 139.018 93.421 139.01 93.5495C139.01 93.9095 139.46 94.3295 140.24 94.6895C142.521 95.5309 144.994 95.7044 147.37 95.1895C148.621 95.0878 149.855 94.8428 151.05 94.4595L151.3 94.0895C155.2 94.168 159.072 93.4182 162.66 91.8895C169.54 89.1595 175.88 84.2095 176.23 78.8195C176.35 76.1095 175.06 73.9995 173.88 71.4995Z" fill="#956556"/>
<path d="M144.1 144.43C146.1 153.24 148.67 161.73 151.23 169.68H151.31H163C163.06 162.55 163.11 153.68 163.14 144.39H144.14L144.1 144.43Z" fill="black"/>
<path d="M151.37 183.21C145.04 183.99 140.8 180.82 139.83 184.69L139.98 185.61H162.84C162.84 185.61 162.84 183.78 162.89 180.61H162.63C158.61 180.35 155 182.76 151.37 183.21Z" fill="black"/>
<path d="M143.49 61.5397C144.96 61.9797 150.19 52.2297 150.82 49.6397C150.82 43.8097 149.94 38.6997 149.45 32.8597V32.7697C149.858 32.9276 150.303 32.9615 150.73 32.8672C151.157 32.7729 151.547 32.5546 151.85 32.2397C152.85 30.9697 151.26 26.4997 148.93 28.5197H148.88C148.88 28.1597 148.82 28.0297 148.76 27.6397V27.4397H148.67C148.67 27.4397 144.76 26.9697 141.95 26.9697C139.32 26.9697 135.39 27.4397 135.39 27.4397C135.284 27.4501 135.176 27.4501 135.07 27.4397V27.5297C134.851 28.5856 134.744 29.6615 134.75 30.7397C134.75 34.3197 138.75 41.9997 140.16 42.5597C140.333 42.6307 140.515 42.6811 140.7 42.7097C140.31 45.3401 139.608 47.9149 138.61 50.3797C138.76 51.9997 141.74 60.9997 143.49 61.5397Z" fill="#956556"/>
<path d="M142 23.12C143.77 23.12 146.59 23.36 147.94 23.48V23.42C147.675 22.5585 147.229 21.7638 146.63 21.09C143.19 17.24 139.02 19.04 136.63 23.32V23.44C138.11 23.31 140.53 23.12 142 23.12Z" fill="black"/>
<path d="M140.35 77.6499C140.337 77.7232 140.34 77.7984 140.359 77.8704C140.378 77.9423 140.413 78.0092 140.46 78.0664C140.508 78.1236 140.567 78.1696 140.635 78.2013C140.702 78.233 140.776 78.2496 140.85 78.2499H146.64C146.714 78.2496 146.788 78.233 146.855 78.2013C146.923 78.1696 146.982 78.1236 147.03 78.0664C147.077 78.0092 147.112 77.9423 147.131 77.8704C147.15 77.7984 147.153 77.7232 147.14 77.6499C146.996 76.8542 146.577 76.1343 145.957 75.6159C145.336 75.0975 144.554 74.8135 143.745 74.8135C142.936 74.8135 142.154 75.0975 141.533 75.6159C140.913 76.1343 140.494 76.8542 140.35 77.6499Z" fill="black"/>
<path d="M132.41 51.14C131.769 51.3114 131.151 51.5599 130.57 51.88C127.24 53.78 116.77 62.66 116.77 62.66C113.667 58.3908 110.988 53.8292 108.77 49.04L108.51 49.16L103.83 49.82C104.28 51.35 104.83 53.28 105.52 55.4C108.09 63.6 111.93 74.4 114.24 74.26C118.44 73.93 128.24 68.42 128.59 68.26C128.685 68.2078 128.775 68.1476 128.86 68.08C129.92 67.3 133.57 63.68 132.68 51.39L132.41 51.14Z" fill="white"/>
<path d="M119.89 160.69C116.05 160.43 112.57 162.84 109.11 163.29C103 164.07 99 160.9 98 164.77V165.16L120 165.06C120 165.06 119.93 163.36 119.84 160.69H119.89Z" fill="black"/>
<path d="M105.06 117.7C103.21 122.88 106.92 138.62 109.48 148.2H119.63C119.55 139.7 119.72 130.77 120.73 128.78C120.01 128.27 113.14 123.43 105.17 117.42C105.13 117.51 105.09 117.61 105.06 117.7Z" fill="#956556"/>
<path d="M102.788 46.9967L107.298 46.5058C108.083 42.829 108.396 35.0159 107.239 33.9714C106.837 33.5849 106.259 33.4805 106.102 34.1281C105.935 33.4387 105.671 33 105.239 33C104.582 33 104.259 33.3969 104.18 34.1699C104.14 34.0517 104.075 33.945 103.99 33.858C103.905 33.771 103.802 33.7062 103.69 33.6685C102.533 33.4074 102.837 36.0187 102.847 36.6559C102.847 38.5151 102.994 40.0715 102.847 42.1501C102.847 41.7845 102.758 41.4189 102.709 41.1056C102.663 40.6195 102.548 40.1439 102.366 39.6954C102.229 39.403 101.895 39.006 101.513 39.2045C100.925 39.5074 100.993 40.4162 101.013 40.9175C101.032 42.3903 101.631 47.1429 102.788 46.9967Z" fill="#956556"/>
<path d="M97.19 46.2103C94.36 45.2103 92.88 45.7803 92.6 45.9103C92.17 46.9903 91.7 48.0803 91.19 49.1603C88.9593 53.9016 86.2804 58.4188 83.19 62.6503C83.19 62.6503 73.56 55.4903 70.19 53.6503C67.19 52.0203 62.29 52.2203 62.29 52.2203C62.2263 51.7588 62.0497 51.3203 61.7758 50.9435C61.5019 50.5667 61.1392 50.2633 60.72 50.0603L60.5 50.0003C57.156 49.3533 53.7148 49.401 50.39 50.1403L50.25 50.2103C49.6073 50.7187 49.1647 51.4376 49 52.2403C49 52.2403 40.82 53.4503 38.43 55.4203C36.31 57.1603 27.66 68.4203 26.17 71.5003C24.99 73.9503 23.7 76.1103 23.87 78.8503C24.23 84.3403 30.75 89.3503 37.74 92.0503V92.1603C37.48 97.8403 37.12 102.16 36.92 105.94H38L75.36 105.88H76.17C76.05 99.7303 73.31 80.0803 71.51 68.2403C71.82 68.3903 81.66 73.9003 85.86 74.2403C87.98 74.4003 91.42 65.2403 93.98 57.3103C95.88 51.4103 97.29 46.2503 97.29 46.2503H97.21L97.19 46.2103ZM64.11 77.2103H59.49L58.87 81.4603H59.06C59.1655 81.4738 59.2672 81.5082 59.3592 81.5614C59.4513 81.6147 59.5317 81.6857 59.596 81.7705C59.6602 81.8552 59.7069 81.9519 59.7334 82.0549C59.7598 82.1579 59.7655 82.2651 59.75 82.3703L59.55 86.0303L59.46 87.6103C59.6096 87.6008 59.7595 87.6215 59.9009 87.671C60.0423 87.7206 60.1724 87.798 60.2833 87.8987C60.3943 87.9994 60.4839 88.1213 60.5469 88.2573C60.6099 88.3933 60.6449 88.5405 60.65 88.6903C60.5955 89.0253 60.4642 89.3431 60.2665 89.619C60.0687 89.8948 59.8098 90.1212 59.51 90.2803C59.6422 90.2606 59.7771 90.2677 59.9066 90.301C60.036 90.3344 60.1575 90.3933 60.2638 90.4745C60.3701 90.5556 60.459 90.6572 60.5254 90.7733C60.5917 90.8893 60.6341 91.0175 60.65 91.1503C60.5915 91.4558 60.46 91.7427 60.2668 91.9865C60.0735 92.2302 59.8242 92.4237 59.54 92.5503C59.6638 92.5099 59.7953 92.4989 59.9241 92.518C60.0529 92.5372 60.1755 92.586 60.2822 92.6607C60.3889 92.7354 60.4767 92.8339 60.5388 92.9483C60.6009 93.0628 60.6356 93.1901 60.64 93.3203C60.64 93.7903 59.96 94.4003 58.74 94.8203L59.02 94.9303L58.9 97.1603C58.9061 97.3548 58.8383 97.5444 58.7103 97.6909C58.5823 97.8375 58.4036 97.9302 58.21 97.9503H53.4C53.2064 97.9302 53.0277 97.8375 52.8997 97.6909C52.7717 97.5444 52.7039 97.3548 52.71 97.1603L52.6 95.1603V95.0503C51.4335 94.8155 50.2892 94.481 49.18 94.0503H48.89C49.89 93.3303 49.58 88.9003 49.58 88.9003C49.47 88.4103 50.65 87.1703 52.04 87.0703H52.13L52.07 85.8303L52 84.2303C51.5111 84.2002 51.0413 84.0299 50.6466 83.7399C50.2519 83.4498 49.9491 83.0522 49.7744 82.5946C49.5997 82.1371 49.5605 81.6389 49.6614 81.1596C49.7624 80.6803 49.9992 80.2402 50.3436 79.892C50.6881 79.5437 51.1255 79.302 51.6036 79.1958C52.0818 79.0896 52.5804 79.1233 53.0399 79.2929C53.4994 79.4626 53.9003 79.7609 54.1947 80.1524C54.4891 80.5438 54.6645 81.0118 54.7 81.5003H57.49L58.32 75.9203H64.21L64.11 77.2103Z" fill="black"/>
<path d="M85.43 179.29C81.08 178.78 75.5 176.12 74.15 176.02H73.86C73.23 176.19 65.97 176.02 65.97 176.02C65.97 176.02 65.97 175.87 65.97 175.77V183.49L89.06 183.39C89.51 180.7 87.53 179.53 85.43 179.29Z" fill="black"/>
<path d="M41.57 179.09C39.72 179.18 39.57 176.72 35.93 174.88L35.76 174.79L29 172.1H28.88L25.72 178.57L35.54 183.2L47.65 183.31V183C47.35 181.32 44.77 178.94 41.57 179.09Z" fill="black"/>
<path d="M109.15 185.71C115.07 185.71 119.87 181.099 119.87 175.41C119.87 169.722 115.07 165.11 109.15 165.11C103.23 165.11 98.43 169.722 98.43 175.41C98.43 181.099 103.23 185.71 109.15 185.71Z" stroke="black" stroke-width="0.86" stroke-miterlimit="10" stroke-linecap="round"/>
<path d="M98.23 175.39C98.23 175.39 108.89 179.7 119.68 175.39" stroke="black" stroke-width="0.86" stroke-miterlimit="10"/>
<path d="M109.24 165.09V185.7" stroke="#542583" stroke-width="0.86" stroke-miterlimit="10"/>
<path d="M116.77 168.24C112.5 169.46 111.16 172.24 111.52 177.17" stroke="black" stroke-width="0.86" stroke-miterlimit="10"/>
<path d="M116.53 182.68C113.16 182.4 111.7 180.5 111.53 177.17" stroke="black" stroke-width="0.86" stroke-miterlimit="10"/>
<path d="M101.25 168.24C105.53 169.46 106.86 172.24 106.51 177.17" stroke="black" stroke-width="0.86" stroke-miterlimit="10"/>
<path d="M101.5 182.68C104.87 182.4 106.33 180.5 106.5 177.17" stroke="black" stroke-width="0.86" stroke-miterlimit="10"/>
<path d="M65.96 185.4H89.11V183.5H65.96V185.4Z" stroke="black" stroke-width="0.86" stroke-linecap="round" stroke-linejoin="round"/>
<path d="M139.84 114C140.56 136.29 147.35 158.08 153.42 176.45C153.42 176.45 147.59 179.05 143.23 179.57C141.14 179.81 139.15 180.98 139.64 183.65L139.96 185.65H162.82C162.82 185.65 163.38 134.65 162.97 105.65" stroke="black" stroke-width="0.86" stroke-miterlimit="10"/>
<path d="M124.34 105.66C118.42 108.13 106.34 114.12 105.06 117.66C102.34 125.29 111.66 155.86 111.66 155.86C109.87 156.34 105.73 158.44 101.37 158.95C99.27 159.2 97.29 160.36 97.78 163.04L98.06 165.12L120.06 165.02C120.06 165.02 118.6 130.43 120.96 128.42C125.42 124.61 133.31 122.24 140.19 122.42" stroke="black" stroke-width="0.86" stroke-miterlimit="10"/>
<path d="M37.69 92.16C37.43 97.84 37.07 102.16 36.87 105.94L76.13 105.87C76 98.61 72.2 72.55 70.61 62.71" stroke="black" stroke-width="0.86" stroke-linecap="round" stroke-linejoin="round"/>
<path d="M35.94 174.87C38.57 172.72 58.63 137.74 62.99 114.05" stroke="black" stroke-width="0.86" stroke-miterlimit="10" stroke-linecap="round"/>
<path d="M38 106C36.8 128.86 29 172 29 172" stroke="black" stroke-width="0.86" stroke-miterlimit="10" stroke-linecap="round"/>
<path d="M58 131.18C59.88 141.38 65.4 172.67 65.93 176.01C65.93 176.01 73.77 176.17 73.86 176.01C75.18 173.13 76.09 142.58 75.28 106.24" stroke="black" stroke-width="0.86" stroke-miterlimit="10" stroke-linecap="round"/>
<path d="M44.77 111.51C43.77 116.9 38.42 118.51 33.51 117.68" stroke="black" stroke-width="0.86" stroke-miterlimit="10" stroke-linecap="round"/>
<path d="M74.15 176C75.5 176.1 81.08 178.76 85.43 179.27C87.53 179.51 89.51 180.68 89.03 183.36L65.94 183.46" stroke="black" stroke-width="0.86" stroke-linecap="round" stroke-linejoin="round"/>
<path d="M65.93 175.76V183.31" stroke="black" stroke-width="0.86" stroke-miterlimit="10"/>
<path d="M24.61 180.56L35.06 185.26L47.62 185.16V183.26L35.5 183.15L25.68 178.52L24.61 180.56Z" stroke="black" stroke-width="0.86" stroke-linecap="round" stroke-linejoin="round"/>
<path d="M47.61 183C47.35 181.29 44.77 178.91 41.61 179.06C39.73 179.15 39.61 176.61 35.8 174.76L28.88 172.02L25.72 178.49" stroke="black" stroke-width="0.86" stroke-linecap="round" stroke-linejoin="round"/>
<path d="M51.09 28.4798C51.4 26.2098 51.81 22.8498 53.39 21.0898C58.45 15.4298 64.33 26.9598 65.27 30.6698C66.16 34.1298 61.27 41.9298 59.87 42.4898C57.75 43.3298 54.74 41.3398 53.79 39.3698" stroke="black" stroke-width="0.86" stroke-miterlimit="10" stroke-linecap="round"/>
<path d="M50.37 50.0704C50.37 44.1404 50.05 38.7704 50.55 32.8604" stroke="black" stroke-width="0.86" stroke-miterlimit="10"/>
<path d="M59.29 42.3896C59.58 44.9396 59.91 47.9097 60.9 50.0597" stroke="black" stroke-width="0.86" stroke-miterlimit="10"/>
<path d="M51.9 29.5195C49.11 25.3995 47.04 30.8195 48.12 32.2395C48.81 33.1495 50.29 32.9795 51.12 32.5495" stroke="black" stroke-width="0.86" stroke-miterlimit="10" stroke-linecap="round"/>
<path d="M61.85 23.6704C62.19 23.6704 70.21 22.0704 69.08 19.8704C67.8 17.3504 52.33 25.3004 51.38 25.7204" fill="#5FB2FF"/>
<path d="M61.85 23.6704C62.19 23.6704 70.21 22.0704 69.08 19.8704C67.8 17.3504 52.33 25.3004 51.38 25.7204" stroke="black" stroke-width="0.86" stroke-miterlimit="10"/>
<path d="M57.33 29.9999C56.9197 29.8749 56.4857 29.8487 56.0634 29.9234C55.6411 29.9982 55.2425 30.1717 54.9 30.4299" stroke="black" stroke-width="0.86" stroke-miterlimit="10" stroke-linecap="round"/>
<path d="M50.6 30.3301C50.1716 30.7493 49.5993 30.989 49 31.0001" stroke="black" stroke-width="0.86" stroke-miterlimit="10" stroke-linecap="round"/>
<path d="M56.56 32.6398C56.792 32.6398 56.98 32.4518 56.98 32.2198C56.98 31.9878 56.792 31.7998 56.56 31.7998C56.328 31.7998 56.14 31.9878 56.14 32.2198C56.14 32.4518 56.328 32.6398 56.56 32.6398Z" fill="black"/>
<path d="M62.06 32.5002C62.292 32.5002 62.48 32.3121 62.48 32.0802C62.48 31.8482 62.292 31.6602 62.06 31.6602C61.828 31.6602 61.64 31.8482 61.64 32.0802C61.64 32.3121 61.828 32.5002 62.06 32.5002Z" fill="black"/>
<path d="M62.76 30.1098C62.1 29.8098 60.6 29.8998 60.33 30.5498C59.91 31.5498 60.55 33.7698 60.82 35.0198C61 35.8698 61.31 37.5298 59.82 37.0798" stroke="black" stroke-width="0.86" stroke-miterlimit="10" stroke-linecap="round"/>
<path d="M92.61 45.9199C90.1542 51.8482 87.0093 57.4669 83.24 62.6599C83.24 62.6599 73.61 55.4999 70.24 53.6599C67.24 52.0299 62.34 52.2299 62.34 52.2299C62.265 51.7275 62.0552 51.2548 61.733 50.8622C61.4108 50.4695 60.9881 50.1715 60.51 49.9999C57.15 49.0799 51.01 49.7399 50.25 50.2099C49.6073 50.7183 49.1647 51.4372 49 52.2399C49 52.2399 40.82 53.4499 38.43 55.4199C36.31 57.1599 27.67 68.4199 26.17 71.4999C24.99 73.9499 23.7 76.1099 23.87 78.8499C24.42 87.3399 39.72 94.6899 48.71 94.0999C49.95 94.0199 49.65 88.8599 49.65 88.8599C46.39 88.0699 33.07 81.8599 34.95 78.7099C38.491 73.9318 42.5119 69.5288 46.95 65.5699" stroke="black" stroke-width="0.86" stroke-linejoin="round"/>
<path d="M97.23 41.7098C97.13 39.7098 97.12 38.2698 97.16 36.4898C97.16 35.8798 97.48 33.3798 96.3 33.6298C95.12 33.8798 95.44 39.3598 95.46 40.2098" stroke="black" stroke-width="0.86" stroke-linecap="round" stroke-linejoin="round"/>
<path d="M95.78 34.0997C95.67 33.3597 95.37 32.9697 94.7 32.9797C93.22 32.9797 93.58 37.9797 93.55 40.2597" stroke="black" stroke-width="0.86" stroke-linecap="round" stroke-linejoin="round"/>
<path d="M97.23 46.2195C98.41 46.3595 99.08 41.7195 99.14 40.2895C99.14 39.8195 99.22 38.9495 98.63 38.6595C98.23 38.4695 97.89 38.8395 97.75 39.1195C97.566 39.5493 97.448 40.0045 97.4 40.4695C97.32 41.0695 97.21 41.7895 97.14 42.3895" stroke="black" stroke-width="0.86" stroke-linecap="round" stroke-linejoin="round"/>
<path d="M93.78 34.05C93.67 33.43 93.03 33.53 92.62 33.9C91.44 34.96 91.76 42.42 92.56 45.9C92.56 45.9 94.04 45.05 97.19 46.17" stroke="black" stroke-width="0.86" stroke-linecap="round" stroke-linejoin="round"/>
<path d="M71.49 68.2305C71.8 68.3805 81.64 73.8805 85.84 74.2305C89.55 74.5305 97.27 46.2305 97.27 46.2305" stroke="black" stroke-width="0.86" stroke-miterlimit="10"/>
<path d="M57.64 81.5H52.56C52.454 81.5122 52.3515 81.5457 52.2588 81.5985C52.1661 81.6514 52.085 81.7225 52.0205 81.8075C51.956 81.8926 51.9095 81.9898 51.8836 82.0934C51.8577 82.1969 51.8531 82.3046 51.87 82.41L52.18 88.28" stroke="black" stroke-width="0.86" stroke-miterlimit="10"/>
<path d="M59.45 87.88L59.75 82.41C59.7655 82.3048 59.7598 82.1976 59.7334 82.0946C59.7069 81.9916 59.6602 81.8949 59.596 81.8102C59.5317 81.7255 59.4513 81.6544 59.3592 81.6011C59.2672 81.5479 59.1655 81.5135 59.06 81.5H58.67" stroke="black" stroke-width="0.86" stroke-miterlimit="10"/>
<path d="M52.6 95.17L52.71 97.17C52.7039 97.3645 52.7717 97.5541 52.8997 97.7007C53.0277 97.8472 53.2064 97.9399 53.4 97.96H58.25C58.4445 97.9422 58.6247 97.8502 58.7531 97.7031C58.8816 97.556 58.9485 97.3651 58.94 97.17L59.06 95" stroke="black" stroke-width="0.86" stroke-miterlimit="10"/>
<path d="M52.17 88.1602C52.74 89.7702 55.69 89.5002 56.97 89.2802C57.44 89.2002 59.69 88.2802 59.46 87.6602" stroke="black" stroke-width="0.86" stroke-miterlimit="10"/>
<path d="M59.49 87.6497C59.6396 87.6402 59.7895 87.6609 59.9309 87.7104C60.0723 87.76 60.2024 87.8374 60.3133 87.9381C60.4243 88.0388 60.5139 88.1608 60.5769 88.2967C60.6399 88.4327 60.6749 88.5799 60.68 88.7297C60.6 90.2497 57.82 91.6197 54.79 91.1497" stroke="black" stroke-width="0.86" stroke-miterlimit="10" stroke-linecap="round"/>
<path d="M59.54 90.3205C59.6722 90.3008 59.8071 90.3078 59.9366 90.3412C60.066 90.3745 60.1875 90.4335 60.2938 90.5146C60.4001 90.5957 60.489 90.6973 60.5554 90.8134C60.6217 90.9295 60.6641 91.0577 60.68 91.1905C60.6 92.5205 57.92 93.7504 54.89 93.3404" stroke="black" stroke-width="0.86" stroke-miterlimit="10" stroke-linecap="round"/>
<path d="M59.58 92.6098C59.7038 92.5694 59.8353 92.5583 59.9641 92.5775C60.0929 92.5967 60.2155 92.6455 60.3222 92.7202C60.4289 92.7949 60.5167 92.8933 60.5788 93.0078C60.6409 93.1223 60.6756 93.2496 60.68 93.3798C60.68 94.6098 56.13 96.7598 49.2 94.0498" stroke="black" stroke-width="0.86" stroke-miterlimit="10" stroke-linecap="round"/>
<path d="M49.57 88.8995C49.38 88.4295 50.57 87.1295 52.02 87.0195" stroke="black" stroke-width="0.86" stroke-miterlimit="10" stroke-linecap="round"/>
<path d="M150.38 89.0897C150.6 88.6297 149.23 87.3197 147.61 87.2197" stroke="black" stroke-width="0.86" stroke-miterlimit="10" stroke-linecap="round"/>
<path d="M52.11 85.7696C54.44 84.8396 54.81 87.5796 57.9 87.2996C58.2518 87.2407 58.5844 87.0983 58.8697 86.8843C59.1551 86.6702 59.3849 86.3909 59.54 86.0696" stroke="black" stroke-width="0.86" stroke-miterlimit="10" stroke-linecap="round"/>
<path d="M58.03 87.1999L59.49 77.2499L64.11 77.2299L64.21 75.9199H58.32L56.66 87.0799" stroke="black" stroke-width="0.86" stroke-linecap="round" stroke-linejoin="round"/>
<path d="M162.69 92.1303C163.07 98.3403 163.42 104.04 163.52 105.79L124.26 105.72C124.4 98.4603 127.32 77.9103 128.92 68.0703" stroke="black" stroke-width="0.86" stroke-linecap="round" stroke-linejoin="round"/>
<path d="M161.61 73.6201C161.7 75.4701 161.91 78.8101 162.16 83.0101" stroke="black" stroke-width="0.86" stroke-linecap="round" stroke-linejoin="round"/>
<path d="M147.92 23.42C147.655 22.5585 147.209 21.7638 146.61 21.09C143.17 17.24 139 19.04 136.61 23.32" stroke="black" stroke-width="0.86" stroke-miterlimit="10" stroke-linecap="round"/>
<path d="M148.91 28.4796C148.91 28.1196 148.85 27.9896 148.79 27.5996" stroke="black" stroke-width="0.86" stroke-miterlimit="10" stroke-linecap="round"/>
<path d="M150.82 49.8496C150.82 43.9196 149.95 38.7696 149.45 32.8496" stroke="black" stroke-width="0.86" stroke-miterlimit="10"/>
<path d="M148.2 29.3903C151.02 24.9303 153.09 30.7903 152.01 32.3203C151.633 32.7254 151.124 32.9831 150.574 33.0472C150.025 33.1113 149.47 32.9777 149.01 32.6703" stroke="black" stroke-width="0.62" stroke-miterlimit="10" stroke-linecap="round"/>
<path d="M142.67 29.9999C143.08 29.8749 143.514 29.8487 143.937 29.9234C144.359 29.9982 144.758 30.1717 145.1 30.4299" stroke="black" stroke-width="0.62" stroke-miterlimit="10" stroke-linecap="round"/>
<path d="M149.4 30.3301C149.828 30.7493 150.401 30.989 151 31.0001" stroke="black" stroke-width="0.62" stroke-miterlimit="10" stroke-linecap="round"/>
<path d="M143.44 32.6398C143.672 32.6398 143.86 32.4518 143.86 32.2198C143.86 31.9878 143.672 31.7998 143.44 31.7998C143.208 31.7998 143.02 31.9878 143.02 32.2198C143.02 32.4518 143.208 32.6398 143.44 32.6398Z" fill="black"/>
<path d="M138.24 32.5002C138.472 32.5002 138.66 32.3121 138.66 32.0802C138.66 31.8482 138.472 31.6602 138.24 31.6602C138.008 31.6602 137.82 31.8482 137.82 32.0802C137.82 32.3121 138.008 32.5002 138.24 32.5002Z" fill="black"/>
<path d="M137.54 30.1098C138.2 29.8098 139.69 29.8998 139.96 30.5498C140.39 31.5498 138.75 34.8098 138.47 36.0598C138.29 36.9098 139.7 36.8098 140.56 36.7098" stroke="black" stroke-width="0.62" stroke-miterlimit="10" stroke-linecap="round"/>
<path d="M143.81 37.8203C143.06 40.3303 139.81 40.3603 139.17 38.6903" stroke="black" stroke-width="0.62" stroke-miterlimit="10" stroke-linecap="round"/>
<path d="M102.8 40.8496C102.8 38.7196 102.8 38.2096 102.73 36.3896C102.73 35.7596 102.4 33.2096 103.64 33.4596C105.03 33.7396 104.64 39.3196 104.56 40.1896" stroke="black" stroke-width="0.62" stroke-linecap="round" stroke-linejoin="round"/>
<path d="M104.16 33.7999C104.159 33.6559 104.188 33.5133 104.247 33.3819C104.306 33.2504 104.392 33.1332 104.501 33.0383C104.609 32.9433 104.736 32.8729 104.874 32.8317C105.012 32.7906 105.157 32.7797 105.3 32.7999C106.94 32.7999 106.59 37.6699 106.53 40.0799" stroke="black" stroke-width="0.62" stroke-linecap="round" stroke-linejoin="round"/>
<path d="M132.6 51.3597C133.6 65.6797 128.51 68.2297 128.51 68.2297C128.2 68.3797 118.36 73.8797 114.16 74.2297C110.45 74.5297 102.8 46.4297 102.8 46.4297" stroke="black" stroke-width="0.86" stroke-linecap="round" stroke-linejoin="round"/>
<path d="M120.65 128.75C120.65 128.75 113.57 123.75 105.1 117.36" stroke="black" stroke-width="0.86" stroke-miterlimit="10"/>
<path d="M163.27 144.37C163.27 144.37 154.68 144.37 144.15 144.14" stroke="black" stroke-width="0.86" stroke-miterlimit="10"/>
<path d="M52.15 84.2396C51.6457 84.2396 51.1526 84.0901 50.7333 83.8099C50.3139 83.5297 49.9871 83.1314 49.7941 82.6655C49.6011 82.1995 49.5506 81.6868 49.649 81.1922C49.7474 80.6975 49.9903 80.2432 50.3469 79.8865C50.7035 79.5299 51.1579 79.287 51.6525 79.1886C52.1472 79.0903 52.6599 79.1408 53.1258 79.3338C53.5918 79.5268 53.9901 79.8536 54.2702 80.2729C54.5504 80.6923 54.7 81.1853 54.7 81.6897" stroke="black" stroke-width="0.86" stroke-linejoin="round"/>
<path d="M150.37 89.18C153.63 88.39 166.98 81.88 165.1 78.71C163.47 76.26 154.42 66.13 157.54 51.71" stroke="black" stroke-width="0.86" stroke-linecap="round" stroke-linejoin="round"/>
<path d="M107.32 45.7598C109.801 51.7398 112.969 57.4112 116.76 62.6598C116.76 62.6598 127.24 53.7798 130.56 51.8798C133.12 50.4198 138.67 50.2498 138.67 50.2498C138.98 51.7798 141.73 61.0098 143.49 61.5398C144.97 61.9798 150.2 52.2198 150.82 49.6398C150.82 49.6398 158.26 51.1098 160.66 53.0798C162.77 54.8098 172.38 68.4198 173.88 71.4998C175.06 73.9498 176.35 76.1098 176.18 78.8498C175.63 87.3398 160.24 94.7098 151.25 94.1198" stroke="black" stroke-width="0.86" stroke-linecap="round" stroke-linejoin="round"/>
<path d="M108.46 49.1104L103.78 49.7704" stroke="black" stroke-width="0.86" stroke-linecap="round" stroke-linejoin="round"/>
<path d="M151.31 169.65H162.69" stroke="black" stroke-width="0.86" stroke-linecap="round" stroke-linejoin="round"/>
<path d="M109.48 148.2H119.42" stroke="black" stroke-width="0.86" stroke-linecap="round" stroke-linejoin="round"/>
<path d="M139.83 184.69C140.83 180.82 145.04 183.99 151.37 183.21C154.98 182.77 158.61 180.35 162.61 180.62" stroke="black" stroke-width="0.86" stroke-miterlimit="10"/>
<path d="M98 164.76C98.92 160.9 103 164.07 109.07 163.29C112.53 162.84 116.01 160.43 119.85 160.69" stroke="black" stroke-width="0.86" stroke-miterlimit="10"/>
<path d="M147.34 95.2996V96.2396C147.34 96.77 147.129 97.2787 146.754 97.6538C146.379 98.0289 145.87 98.2396 145.34 98.2396H142.14C141.61 98.2396 141.101 98.0289 140.726 97.6538C140.351 97.2787 140.14 96.77 140.14 96.2396V94.8096" stroke="black" stroke-width="0.86" stroke-miterlimit="10" stroke-linecap="round"/>
<path d="M140.15 87.9998V80.2998C140.15 79.7694 140.361 79.2607 140.736 78.8856C141.111 78.5105 141.62 78.2998 142.15 78.2998H145.35C145.88 78.2998 146.389 78.5105 146.764 78.8856C147.139 79.2607 147.35 79.7694 147.35 80.2998V88.2998" stroke="black" stroke-width="0.86" stroke-miterlimit="10" stroke-linecap="round"/>
<path d="M146.64 78.2499C146.714 78.2496 146.788 78.233 146.855 78.2013C146.923 78.1696 146.982 78.1236 147.03 78.0664C147.077 78.0092 147.112 77.9423 147.131 77.8704C147.15 77.7984 147.153 77.7232 147.14 77.6499C146.996 76.8542 146.577 76.1343 145.957 75.6159C145.336 75.0975 144.554 74.8135 143.745 74.8135C142.936 74.8135 142.154 75.0975 141.533 75.6159C140.913 76.1343 140.494 76.8542 140.35 77.6499C140.337 77.7232 140.34 77.7984 140.359 77.8704C140.378 77.9423 140.413 78.0092 140.46 78.0664C140.508 78.1236 140.567 78.1696 140.635 78.2013C140.702 78.233 140.776 78.2496 140.85 78.2499H146.64Z" stroke="black" stroke-width="0.86" stroke-miterlimit="10" stroke-linecap="round"/>
<path d="M102.84 42.5296C102.848 41.862 102.822 41.1944 102.76 40.5296C102.701 40.0448 102.566 39.5724 102.36 39.1296C102.21 38.8396 101.83 38.4496 101.36 38.6496C100.69 38.9596 100.75 39.8596 100.77 40.3596C100.77 41.5096 100.77 44.8296 102.22 46.7596" stroke="black" stroke-width="0.62" stroke-linecap="round" stroke-linejoin="round"/>
<path d="M107.83 45.6402C108.66 42.1002 108.7 34.7502 107.46 33.6402C107.03 33.2702 106.24 33.2302 106.31 33.8002" stroke="black" stroke-width="0.62" stroke-linecap="square" stroke-linejoin="round"/>
<path d="M139.86 90.58C139.728 90.5267 139.585 90.5094 139.445 90.5298C139.304 90.5502 139.172 90.6077 139.061 90.6962C138.95 90.7848 138.864 90.9013 138.813 91.0338C138.762 91.1662 138.747 91.3099 138.77 91.45C138.86 92.86 141.61 94.07 144.77 93.67" stroke="black" stroke-width="0.62" stroke-miterlimit="10" stroke-linecap="round"/>
<path d="M140 92.9998C139 92.5098 138.71 93.2098 138.81 93.6098C139.16 94.9198 142.52 97.2098 150.75 94.6098C150.75 94.6098 151.75 94.8198 151.96 94.8298" stroke="black" stroke-width="0.62" stroke-miterlimit="10" stroke-linecap="square"/>
<path d="M147.1 88.42C146.38 89.71 144.18 89.56 142.67 89.34C141.762 89.0343 140.911 88.5816 140.15 88C140.047 87.9338 139.931 87.8914 139.81 87.8758C139.689 87.8603 139.566 87.8719 139.45 87.91C139.234 87.9705 139.044 88.102 138.912 88.2834C138.779 88.4648 138.712 88.6856 138.72 88.91C138.8 90.44 141.72 92.01 144.86 91.53" stroke="black" stroke-width="0.62" stroke-miterlimit="10" stroke-linecap="round"/>
<path d="M134.92 27.5801C134.701 28.6359 134.594 29.7118 134.6 30.7901C134.6 34.3501 138.6 42.0201 140.02 42.5801C142.14 43.4201 145.15 41.4301 146.11 39.4601" stroke="black" stroke-width="0.62" stroke-miterlimit="10" stroke-linecap="round"/>
<path d="M140.65 42.6602C140.05 44.8902 138.65 49.3602 138.65 49.9002" stroke="black" stroke-width="0.86" stroke-miterlimit="10"/>
<path d="M148.68 27.4098C148.68 27.4098 144.77 26.9398 141.96 26.9398C139.33 26.9398 135.4 27.4098 135.4 27.4098C135.215 27.4126 135.03 27.3779 134.859 27.3079C134.687 27.2379 134.531 27.1339 134.4 27.0023C134.27 26.8707 134.167 26.7141 134.098 26.5419C134.029 26.3696 133.996 26.1853 134 25.9998V24.8998C134 24.5338 134.145 24.1828 134.404 23.924C134.663 23.6652 135.014 23.5198 135.38 23.5198C135.38 23.5198 139.78 23.0898 141.96 23.0898C144.34 23.0898 148.66 23.5198 148.66 23.5198C149.026 23.5198 149.377 23.6652 149.636 23.924C149.895 24.1828 150.04 24.5338 150.04 24.8998V25.9998C150.044 26.1819 150.012 26.363 149.946 26.5326C149.879 26.7022 149.78 26.857 149.654 26.988C149.527 27.1191 149.376 27.2238 149.209 27.2962C149.042 27.3686 148.862 27.4072 148.68 27.4098Z" stroke="black" stroke-width="0.86" stroke-linecap="round" stroke-linejoin="round"/>
<path d="M137 50.5103C137 50.5103 140.24 63.2403 143.38 63.2103C146.82 63.2103 150.22 55.6403 152.23 50.2803" stroke="black" stroke-width="0.86" stroke-miterlimit="10" stroke-linecap="round"/>
<path d="M155.86 51C154.847 55.3778 154.843 59.9285 155.848 64.3081C156.853 68.6877 158.84 72.7815 161.66 76.28" stroke="black" stroke-width="0.86" stroke-miterlimit="10" stroke-linecap="round"/>
<path d="M134 50.8701C134 50.8701 135.74 65.3101 128.72 70.3501" stroke="black" stroke-width="0.86" stroke-miterlimit="10" stroke-linecap="round"/>
<path d="M155.18 105.84V144.3" stroke="black" stroke-width="0.86" stroke-miterlimit="10" stroke-linecap="round"/>
<path d="M157.61 105.84V144.3" stroke="black" stroke-width="0.86" stroke-miterlimit="10" stroke-linecap="round"/>
<path d="M37 92.5803C40.7429 93.8746 44.7104 94.3918 48.66 94.1003C49.9 94.0203 49.6 88.8603 49.6 88.8603C46.34 88.0703 33.02 81.8603 34.9 78.7103C38.441 73.9322 42.4619 69.5292 46.9 65.5703" stroke="white" stroke-width="0.86" stroke-linejoin="round"/>
<path d="M58.55 40.7401C56.55 40.6701 55.72 37.6201 56.22 38.0301C56.9438 38.4149 57.7475 38.6253 58.567 38.6444C59.3865 38.6635 60.1991 38.4908 60.94 38.1401C61.49 37.8401 60.17 40.8101 58.55 40.7401Z" stroke="black" stroke-width="0.86" stroke-miterlimit="10"/>
<path d="M91.19 48.82L82.64 52.94L86.16 44.26L78.91 40.51L88.73 35.98L80.35 28.12L91.46 30L87.66 18L97 26.44L100.29 14.29L103.58 26.44L110.7 21.61L109.12 30L121.54 27.94L111.85 35.98L118.88 40.04L110.92 42.5L117.94 52.94L109.1 48.66" stroke="black" stroke-width="0.86" stroke-linecap="round" stroke-linejoin="round"/>
<path d="M105.47 55.1199L104.73 57.0199L100.06 51.1299L94.07 59.7799L94.11 57.0199" stroke="black" stroke-width="0.86" stroke-linecap="round" stroke-linejoin="round"/>
<path d="M144.04 73.0801H143.35C143.024 73.0801 142.76 73.342 142.76 73.6651C142.76 73.9882 143.024 74.2501 143.35 74.2501H144.04C144.366 74.2501 144.63 73.9882 144.63 73.6651C144.63 73.342 144.366 73.0801 144.04 73.0801Z" fill="black"/>
<path d="M143.12 73.9303V74.7303C143.12 74.78 143.16 74.8203 143.21 74.8203H144.2C144.25 74.8203 144.29 74.78 144.29 74.7303V73.9303C144.29 73.8806 144.25 73.8403 144.2 73.8403H143.21C143.16 73.8403 143.12 73.8806 143.12 73.9303Z" fill="black"/>
<rect x="103" y="45.3555" width="3.86119" height="2" rx="1" transform="rotate(-5.28535 103 45.3555)" fill="#956556"/>
<rect x="104" y="46.3555" width="3.24072" height="2" rx="1" transform="rotate(-5.28535 104 46.3555)" fill="#956556"/>
<path d="M101.084 39.7092C101.086 39.7127 101.098 39.749 101.1 39.7468C101.121 39.7292 101.124 39.6677 101.131 39.6425C101.143 39.5962 101.152 39.5458 101.18 39.5064C101.206 39.4704 101.225 39.422 101.24 39.3807C101.253 39.3441 101.283 39.3273 101.298 39.2915C101.315 39.2542 101.333 39.2238 101.355 39.1901C101.387 39.1414 101.331 39.1623 101.316 39.2087C101.303 39.2469 101.314 39.2942 101.298 39.3292C101.285 39.356 101.273 39.3532 101.25 39.3703C101.208 39.4016 101.241 39.3208 101.251 39.3048C101.257 39.2954 101.274 39.2372 101.265 39.2481C101.232 39.289 101.227 39.3415 101.207 39.3882C101.187 39.4348 101.161 39.4766 101.138 39.5215C101.128 39.5416 101.115 39.5612 101.115 39.584C101.115 39.6243 101.099 39.6303 101.085 39.6622C101.072 39.6916 101.084 39.7521 101.084 39.7845C101.084 39.7972 101.077 39.8372 101.085 39.8482C101.1 39.8708 101.106 39.7981 101.113 39.7717C101.117 39.754 101.113 39.7355 101.117 39.7178C101.126 39.6828 101.15 39.655 101.157 39.6194C101.17 39.563 101.2 39.5105 101.209 39.4531C101.213 39.4261 101.291 39.2912 101.269 39.2921C101.236 39.2934 101.221 39.3577 101.211 39.3836C101.204 39.4028 101.178 39.4252 101.162 39.4381C101.147 39.4502 101.147 39.4959 101.184 39.4473C101.218 39.4008 101.235 39.3588 101.276 39.3187C101.339 39.2588 101.401 39.2494 101.483 39.2295C101.509 39.2232 101.542 39.213 101.498 39.2365C101.45 39.2616 101.401 39.2874 101.363 39.3257C101.351 39.3381 101.276 39.4136 101.312 39.35C101.351 39.281 101.454 39.238 101.483 39.1675C101.492 39.1458 101.423 39.1612 101.413 39.167C101.401 39.1738 101.524 39.1712 101.532 39.1878" stroke="#956556" stroke-width="0.05" stroke-linecap="round"/>
<path d="M101.678 39.156C101.632 39.156 101.585 39.153 101.539 39.1583C101.457 39.1677 101.395 39.2115 101.319 39.2394C101.258 39.262 101.201 39.3049 101.272 39.3668C101.318 39.4078 101.264 39.4778 101.235 39.5157C101.187 39.5793 101.199 39.5196 101.199 39.4688C101.199 39.429 101.185 39.3979 101.178 39.3599C101.166 39.2924 101.269 39.2669 101.312 39.244C101.365 39.2159 101.415 39.1717 101.471 39.1502C101.566 39.113 101.651 39.0828 101.754 39.1015C101.793 39.1088 101.81 39.1203 101.845 39.1421C101.855 39.148 101.891 39.1916 101.857 39.1826C101.811 39.1706 101.769 39.1473 101.722 39.1374C101.659 39.124 101.579 39.1555 101.518 39.1328C101.493 39.1234 101.602 39.0472 101.568 39.0419C101.485 39.0292 101.473 39.0745 101.43 39.1305C101.396 39.1755 101.344 39.1956 101.317 39.2463C101.289 39.2978 101.275 39.3521 101.256 39.4062C101.249 39.4256 101.236 39.4895 101.215 39.4978C101.189 39.5076 101.146 39.4678 101.146 39.4717C101.146 39.4763 101.124 39.5799 101.097 39.5499C101.091 39.5435 101.102 39.4744 101.111 39.4636C101.131 39.437 101.139 39.4298 101.149 39.3981C101.158 39.3689 101.154 39.3347 101.173 39.3083C101.203 39.2644 101.248 39.2307 101.286 39.1925C101.302 39.177 101.294 39.1534 101.272 39.156C101.255 39.1579 101.258 39.2065 101.245 39.218C101.169 39.2835 101.279 39.2152 101.26 39.1826C101.25 39.1651 101.204 39.1823 101.222 39.1954C101.256 39.2213 101.319 39.1609 101.339 39.1403C101.434 39.0455 101.282 39.0857 101.282 39.1143C101.282 39.1664 101.335 39.1327 101.358 39.1102C101.385 39.0827 101.333 39.088 101.326 39.0807C101.293 39.0481 101.477 39.0446 101.436 39.0158C101.366 38.9659 101.45 39.0584 101.386 39.0621C101.303 39.067 101.377 39.0312 101.409 39.0019C101.421 38.9916 101.474 38.994 101.492 38.9886C101.529 38.9777 101.557 38.9683 101.595 38.9683C101.677 38.9683 101.725 39.0194 101.791 39.0621C101.837 39.0928 101.91 39.1172 101.947 39.1583C101.976 39.1905 102.044 39.2205 102.054 39.2655C102.057 39.2774 102.099 39.3028 102.083 39.3205C102.068 39.3371 102.038 39.3085 102.027 39.302C101.999 39.2862 102.012 39.2113 102.012 39.182C102.012 39.1543 101.945 39.1286 101.929 39.0992C101.91 39.0673 101.894 39.0206 101.857 39.0054C101.82 38.9901 101.77 38.9965 101.729 38.9845C101.668 38.9665 101.622 38.9579 101.56 38.9579C101.527 38.9579 101.493 38.9672 101.462 38.9764C101.447 38.9809 101.398 38.9995 101.438 38.988C101.475 38.9775 101.486 38.937 101.53 38.937C101.56 38.937 101.591 38.937 101.621 38.937C101.651 38.937 101.729 38.9688 101.754 38.9868C101.76 38.9912 101.811 38.9891 101.788 38.9891C101.753 38.9891 101.73 38.9737 101.699 38.9602C101.68 38.9517 101.653 38.9414 101.632 38.9376C101.618 38.935 101.588 38.944 101.576 38.9347C101.524 38.893 101.625 38.937 101.655 38.937C101.696 38.937 101.742 38.9474 101.777 38.9474C101.804 38.9474 101.814 38.968 101.814 38.9915C101.814 39.0499 101.742 38.9955 101.711 38.9793C101.7 38.9734 101.583 38.9266 101.621 38.9266C101.657 38.9266 101.737 38.9412 101.674 38.9011C101.657 38.8907 101.633 38.8943 101.616 38.9005C101.566 38.9181 101.597 38.9282 101.619 38.9579C101.646 38.9946 101.653 39.0563 101.685 39.0888C101.725 39.1283 101.777 39.1426 101.824 39.1687C101.857 39.1865 101.889 39.2054 101.922 39.2232C101.97 39.2489 101.935 39.2389 101.91 39.2185C101.876 39.191 101.878 39.1293 101.85 39.0934C101.832 39.0713 101.805 39.0231 101.85 39.0668C101.888 39.1036 101.89 39.1328 101.913 39.1763C101.923 39.1941 101.946 39.2418 101.96 39.2556C101.976 39.2718 102.022 39.3099 102.022 39.2701C102.022 39.2459 102.028 39.2172 102.012 39.1977C101.989 39.1706 101.999 39.1559 101.964 39.1403C101.951 39.1341 101.904 39.0964 101.918 39.1143C101.963 39.171 101.941 39.2652 102.004 39.3066C102.04 39.3304 102.042 39.2938 102.043 39.2579C102.045 39.2149 102.02 39.1939 101.996 39.1606C101.939 39.0829 101.814 39.0241 101.72 39.0106C101.653 39.001 101.591 39.0175 101.532 39.0471C101.488 39.0693 101.447 39.0976 101.401 39.1189C101.373 39.1321 101.182 39.1975 101.266 39.2446C101.288 39.2565 101.323 39.2699 101.324 39.2382C101.324 39.2011 101.334 39.1465 101.323 39.1096C101.315 39.0801 101.283 39.1146 101.282 39.1328C101.282 39.1424 101.274 39.1492 101.275 39.149C101.303 39.1163 101.37 39.0965 101.409 39.0801C101.488 39.047 101.658 39.0245 101.734 39.0778C101.784 39.112 101.708 39.0895 101.686 39.0807C101.642 39.0627 101.598 39.0397 101.553 39.0256C101.525 39.0169 101.473 38.9924 101.47 39.0343C101.468 39.0645 101.458 39.2459 101.517 39.156C101.549 39.1077 101.498 39.0903 101.502 39.0413C101.505 39.0028 101.538 38.9882 101.574 39.0019C101.645 39.0289 101.714 39.0863 101.783 39.1224C101.852 39.1586 101.912 39.2112 101.981 39.2475C102.029 39.2732 101.895 39.191 101.882 39.1826C101.826 39.1484 101.785 39.1017 101.733 39.0679C101.689 39.0396 101.621 39.0198 101.584 39.0697C101.534 39.1391 101.562 39.1542 101.469 39.156C101.426 39.1568 101.371 39.1524 101.351 39.1983C101.339 39.225 101.34 39.2555 101.328 39.2817C101.315 39.3108 101.292 39.3344 101.276 39.3622C101.251 39.4069 101.243 39.4595 101.225 39.507C101.207 39.5566 101.178 39.601 101.159 39.6501C101.148 39.678 101.151 39.7073 101.141 39.7347C101.132 39.7591 101.13 39.7941 101.105 39.8025" stroke="#956556" stroke-width="0.05" stroke-linecap="round"/>
<path d="M106.78 33.6777C106.78 33.6802 106.786 33.6929 106.788 33.6934C106.79 33.6939 106.81 33.6993 106.805 33.7032C106.792 33.7141 106.722 33.6913 106.751 33.694C106.791 33.6978 106.853 33.711 106.886 33.7363C106.928 33.7689 106.994 33.7656 107.035 33.8025C107.058 33.823 107.078 33.8467 107.1 33.8682C107.112 33.8796 107.127 33.8869 107.139 33.8987C107.159 33.9184 107.17 33.9459 107.185 33.9691C107.201 33.9923 107.21 34.0149 107.234 34.0303C107.255 34.0439 107.276 34.0619 107.294 34.0797C107.303 34.0891 107.311 34.1037 107.323 34.1101C107.328 34.1129 107.347 34.1279 107.338 34.1184C107.321 34.1009 107.309 34.0795 107.297 34.0593C107.283 34.0377 107.26 34.02 107.244 33.9995C107.233 33.9852 107.216 33.9798 107.201 33.9729C107.183 33.9653 107.17 33.9412 107.156 33.9285C107.127 33.9034 107.106 33.8734 107.078 33.8481C107.052 33.8247 107.037 33.7959 107.016 33.7676C107.009 33.7578 106.982 33.7486 106.97 33.744C106.946 33.7345 106.922 33.7371 106.898 33.7298C106.888 33.7268 106.827 33.699 106.862 33.699C106.921 33.699 106.968 33.7672 107.022 33.7792C107.061 33.7879 107.103 33.8239 107.136 33.8448C107.17 33.8664 107.185 33.8999 107.205 33.9344C107.213 33.9493 107.213 33.9648 107.224 33.9785C107.23 33.9857 107.237 33.9947 107.242 34.0025C107.261 34.0351 107.304 34.0465 107.328 34.0732C107.358 34.1066 107.367 34.1726 107.408 34.1965C107.427 34.2076 107.421 34.2264 107.429 34.245C107.439 34.2655 107.452 34.2839 107.461 34.3047C107.475 34.3361 107.5 34.3637 107.509 34.397C107.51 34.3996 107.52 34.4444 107.52 34.423C107.52 34.4012 107.53 34.3483 107.512 34.3305C107.504 34.3226 107.493 34.3314 107.486 34.3213C107.46 34.2874 107.463 34.2471 107.445 34.2113C107.435 34.1916 107.423 34.1775 107.408 34.1622C107.347 34.1014 107.315 34.0141 107.259 33.9495C107.24 33.9275 107.204 33.9191 107.187 33.8981C107.177 33.8843 107.176 33.8794 107.16 33.8682C107.146 33.8579 107.134 33.8473 107.121 33.8363C107.109 33.8271 107.098 33.8175 107.086 33.8082C107.078 33.8016 107.066 33.8034 107.06 33.7972C107.056 33.7938 107.006 33.7424 107.019 33.7416C107.057 33.7394 107.063 33.7487 107.078 33.7795C107.089 33.8006 107.105 33.8104 107.123 33.8244C107.137 33.835 107.159 33.8481 107.176 33.8481C107.186 33.8481 107.157 33.8403 107.148 33.8345C107.134 33.8244 107.135 33.8114 107.126 33.796C107.112 33.771 107.111 33.7679 107.083 33.7534C107.056 33.7389 107.141 33.7873 107.152 33.8164C107.164 33.8477 107.208 33.857 107.224 33.8851C107.237 33.9085 107.257 33.9262 107.273 33.9481C107.275 33.9519 107.316 33.9822 107.295 33.9747C107.281 33.9697 107.264 33.9562 107.26 33.9413C107.256 33.9307 107.257 33.9187 107.254 33.9078C107.253 33.9059 107.244 33.8863 107.247 33.8856C107.27 33.8788 107.296 33.9414 107.302 33.9569C107.311 33.9835 107.318 34.0181 107.333 34.0409C107.349 34.0647 107.366 34.083 107.381 34.1078C107.387 34.1167 107.393 34.1244 107.4 34.1326C107.405 34.1381 107.419 34.166 107.412 34.1495C107.401 34.1216 107.388 34.0931 107.38 34.064C107.374 34.0434 107.37 34.0172 107.348 34.0078C107.339 34.0039 107.32 33.9977 107.31 33.9977C107.309 33.9977 107.318 34.0138 107.319 34.0149C107.327 34.0354 107.335 34.0552 107.344 34.0752C107.364 34.1178 107.387 34.181 107.427 34.2101C107.451 34.2273 107.468 34.2664 107.481 34.2923C107.501 34.3307 107.495 34.2801 107.49 34.2621C107.486 34.2464 107.476 34.2196 107.467 34.2059C107.457 34.191 107.437 34.1822 107.427 34.1666C107.411 34.1432 107.402 34.1206 107.397 34.093C107.393 34.0688 107.403 34.0017 107.384 33.9895C107.372 33.9818 107.356 33.9784 107.343 33.9705C107.336 33.966 107.329 33.9667 107.321 33.9649C107.32 33.9647 107.314 33.9598 107.315 33.9611C107.318 33.9995 107.355 34.0592 107.383 34.0865C107.4 34.1038 107.419 34.1238 107.424 34.1489C107.427 34.1599 107.437 34.1731 107.441 34.1847C107.451 34.2121 107.445 34.1844 107.445 34.1711C107.445 34.1593 107.428 34.1398 107.43 34.1563C107.437 34.2011 107.443 34.2697 107.468 34.3083C107.5 34.3585 107.518 34.416 107.54 34.4709C107.544 34.4816 107.546 34.5161 107.546 34.5047C107.546 34.4687 107.522 34.4421 107.515 34.4097C107.513 34.4036 107.511 34.3863 107.52 34.3858C107.537 34.3847 107.549 34.4269 107.554 34.439C107.563 34.4611 107.567 34.4798 107.568 34.5029C107.568 34.5171 107.578 34.5272 107.578 34.5401C107.579 34.5483 107.601 34.5962 107.594 34.5697C107.592 34.5585 107.579 34.5596 107.578 34.5455C107.578 34.5346 107.579 34.5282 107.573 34.5189" stroke="#956556" stroke-width="0.05" stroke-linecap="round"/>
<path d="M107.543 34.5774C107.55 34.6449 107.59 34.7158 107.627 34.7713C107.659 34.8195 107.726 34.8987 107.615 34.8461C107.556 34.8179 107.564 34.7716 107.564 34.7129C107.564 34.6895 107.552 34.5122 107.595 34.5797C107.647 34.6601 107.61 34.7458 107.629 34.8321C107.647 34.913 107.69 34.9528 107.69 35.0401C107.69 35.0423 107.714 34.7799 107.669 34.7667C107.555 34.7332 107.597 35.0768 107.669 35.1126C107.723 35.1396 107.766 35.1648 107.773 35.2329C107.776 35.2688 107.834 35.4481 107.762 35.3393C107.718 35.272 107.8 35.1297 107.732 35.0775C107.667 35.0279 107.648 35.0239 107.648 34.9361C107.648 34.9042 107.665 34.7834 107.636 34.7667C107.553 34.7194 107.636 34.7599 107.669 34.8508C107.715 34.98 107.774 35.1418 107.774 35.2832C107.774 35.3517 107.774 35.4203 107.774 35.4888C107.774 35.5794 107.761 35.2952 107.702 35.2271C107.612 35.1251 107.779 34.8679 107.648 34.783C107.587 34.744 107.664 34.6804 107.669 34.7246C107.678 34.8139 107.686 34.8701 107.712 34.9571C107.738 35.0423 107.753 35.0984 107.753 35.1874C107.753 35.2743 107.8 35.3124 107.832 35.3767C107.883 35.4782 107.837 35.7215 107.837 35.8289C107.837 35.9775 107.837 35.7441 107.837 35.705C107.837 35.6383 107.808 35.5621 107.779 35.5029C107.754 35.4538 107.709 35.3953 107.711 35.3393C107.715 35.2317 107.821 35.4372 107.825 35.4491C107.848 35.5172 107.837 35.5981 107.837 35.6688C107.837 35.7261 107.839 35.6885 107.835 35.6536C107.827 35.5931 107.818 35.4824 107.753 35.4608" stroke="#956556" stroke-width="0.05" stroke-linecap="round"/>
<path d="M107.839 35.6924C107.884 35.7101 107.861 35.8819 107.861 35.9243C107.861 35.9449 107.86 35.967 107.866 35.987C107.879 36.026 107.877 36.0026 107.869 35.9755C107.857 35.9376 107.839 35.8985 107.839 35.8591C107.839 35.8196 107.866 35.8614 107.875 35.8767C107.882 35.8916 107.9 35.9052 107.904 35.921C107.91 35.9406 107.911 35.9608 107.917 35.9808C107.925 36.0031 107.943 36.0267 107.943 36.0501C107.943 36.0614 107.941 36.073 107.927 36.0636C107.904 36.0471 107.905 36.0117 107.898 35.9866C107.88 35.924 107.876 35.8742 107.876 35.8104C107.876 35.7682 107.884 35.8944 107.884 35.9366C107.884 36.005 107.898 36.0594 107.909 36.1263C107.917 36.1784 107.913 36.2326 107.926 36.284C107.927 36.2871 107.927 36.3165 107.926 36.316C107.91 36.3057 107.92 36.2277 107.92 36.2111C107.92 36.1688 107.923 36.1277 107.914 36.0869C107.911 36.0756 107.928 36.1357 107.928 36.1537C107.928 36.1823 107.927 36.2111 107.928 36.2397C107.928 36.2499 107.943 36.3101 107.926 36.2684C107.905 36.2167 107.884 36.2016 107.847 36.1676C107.827 36.1494 107.839 36.083 107.839 36.0578C107.839 36.0103 107.839 35.9628 107.839 35.9153C107.839 35.8838 107.853 35.8666 107.86 35.8382C107.866 35.8132 107.884 35.7392 107.884 35.7649C107.884 35.8037 107.896 35.8335 107.898 35.8702C107.903 35.9514 107.875 36.0657 107.907 36.1422C107.919 36.1695 107.919 36.1867 107.921 36.2168C107.924 36.2554 107.943 36.2872 107.95 36.3233C107.954 36.3439 107.972 36.3526 107.972 36.3709C107.972 36.3905 107.972 36.4102 107.972 36.4299C107.972 36.4389 107.979 36.485 107.957 36.4725C107.923 36.4528 107.913 36.3334 107.898 36.2983C107.89 36.2793 107.878 36.2608 107.876 36.2397C107.876 36.2349 107.887 36.2883 107.889 36.2971C107.898 36.3381 107.93 36.4589 107.927 36.4172C107.919 36.317 107.898 36.2138 107.882 36.1144C107.868 36.0276 107.852 36.147 107.856 36.1783C107.867 36.2647 107.905 36.3312 107.949 36.4032C107.97 36.4379 107.957 36.4982 107.957 36.5376C107.957 36.5812 107.957 36.6247 107.957 36.6683C107.957 36.7483 107.957 36.8284 107.957 36.9084C107.957 36.9417 107.965 37.0405 107.956 37.0084C107.916 36.866 107.848 36.7314 107.822 36.5851C107.813 36.5354 107.815 36.4833 107.843 36.4389C107.86 36.41 107.905 36.4531 107.916 36.4692C107.932 36.4958 107.935 36.5144 107.935 36.5454C107.935 36.6227 107.941 36.6972 107.95 36.774C107.953 36.801 107.955 36.836 107.965 36.8613C107.986 36.9188 107.994 36.9623 107.994 37.0231C107.994 37.0452 107.994 37.0674 107.994 37.0895C107.994 37.1296 107.994 37.0354 107.994 37.0223C107.994 36.9113 107.987 36.799 107.987 36.6871C107.987 36.6496 107.991 36.5974 107.968 36.5655C107.961 36.5545 107.957 36.5414 107.95 36.5298C107.946 36.5226 107.943 36.607 107.943 36.6114C107.943 36.6795 107.937 36.7493 107.95 36.8166C107.965 36.8967 107.993 36.9844 107.994 37.0657C107.995 37.1645 107.987 37.2628 107.987 37.3615C107.987 37.3865 107.987 37.4115 107.987 37.4365C107.987 37.4388 107.988 37.4592 107.982 37.4553C107.956 37.4387 107.95 37.3735 107.943 37.3468C107.932 37.3101 107.92 37.2751 107.915 37.237C107.908 37.1828 107.917 37.125 107.929 37.0723C107.941 37.0246 107.943 36.9606 107.965 37.046C107.976 37.0902 107.995 37.1282 107.983 37.1743C107.971 37.2212 107.951 37.278 107.944 37.1919C107.942 37.1628 107.959 37.1105 107.943 37.0862" stroke="#956556" stroke-width="0.05" stroke-linecap="round"/>
<path d="M107.987 36.54L107.994 36.5474" stroke="#956556" stroke-width="0.05" stroke-linecap="round"/>
<path d="M107.965 36.5107H107.979" stroke="#956556" stroke-width="0.05" stroke-linecap="round"/>
<path d="M107.972 37.1523C108.014 37.2133 107.99 37.3068 107.996 37.3777C108.002 37.4519 108.024 37.518 108.024 37.5932C108.024 37.7069 108.019 37.8214 108.032 37.9341C108.035 37.965 108.046 37.991 108.046 38.0226C108.046 38.0652 108.038 38.1067 108.038 38.1496C108.038 38.232 108.024 38.309 108.024 38.3909C108.024 38.4284 108.046 38.46 108.046 38.4945C108.046 38.5205 108.046 38.5464 108.046 38.5724C108.046 38.666 108.024 38.7547 108.024 38.8485C108.024 38.8904 108.033 38.9204 108.047 38.9575C108.061 38.9918 108.077 39.0036 108.056 39.0407C108.03 39.0867 108.016 39.1236 108.016 39.1763C108.016 39.2103 108.017 39.238 108.002 39.2689" stroke="#956556" stroke-width="0.1" stroke-linecap="round"/>
<path d="M107.92 36.8506C107.925 36.9356 107.936 37.0335 107.959 37.1161C107.964 37.135 107.976 37.1543 107.983 37.1734C107.986 37.1807 107.987 37.1244 107.987 37.1144C107.987 37.0665 107.992 37.0257 107.97 36.9833C107.958 36.959 107.965 36.9427 107.965 36.9891C107.965 37.0637 107.983 37.1222 108.005 37.1927C108.036 37.2917 108.024 37.4001 108.024 37.5028C108.024 37.6186 108.024 37.7345 108.024 37.8503C108.024 37.9051 108.045 37.9539 108.053 38.0047C108.056 38.0232 108.052 38.0367 108.065 38.0084C108.074 37.988 108.069 37.9527 108.068 37.9306C108.067 37.9107 108.053 37.8986 108.053 37.8781C108.053 37.8404 108.053 37.8027 108.053 37.765C108.053 37.75 108.053 37.6924 108.053 37.7011C108.053 37.8254 108.053 37.9497 108.053 38.074C108.053 38.1792 108.038 38.2831 108.038 38.3882C108.038 38.4223 108.036 38.4579 108.04 38.4919C108.045 38.5287 108.048 38.4875 108.05 38.4751C108.053 38.4364 108.056 38.3997 108.068 38.3624C108.085 38.3062 108.097 38.2515 108.097 38.1924C108.097 38.1275 108.097 38.3221 108.097 38.387C108.097 38.4742 108.109 38.5777 108.064 38.657C108.025 38.7277 108.038 38.8142 108.038 38.8934C108.038 38.9363 108.038 38.9791 108.038 39.022C108.038 39.0652 108.038 39.025 108.038 39.004C108.039 38.9384 108.06 38.8867 108.079 38.8254C108.083 38.8105 108.108 38.7066 108.104 38.7463C108.099 38.8005 108.069 38.8551 108.068 38.9081C108.067 38.9383 108.061 38.9677 108.061 38.9978C108.061 39.0397 108.072 39.1003 108.057 39.1396C108.047 39.1657 108.054 39.1985 108.052 39.2261C108.045 39.2971 108.052 39.2431 108.061 39.2002C108.087 39.0809 108.112 38.9669 108.112 38.845C108.112 38.8044 108.1 38.7649 108.097 38.7238C108.097 38.7228 108.093 38.71 108.092 38.7123C108.072 38.7467 108.09 38.8394 108.09 38.8774C108.088 38.9898 108.076 39.0969 108.043 39.2047C108.035 39.2293 108.02 39.2419 108.015 39.2695C108.01 39.2936 108.009 39.3149 108.009 39.3395C108.009 39.3665 108.004 39.3981 108.011 39.4243C108.016 39.4454 108.016 39.38 108.016 39.3694C108.016 39.3418 108.031 39.3268 108.039 39.3014C108.042 39.2917 108.061 39.2251 108.061 39.2588C108.061 39.304 108.061 39.3492 108.061 39.3944C108.061 39.4063 108.063 39.422 108.059 39.4334C108.055 39.443 108.053 39.3752 108.053 39.3621C108.053 39.3396 108.05 39.3166 108.059 39.2957C108.068 39.273 108.08 39.2548 108.061 39.24" stroke="#956556" stroke-width="0.1" stroke-linecap="round"/>
<path d="M107.538 45.3567C107.538 45.3011 107.532 45.2426 107.538 45.1873C107.543 45.1419 107.574 45.1479 107.59 45.1091C107.603 45.0771 107.598 45.1824 107.58 45.212C107.552 45.2585 107.569 45.2245 107.569 45.1768C107.569 45.132 107.569 45.0919 107.586 45.0497C107.616 44.9729 107.622 44.9029 107.622 44.8204C107.622 44.7164 107.672 44.6339 107.685 44.5317C107.689 44.5014 107.686 44.4688 107.686 44.4382C107.686 44.3896 107.706 44.3487 107.707 44.3006C107.708 44.2625 107.728 44.2331 107.728 44.1924C107.728 44.1607 107.728 44.1289 107.728 44.0972C107.728 44.0079 107.76 43.9216 107.771 43.8332C107.784 43.7296 107.823 43.6367 107.823 43.5315C107.823 43.4445 107.812 43.3476 107.834 43.2634C107.853 43.1908 107.865 43.1268 107.866 43.0517C107.866 42.9939 107.879 42.9406 107.892 42.8847C107.901 42.8459 107.9 42.7965 107.919 42.7613C107.953 42.6971 107.929 42.5697 107.929 42.4984C107.929 42.3487 107.947 42.1991 107.992 42.0557C108.029 41.9378 108.003 41.7879 108.003 41.6629C108.003 41.5557 107.993 41.4508 107.993 41.343C107.993 41.2356 107.993 41.1282 107.993 41.0208C107.993 40.9073 108.025 40.8074 108.025 40.6956C108.025 40.6115 108.004 40.5067 108.027 40.4269C108.053 40.3366 108.022 40.2048 108.001 40.1129C107.978 40.0112 107.981 39.9079 107.966 39.8048C107.953 39.7203 107.952 39.6112 107.962 39.5255C107.967 39.4872 108.001 39.3548 108.025 39.4567C108.045 39.5396 108.046 39.6133 108.046 39.6995C108.046 39.7858 108.021 39.8616 108.009 39.9465C108 40.0027 107.973 40.0588 107.972 40.1153C107.97 40.1898 107.977 40.2641 107.961 40.3375C107.912 40.5643 107.887 40.772 107.887 41.0043C107.887 41.1074 107.887 40.7981 107.887 40.695C107.887 40.652 107.872 40.5718 107.944 40.6103C107.987 40.6333 107.987 40.7471 107.981 40.7909C107.978 40.8092 107.97 40.8566 107.95 40.8667C107.922 40.8815 107.917 40.7959 107.913 40.7838C107.89 40.6933 107.885 40.5799 107.906 40.488C107.921 40.4213 107.908 40.5332 107.908 40.5474C107.908 40.655 107.908 40.7626 107.908 40.8702C107.908 40.9706 107.911 41.0712 107.896 41.1707C107.882 41.2683 107.848 41.3664 107.845 41.4653C107.842 41.5344 107.846 41.604 107.85 41.6729C107.859 41.821 107.846 41.6055 107.842 41.5747C107.814 41.3249 107.834 41.0799 107.834 40.8297C107.834 40.7919 107.817 40.704 107.836 40.668C107.85 40.6438 107.883 40.6358 107.897 40.6103C107.906 40.593 107.929 40.5894 107.938 40.5727C107.948 40.5536 107.94 40.5152 107.94 40.4945C107.94 40.3114 107.929 40.8606 107.929 41.0437C107.929 41.2477 107.885 41.4382 107.847 41.637C107.814 41.8095 107.823 41.9828 107.823 42.158C107.823 42.1717 107.823 42.2128 107.823 42.1991C107.823 42.1353 107.822 42.0713 107.825 42.0074C107.829 41.8829 107.856 41.7619 107.876 41.6393C107.891 41.5493 107.921 41.4217 107.892 41.3312C107.888 41.3184 107.887 41.3578 107.887 41.3712C107.886 41.4637 107.887 41.5563 107.887 41.6488C107.887 41.7915 107.891 41.9187 107.913 42.0586C107.921 42.114 107.92 42.1714 107.919 42.2273C107.918 42.2616 107.899 42.2272 107.898 42.2121C107.882 42.0338 107.898 41.8478 107.898 41.6687C107.898 41.6303 107.898 41.5919 107.898 41.5535C107.898 41.5351 107.889 41.4817 107.898 41.4982C107.932 41.5675 107.938 41.6624 107.955 41.7375C107.972 41.8113 108.002 41.8665 107.99 41.9463C107.985 41.9812 107.96 42.004 107.945 42.0345C107.928 42.068 107.919 42.1036 107.908 42.1391C107.873 42.2535 107.886 42.366 107.876 42.4825C107.87 42.5466 107.844 42.6133 107.832 42.6766C107.813 42.77 107.8 42.8634 107.786 42.9576C107.775 43.0386 107.749 43.1119 107.749 43.194C107.749 43.2189 107.749 43.3261 107.749 43.3128C107.749 43.2505 107.749 43.1881 107.749 43.1258C107.749 43.0721 107.749 43.0184 107.749 42.9647C107.749 42.9086 107.786 43.0709 107.808 43.1223C107.809 43.125 107.841 43.1965 107.844 43.1658C107.852 43.0703 107.845 42.9712 107.845 42.8753C107.845 42.817 107.842 42.7673 107.829 42.7101C107.8 42.5872 107.813 42.7521 107.813 42.7942C107.812 42.9406 107.806 43.0845 107.776 43.2281C107.741 43.3931 107.703 43.557 107.672 43.7226C107.653 43.8218 107.665 43.9302 107.665 44.0313C107.665 44.0368 107.665 44.0533 107.665 44.0478C107.665 44.0194 107.665 43.991 107.665 43.9625C107.667 43.8604 107.687 43.7637 107.696 43.6632C107.697 43.6555 107.711 43.4798 107.749 43.5433C107.785 43.6028 107.76 43.7386 107.76 43.8067C107.76 43.9108 107.744 44.0019 107.702 44.0984C107.662 44.1922 107.618 44.2852 107.579 44.3794C107.535 44.4871 107.559 44.6276 107.559 44.7428C107.559 44.7805 107.547 44.8948 107.566 44.791C107.581 44.7088 107.627 44.6295 107.633 44.5464C107.633 44.5422 107.634 44.4999 107.628 44.5023C107.582 44.5205 107.652 44.6425 107.654 44.6664C107.657 44.7105 107.658 44.8434 107.654 44.7993C107.646 44.7071 107.627 44.6163 107.678 44.5347C107.72 44.4659 107.726 44.4162 107.741 44.3371C107.755 44.2627 107.745 44.186 107.761 44.1113C107.784 44.0039 107.845 43.9136 107.845 43.8002C107.845 43.6918 107.847 43.6018 107.876 43.4963C107.905 43.3908 107.908 43.2847 107.908 43.1764C107.908 43.0213 107.892 42.8587 107.909 42.7048C107.92 42.594 107.993 42.535 107.993 42.4255C107.993 42.3699 107.981 42.3264 107.974 42.272C107.958 42.1457 107.969 42.0051 107.98 41.8793C107.992 41.7314 107.967 41.5902 108.022 41.4512C108.051 41.3788 108.046 41.2904 108.046 41.2136C108.046 41.1025 108.046 40.9914 108.046 40.8802C108.046 40.7848 108.046 40.6893 108.046 40.5939C108.046 40.5591 108.015 40.5566 108.014 40.5304C108.01 40.4524 108.025 40.3749 108.025 40.2975C108.025 40.2677 108.004 40.237 107.995 40.2093C107.979 40.1618 107.987 40.126 108.003 40.0782C108.029 40.0044 108.016 40.1467 108.021 40.1682C108.032 40.2108 108.059 40.244 108.067 40.2875C108.081 40.3574 108.124 40.39 108.093 40.4581C108.063 40.5265 108.055 40.4849 108.037 40.4198C108.015 40.3365 108.014 40.2537 108.014 40.1682C108.014 39.9875 108.238 39.7361 108.088 39.5778C108.058 39.5459 108.075 39.5217 108.065 39.4826C108.059 39.4639 108.056 39.4857 108.055 39.4926C108.04 39.5769 108.025 39.6611 108.01 39.7454C108.001 39.8024 107.993 39.8567 107.993 39.9142C107.993 39.9629 107.97 40.0771 107.999 40.1182C108.01 40.1338 108.012 40.207 108.03 40.2123C108.081 40.2268 108.053 40.0866 108.057 40.0541C108.062 40.0085 108.088 39.9813 108.088 39.9353C108.088 39.8531 108.067 40.0989 108.067 40.1811C108.067 40.2967 108.074 39.9241 107.993 39.8424" stroke="#956556" stroke-width="0.1" stroke-linecap="round"/>
<path d="M51.5239 26.2332L61.9475 23.7451" stroke="black"/>
</svg>
