<svg width="124" height="124" viewBox="0 0 124 124" fill="none" xmlns="http://www.w3.org/2000/svg">
<g clip-path="url(#clip0_241_597)">
<path d="M17.6144 73.8575C22.2864 73.8575 26.7671 72.0016 30.0707 68.698C33.3742 65.3944 35.2302 60.9137 35.2302 56.2418C35.2302 51.5698 33.3742 47.0891 30.0707 43.7855C26.7671 40.4819 22.2864 38.626 17.6144 38.626C12.9414 38.626 8.4598 40.4823 5.15548 43.7867C1.85116 47.091 -0.00518799 51.5726 -0.00518799 56.2456C-0.00518799 60.9186 1.85116 65.4003 5.15548 68.7046C8.4598 72.0089 12.9414 73.8653 17.6144 73.8653V73.8575ZM90.9837 35.2315C95.6557 35.2315 100.136 33.3756 103.44 30.072C106.743 26.7684 108.599 22.2877 108.599 17.6158C108.599 12.9438 106.743 8.46313 103.44 5.15953C100.136 1.85594 95.6557 0 90.9837 0C86.3117 0 81.8311 1.85594 78.5275 5.15953C75.2239 8.46313 73.3679 12.9438 73.3679 17.6158C73.3679 22.2877 75.2239 26.7684 78.5275 30.072C81.8311 33.3756 86.3117 35.2315 90.9837 35.2315ZM57.3487 101.587C51.1227 100.268 45.268 97.5804 40.2082 93.7202C35.1483 89.86 31.0099 84.9231 28.0924 79.267C23.3785 81.4119 18.1205 82.061 13.0264 81.127C16.5487 89.8356 22.1563 97.5456 29.3562 103.579C36.5562 109.613 45.1281 113.786 54.3184 115.731C58.4259 116.607 62.6264 117.041 66.8269 117.017C63.5911 112.779 61.7839 107.623 61.6654 102.292C60.2163 102.125 58.7757 101.89 57.3487 101.587ZM87.0157 119.296C91.6877 119.296 96.1683 117.44 99.4719 114.136C102.775 110.833 104.631 106.352 104.631 101.68C104.631 97.008 102.775 92.5274 99.4719 89.2238C96.1683 85.9202 91.6877 84.0643 87.0157 84.0643C82.3437 84.0643 77.8631 85.9202 74.5595 89.2238C71.2559 92.5274 69.3999 97.008 69.3999 101.68C69.3999 106.352 71.2559 110.833 74.5595 114.136C77.8631 117.44 82.3437 119.296 87.0157 119.296ZM111.529 95.2088C119.078 85.6804 123.423 74.0097 123.942 61.8643C124.461 49.7189 121.128 37.7201 114.42 27.5823C112.377 32.3699 108.921 36.42 104.515 39.1918C108.04 45.8446 109.764 53.3037 109.515 60.8286C109.266 68.3535 107.054 75.6825 103.097 82.088C107.221 85.4629 110.172 90.0554 111.529 95.2088ZM16.2582 30.9845C21.427 30.7236 26.5533 32.0369 30.9599 34.751C34.8411 29.1391 40.0038 24.5331 46.0203 21.3146C52.0368 18.0961 58.7337 16.3579 65.5559 16.244C65.8427 11.0515 67.7027 6.06825 70.9034 1.96075C59.9823 1.1341 49.0508 3.42235 39.3781 8.5598C29.7054 13.6973 21.6885 21.4731 16.2582 30.9845Z" fill="black"/>
</g>
<defs>
<clipPath id="clip0_241_597">
<rect width="124" height="124" fill="white"/>
</clipPath>
</defs>
</svg>
