<svg width="1795" height="1101" viewBox="0 0 1795 1101" fill="none" xmlns="http://www.w3.org/2000/svg">
<g clip-path="url(#clip0_315_40)">
<g clip-path="url(#clip1_315_40)">
<path opacity="0.05" d="M0 616.56C299.167 113.77 598.333 91.7502 897.5 550.5C1196.67 1009.25 1495.83 1031.27 1795 616.56" stroke="url(#paint0_linear_315_40)" stroke-opacity="0.25" stroke-linecap="round"/>
<path opacity="0.11" d="M0 578.025C299.167 100.925 598.333 91.7503 897.5 550.5C1196.67 1009.25 1495.83 1018.43 1795 578.025" stroke="url(#paint1_linear_315_40)" stroke-opacity="0.25" stroke-linecap="round"/>
<path opacity="0.18" d="M0 539.49C299.167 88.0803 598.333 91.7503 897.5 550.5C1196.67 1009.25 1495.83 1005.58 1795 539.49" stroke="url(#paint2_linear_315_40)" stroke-opacity="0.25" stroke-linecap="round"/>
<path opacity="0.24" d="M0 500.955C299.167 75.2352 598.333 91.7502 897.5 550.5C1196.67 1009.25 1495.83 992.735 1795 500.955" stroke="url(#paint3_linear_315_40)" stroke-opacity="0.25" stroke-linecap="round"/>
<path opacity="0.3" d="M0 462.42C299.167 62.3903 598.333 91.7503 897.5 550.5C1196.67 1009.25 1495.83 979.89 1795 462.42" stroke="url(#paint4_linear_315_40)" stroke-opacity="0.25" stroke-linecap="round"/>
<path opacity="0.37" d="M0 423.885C299.167 49.5451 598.333 91.7501 897.5 550.5C1196.67 1009.25 1495.83 967.045 1795 423.885" stroke="url(#paint5_linear_315_40)" stroke-opacity="0.25" stroke-linecap="round"/>
<path opacity="0.43" d="M0 385.35C299.167 36.7002 598.333 91.7501 897.5 550.5C1196.67 1009.25 1495.83 954.2 1795 385.35" stroke="url(#paint6_linear_315_40)" stroke-opacity="0.25" stroke-linecap="round"/>
<path opacity="0.49" d="M0 346.815C299.167 23.8551 598.333 91.7501 897.5 550.5C1196.67 1009.25 1495.83 941.355 1795 346.815" stroke="url(#paint7_linear_315_40)" stroke-opacity="0.25" stroke-linecap="round"/>
<path opacity="0.56" d="M0 308.28C299.167 11.0103 598.333 91.7503 897.5 550.5C1196.67 1009.25 1495.83 928.51 1795 308.28" stroke="url(#paint8_linear_315_40)" stroke-opacity="0.25" stroke-linecap="round"/>
<path opacity="0.62" d="M0 269.745C299.167 -1.83492 598.333 91.75 897.5 550.5C1196.67 1009.25 1495.83 915.665 1795 269.745" stroke="url(#paint9_linear_315_40)" stroke-opacity="0.25" stroke-linecap="round"/>
<path opacity="0.68" d="M0 231.21C299.167 -14.68 598.333 91.75 897.5 550.5C1196.67 1009.25 1495.83 902.82 1795 231.21" stroke="url(#paint10_linear_315_40)" stroke-opacity="0.25" stroke-linecap="round"/>
<path opacity="0.75" d="M0 192.675C299.167 -27.5249 598.333 91.7501 897.5 550.5C1196.67 1009.25 1495.83 889.975 1795 192.675" stroke="url(#paint11_linear_315_40)" stroke-opacity="0.25" stroke-linecap="round"/>
<path opacity="0.81" d="M0 154.14C299.167 -40.37 598.333 91.7499 897.5 550.5C1196.67 1009.25 1495.83 877.13 1795 154.14" stroke="url(#paint12_linear_315_40)" stroke-opacity="0.25" stroke-linecap="round"/>
<path opacity="0.87" d="M0 115.605C299.167 -53.2148 598.333 91.7502 897.5 550.5C1196.67 1009.25 1495.83 864.285 1795 115.605" stroke="url(#paint13_linear_315_40)" stroke-opacity="0.25" stroke-linecap="round"/>
<path opacity="0.94" d="M0 77.0702C299.167 -66.0598 598.333 91.7502 897.5 550.5C1196.67 1009.25 1495.83 851.44 1795 77.0702" stroke="url(#paint14_linear_315_40)" stroke-opacity="0.25" stroke-linecap="round"/>
</g>
</g>
<defs>
<linearGradient id="paint0_linear_315_40" x1="897.5" y1="222.196" x2="897.5" y2="911.91" gradientUnits="userSpaceOnUse">
<stop stop-color="#5FB2FF"/>
<stop offset="0.5" stop-color="#5FB2FF"/>
<stop offset="1" stop-color="#C3045D"/>
</linearGradient>
<linearGradient id="paint1_linear_315_40" x1="897.5" y1="213.184" x2="897.5" y2="901.584" gradientUnits="userSpaceOnUse">
<stop stop-color="#5FB2FF"/>
<stop offset="0.5" stop-color="#5FB2FF"/>
<stop offset="1" stop-color="#C3045D"/>
</linearGradient>
<linearGradient id="paint2_linear_315_40" x1="897.5" y1="203.663" x2="897.5" y2="891.832" gradientUnits="userSpaceOnUse">
<stop stop-color="#5FB2FF"/>
<stop offset="0.5" stop-color="#5FB2FF"/>
<stop offset="1" stop-color="#C3045D"/>
</linearGradient>
<linearGradient id="paint3_linear_315_40" x1="897.5" y1="193.589" x2="897.5" y2="882.607" gradientUnits="userSpaceOnUse">
<stop stop-color="#5FB2FF"/>
<stop offset="0.5" stop-color="#5FB2FF"/>
<stop offset="1" stop-color="#C3045D"/>
</linearGradient>
<linearGradient id="paint4_linear_315_40" x1="897.5" y1="182.912" x2="897.5" y2="873.867" gradientUnits="userSpaceOnUse">
<stop stop-color="#5FB2FF"/>
<stop offset="0.5" stop-color="#5FB2FF"/>
<stop offset="1" stop-color="#C3045D"/>
</linearGradient>
<linearGradient id="paint5_linear_315_40" x1="897.5" y1="171.577" x2="897.5" y2="865.576" gradientUnits="userSpaceOnUse">
<stop stop-color="#5FB2FF"/>
<stop offset="0.5" stop-color="#5FB2FF"/>
<stop offset="1" stop-color="#C3045D"/>
</linearGradient>
<linearGradient id="paint6_linear_315_40" x1="897.5" y1="159.52" x2="897.5" y2="857.699" gradientUnits="userSpaceOnUse">
<stop stop-color="#5FB2FF"/>
<stop offset="0.5" stop-color="#5FB2FF"/>
<stop offset="1" stop-color="#C3045D"/>
</linearGradient>
<linearGradient id="paint7_linear_315_40" x1="897.5" y1="146.671" x2="897.5" y2="850.206" gradientUnits="userSpaceOnUse">
<stop stop-color="#5FB2FF"/>
<stop offset="0.5" stop-color="#5FB2FF"/>
<stop offset="1" stop-color="#C3045D"/>
</linearGradient>
<linearGradient id="paint8_linear_315_40" x1="897.5" y1="132.949" x2="897.5" y2="843.07" gradientUnits="userSpaceOnUse">
<stop stop-color="#5FB2FF"/>
<stop offset="0.5" stop-color="#5FB2FF"/>
<stop offset="1" stop-color="#C3045D"/>
</linearGradient>
<linearGradient id="paint9_linear_315_40" x1="897.5" y1="118.261" x2="897.5" y2="836.266" gradientUnits="userSpaceOnUse">
<stop stop-color="#5FB2FF"/>
<stop offset="0.5" stop-color="#5FB2FF"/>
<stop offset="1" stop-color="#C3045D"/>
</linearGradient>
<linearGradient id="paint10_linear_315_40" x1="897.5" y1="102.502" x2="897.5" y2="829.772" gradientUnits="userSpaceOnUse">
<stop stop-color="#5FB2FF"/>
<stop offset="0.5" stop-color="#5FB2FF"/>
<stop offset="1" stop-color="#C3045D"/>
</linearGradient>
<linearGradient id="paint11_linear_315_40" x1="897.5" y1="85.5508" x2="897.5" y2="823.566" gradientUnits="userSpaceOnUse">
<stop stop-color="#5FB2FF"/>
<stop offset="0.5" stop-color="#5FB2FF"/>
<stop offset="1" stop-color="#C3045D"/>
</linearGradient>
<linearGradient id="paint12_linear_315_40" x1="897.5" y1="67.2661" x2="897.5" y2="817.629" gradientUnits="userSpaceOnUse">
<stop stop-color="#5FB2FF"/>
<stop offset="0.5" stop-color="#5FB2FF"/>
<stop offset="1" stop-color="#C3045D"/>
</linearGradient>
<linearGradient id="paint13_linear_315_40" x1="897.5" y1="47.4849" x2="897.5" y2="811.946" gradientUnits="userSpaceOnUse">
<stop stop-color="#5FB2FF"/>
<stop offset="0.5" stop-color="#5FB2FF"/>
<stop offset="1" stop-color="#C3045D"/>
</linearGradient>
<linearGradient id="paint14_linear_315_40" x1="897.5" y1="26.0146" x2="897.5" y2="806.499" gradientUnits="userSpaceOnUse">
<stop stop-color="#5FB2FF"/>
<stop offset="0.5" stop-color="#5FB2FF"/>
<stop offset="1" stop-color="#C3045D"/>
</linearGradient>
<clipPath id="clip0_315_40">
<rect width="1795" height="1101" fill="white"/>
</clipPath>
<clipPath id="clip1_315_40">
<rect width="1795" height="1101" fill="white"/>
</clipPath>
</defs>
</svg>
