<svg xmlns="http://www.w3.org/2000/svg" xmlns:xlink="http://www.w3.org/1999/xlink" width="500" zoomAndPan="magnify" viewBox="0 0 375 374.999991" height="500" preserveAspectRatio="xMidYMid meet" version="1.0"><defs><clipPath id="a92ead594c"><path d="M 1 134.582031 L 375 134.582031 L 375 251.582031 L 1 251.582031 Z M 1 134.582031 " clip-rule="nonzero"/></clipPath><clipPath id="0ba4b6fdce"><path d="M 97.6875 103.40625 L 276.9375 103.40625 L 276.9375 282.65625 L 97.6875 282.65625 Z M 97.6875 103.40625 " clip-rule="nonzero"/></clipPath><clipPath id="6684a15208"><path d="M 102.464844 108.179688 L 272.714844 108.179688 L 272.714844 278.429688 L 102.464844 278.429688 Z M 102.464844 108.179688 " clip-rule="nonzero"/></clipPath><clipPath id="31be38447f"><path d="M 4 135.566406 L 372 135.566406 L 372 251 L 4 251 Z M 4 135.566406 " clip-rule="nonzero"/></clipPath><clipPath id="332a5902d0"><path d="M 106.96875 112.683594 L 268.21875 112.683594 L 268.21875 273.933594 L 106.96875 273.933594 Z M 106.96875 112.683594 " clip-rule="nonzero"/></clipPath><clipPath id="463455bf25"><path d="M 9 136.949219 L 367 136.949219 L 367 249.449219 L 9 249.449219 Z M 9 136.949219 " clip-rule="nonzero"/></clipPath><clipPath id="b4cf322cce"><path d="M 23 141.539062 L 353 141.539062 L 353 245 L 23 245 Z M 23 141.539062 " clip-rule="nonzero"/></clipPath><clipPath id="b74abe6e50"><path d="M 26 142.410156 L 349.785156 142.410156 L 349.785156 243.660156 L 26 243.660156 Z M 26 142.410156 " clip-rule="nonzero"/></clipPath><clipPath id="cf9ea702a5"><path d="M 30 143.625 L 346 143.625 L 346 242.625 L 30 242.625 Z M 30 143.625 " clip-rule="nonzero"/></clipPath></defs><g clip-path="url(#a92ead594c)"><path fill="#ffffff" d="M 162.121094 135.890625 C 162.683594 135.773438 163.238281 135.574219 163.800781 135.566406 C 169.183594 135.519531 174.578125 135.535156 179.964844 135.472656 C 182.40625 135.445312 184.855469 135.226562 187.300781 135.179688 C 191.214844 135.113281 195.128906 135.128906 199.042969 135.097656 C 199.859375 135.089844 200.675781 135.035156 201.492188 135.027344 C 206.039062 134.996094 210.585938 135.011719 215.128906 134.933594 C 218.535156 134.875 221.949219 134.613281 225.355469 134.605469 C 228.160156 134.597656 230.972656 134.867188 233.777344 134.941406 C 236.789062 135.019531 239.800781 134.925781 242.804688 135.058594 C 249.925781 135.359375 257.050781 135.652344 264.164062 136.128906 C 270.992188 136.582031 277.847656 136.9375 284.605469 137.933594 C 292.8125 139.140625 301.09375 139.929688 309.152344 142.117188 C 314.609375 143.59375 320.226562 144.503906 325.617188 146.152344 C 331.359375 147.910156 336.960938 150.160156 342.546875 152.371094 C 345.667969 153.613281 348.78125 155 351.660156 156.703125 C 355.808594 159.160156 359.828125 161.792969 363.449219 165.078125 C 366.972656 168.265625 369.769531 171.894531 371.902344 176.085938 C 373.550781 179.316406 374.578125 182.714844 374.089844 186.382812 C 373.621094 189.910156 372.640625 193.207031 370.539062 196.234375 C 366.417969 202.160156 361.101562 206.667969 355.285156 210.835938 C 348.078125 215.992188 340.171875 219.710938 332.113281 223.164062 C 327.53125 225.128906 322.746094 226.648438 318.015625 228.265625 C 313.285156 229.882812 308.550781 231.484375 303.753906 232.871094 C 299.730469 234.035156 295.617188 234.859375 291.546875 235.871094 C 290.40625 236.15625 289.304688 236.625 288.15625 236.894531 C 283.582031 237.964844 279.011719 239.121094 274.398438 240 C 268.765625 241.070312 263.085938 241.878906 257.429688 242.851562 C 255.09375 243.25 252.800781 243.867188 250.464844 244.207031 C 247.429688 244.644531 244.355469 244.816406 241.320312 245.246094 C 237.976562 245.726562 234.675781 246.496094 231.332031 246.917969 C 227.820312 247.367188 224.277344 247.527344 220.746094 247.867188 C 219.574219 247.972656 218.433594 248.3125 217.265625 248.414062 C 210.453125 249 203.632812 249.609375 196.816406 250.078125 C 190.714844 250.5 184.601562 250.765625 178.5 251.070312 C 174.601562 251.273438 170.710938 251.511719 166.8125 251.574219 C 160.15625 251.679688 153.492188 251.882812 146.847656 251.617188 C 142.878906 251.464844 138.929688 251.582031 134.976562 251.480469 C 132.253906 251.402344 129.542969 251.054688 126.816406 250.878906 C 124.945312 250.757812 123.054688 250.71875 121.183594 250.671875 C 120.097656 250.640625 118.988281 250.824219 117.933594 250.65625 C 113.75 249.984375 109.511719 250.339844 105.320312 249.832031 C 101.066406 249.316406 96.8125 248.890625 92.550781 248.421875 C 90.03125 248.144531 87.496094 247.929688 84.984375 247.535156 C 80.417969 246.820312 75.894531 245.761719 71.300781 245.277344 C 67.363281 244.863281 63.636719 243.707031 59.828125 242.8125 C 54.988281 241.679688 50.128906 240.648438 45.335938 239.351562 C 42.484375 238.582031 39.742188 237.378906 36.945312 236.394531 C 36.257812 236.15625 35.550781 235.984375 34.847656 235.800781 C 34.0625 235.59375 33.207031 235.53125 32.492188 235.191406 C 28.953125 233.542969 25.402344 231.925781 21.957031 230.089844 C 18.546875 228.273438 15.285156 226.261719 12.421875 223.527344 C 10.449219 221.648438 8.296875 219.96875 6.585938 217.816406 C 1.109375 210.9375 0.40625 203.300781 3.835938 195.480469 C 5.054688 192.699219 6.558594 189.761719 9.199219 187.699219 C 10.59375 186.613281 11.480469 184.894531 12.765625 183.636719 C 17.359375 179.167969 22.445312 175.355469 28.214844 172.511719 C 28.707031 172.273438 29.171875 171.972656 29.648438 171.703125 C 32.9375 169.824219 36.183594 167.859375 39.535156 166.085938 C 41.523438 165.03125 43.640625 164.222656 45.738281 163.390625 C 49.703125 161.808594 53.65625 160.191406 57.679688 158.773438 C 62.0625 157.226562 66.507812 155.847656 70.945312 154.476562 C 73.789062 153.597656 76.664062 152.796875 79.554688 152.070312 C 80.777344 151.761719 82.105469 151.824219 83.335938 151.53125 C 86.886719 150.699219 90.386719 149.667969 93.953125 148.925781 C 98.238281 148.035156 102.566406 147.355469 106.875 146.609375 C 109.117188 146.222656 111.367188 145.851562 113.625 145.535156 C 119.210938 144.75 124.789062 143.902344 130.398438 143.273438 C 136.746094 142.554688 143.105469 141.960938 149.476562 141.460938 C 155.09375 141.023438 160.71875 140.769531 166.34375 140.453125 C 166.941406 140.421875 167.542969 140.511719 168.253906 141.03125 C 167.011719 141.398438 165.804688 141.898438 164.539062 142.125 C 154.921875 143.863281 145.285156 145.5 135.667969 147.269531 C 130.644531 148.195312 125.675781 149.367188 120.667969 150.359375 C 118.355469 150.824219 116.011719 151.117188 113.6875 151.523438 C 112.976562 151.648438 112.292969 151.925781 111.582031 152.070312 C 109.894531 152.433594 108.199219 152.71875 106.519531 153.101562 C 105.019531 153.449219 103.546875 153.90625 102.050781 154.273438 C 98.152344 155.230469 94.183594 155.953125 90.378906 157.164062 C 87.496094 158.082031 84.429688 158.417969 81.695312 159.429688 C 77.082031 161.132812 72.320312 162.21875 67.695312 163.78125 C 64.953125 164.707031 62.277344 165.855469 59.558594 166.855469 C 55.828125 168.226562 52.039062 169.4375 48.371094 170.949219 C 46.207031 171.84375 44.289062 173.304688 42.152344 174.300781 C 37.90625 176.28125 33.625 178.175781 29.679688 180.726562 C 27.777344 181.957031 26.050781 183.460938 24.171875 184.722656 C 20.101562 187.46875 17.136719 191.359375 13.683594 194.75 C 12.527344 195.890625 11.917969 197.714844 11.386719 199.332031 C 9.046875 206.4375 11.25 212.394531 17.304688 216.746094 C 18.914062 217.902344 20.09375 219.527344 22.035156 220.34375 C 24.6875 221.460938 27.183594 222.933594 29.734375 224.28125 C 30.679688 224.78125 31.519531 225.53125 32.507812 225.898438 C 35.636719 227.0625 38.800781 228.117188 41.96875 229.167969 C 46.445312 230.652344 50.921875 232.164062 55.4375 233.519531 C 57.839844 234.246094 60.320312 234.730469 62.796875 235.191406 C 66.109375 235.816406 69.453125 236.332031 72.78125 236.878906 C 77.074219 237.582031 81.386719 238.179688 85.664062 239 C 89.121094 239.660156 92.605469 240.023438 96.113281 240.292969 C 96.820312 240.347656 97.519531 240.601562 98.222656 240.769531 C 98.753906 240.902344 99.300781 241.195312 99.808594 241.140625 C 104.941406 240.617188 109.941406 241.679688 114.972656 242.367188 C 115.875 242.488281 116.808594 242.417969 117.722656 242.472656 C 121.636719 242.695312 125.542969 243.011719 129.457031 243.144531 C 132.523438 243.25 135.605469 243.089844 138.671875 243.152344 C 141.855469 243.214844 145.03125 243.46875 148.210938 243.511719 C 151.585938 243.558594 154.960938 243.453125 158.34375 243.4375 C 160.355469 243.429688 162.367188 243.382812 164.378906 243.503906 C 168.191406 243.738281 171.96875 243.484375 175.78125 243.207031 C 180.933594 242.828125 186.136719 243.105469 191.304688 242.921875 C 194.566406 242.804688 197.816406 242.296875 201.074219 242.042969 C 203.695312 241.839844 206.324219 241.757812 208.941406 241.617188 C 210.652344 241.527344 212.371094 241.488281 214.066406 241.316406 C 219.328125 240.777344 224.589844 240.199219 229.855469 239.589844 C 234.015625 239.105469 238.167969 238.480469 242.335938 238.042969 C 247.660156 237.480469 252.945312 236.773438 258.199219 235.722656 C 261.230469 235.113281 264.3125 234.800781 267.355469 234.238281 C 271.476562 233.464844 275.582031 232.632812 279.675781 231.738281 C 285.082031 230.5625 290.5 229.429688 295.855469 228.050781 C 301.496094 226.601562 307.097656 224.960938 312.675781 223.265625 C 322.460938 220.296875 331.976562 216.554688 341.167969 212.125 C 348.980469 208.363281 356.40625 203.863281 362.496094 197.539062 C 365.515625 194.394531 367.828125 190.671875 368.3125 186.304688 C 368.699219 182.851562 367.917969 179.371094 366.023438 176.339844 C 361.996094 169.921875 356.339844 165.207031 349.765625 161.617188 C 345.050781 159.035156 340.273438 156.492188 335.289062 154.527344 C 329.617188 152.292969 323.699219 150.660156 317.859375 148.875 C 315.007812 148.003906 312.089844 147.355469 309.183594 146.675781 C 302.867188 145.214844 296.578125 143.695312 290.082031 143.078125 C 284.542969 142.554688 279.042969 141.578125 273.519531 140.882812 C 270.34375 140.484375 267.144531 140.242188 263.964844 139.949219 C 258.246094 139.433594 252.539062 138.820312 246.8125 138.472656 C 242.183594 138.195312 237.527344 138.277344 232.890625 138.179688 C 226.046875 138.03125 219.199219 137.808594 212.355469 137.707031 C 205.351562 137.609375 198.339844 137.65625 191.335938 137.554688 C 183.855469 137.445312 176.367188 137.238281 168.886719 137.085938 C 167.367188 137.054688 165.832031 137.117188 164.324219 137.015625 C 163.566406 136.960938 162.828125 136.628906 162.082031 136.429688 C 162.089844 136.246094 162.105469 136.066406 162.121094 135.890625 Z M 162.121094 135.890625 " fill-opacity="1" fill-rule="nonzero"/></g><g clip-path="url(#0ba4b6fdce)"><path fill="#ffffff" d="M 187.496094 283.019531 C 137.878906 283.019531 97.6875 242.550781 97.6875 193.210938 C 97.6875 143.871094 137.878906 103.40625 187.496094 103.40625 C 237.109375 103.40625 277.300781 143.597656 277.300781 193.210938 C 277.300781 242.828125 236.832031 283.019531 187.496094 283.019531 Z M 187.496094 108.949219 C 140.929688 108.949219 103.230469 146.644531 103.230469 193.210938 C 103.230469 239.777344 140.929688 277.472656 187.496094 277.472656 C 234.0625 277.472656 271.757812 239.777344 271.757812 193.210938 C 271.757812 146.644531 233.785156 108.949219 187.496094 108.949219 Z M 187.496094 108.949219 " fill-opacity="1" fill-rule="nonzero"/></g><g clip-path="url(#6684a15208)"><path fill="#ffffff" d="M 187.496094 278.242188 C 140.515625 278.242188 102.464844 239.925781 102.464844 193.210938 C 102.464844 146.496094 140.515625 108.179688 187.496094 108.179688 C 234.472656 108.179688 272.527344 146.234375 272.527344 193.210938 C 272.527344 240.1875 234.207031 278.242188 187.496094 278.242188 Z M 187.496094 113.429688 C 143.402344 113.429688 107.710938 149.121094 107.710938 193.210938 C 107.710938 237.300781 143.402344 272.992188 187.496094 272.992188 C 231.585938 272.992188 267.277344 237.300781 267.277344 193.210938 C 267.277344 149.121094 231.320312 113.429688 187.496094 113.429688 Z M 187.496094 113.429688 " fill-opacity="1" fill-rule="nonzero"/></g><g clip-path="url(#31be38447f)"><path fill="#ffffff" d="M 162.546875 136.855469 C 163.097656 136.742188 163.644531 136.542969 164.195312 136.535156 C 169.492188 136.492188 174.792969 136.507812 180.089844 136.445312 C 182.488281 136.414062 184.898438 136.203125 187.300781 136.15625 C 191.148438 136.089844 194.996094 136.105469 198.84375 136.074219 C 199.648438 136.066406 200.449219 136.015625 201.253906 136.007812 C 205.722656 135.976562 210.191406 135.992188 214.660156 135.914062 C 218.007812 135.855469 221.363281 135.597656 224.710938 135.589844 C 227.46875 135.582031 230.234375 135.847656 232.992188 135.921875 C 235.953125 136 238.914062 135.90625 241.867188 136.035156 C 248.867188 136.332031 255.875 136.621094 262.867188 137.089844 C 269.578125 137.535156 276.320312 137.886719 282.960938 138.863281 C 291.03125 140.050781 299.171875 140.824219 307.097656 142.976562 C 312.460938 144.429688 317.980469 145.324219 323.285156 146.945312 C 328.925781 148.671875 334.433594 150.882812 339.925781 153.058594 C 342.992188 154.277344 346.054688 155.640625 348.886719 157.316406 C 352.960938 159.730469 356.914062 162.320312 360.476562 165.546875 C 363.9375 168.683594 366.6875 172.253906 368.785156 176.371094 C 370.40625 179.546875 371.414062 182.886719 370.9375 186.492188 C 370.476562 189.960938 369.511719 193.203125 367.445312 196.179688 C 363.390625 202.007812 358.164062 206.4375 352.445312 210.535156 C 345.363281 215.601562 337.59375 219.261719 329.667969 222.65625 C 325.160156 224.585938 320.457031 226.078125 315.808594 227.667969 C 311.15625 229.261719 306.503906 230.835938 301.785156 232.199219 C 297.832031 233.34375 293.785156 234.152344 289.789062 235.144531 C 288.667969 235.425781 287.582031 235.886719 286.453125 236.152344 C 281.957031 237.207031 277.464844 238.34375 272.925781 239.207031 C 267.390625 240.257812 261.804688 241.054688 256.246094 242.007812 C 253.949219 242.402344 251.695312 243.007812 249.398438 243.34375 C 246.414062 243.773438 243.390625 243.941406 240.40625 244.363281 C 237.121094 244.835938 233.878906 245.589844 230.589844 246.007812 C 227.136719 246.449219 223.652344 246.605469 220.183594 246.941406 C 219.03125 247.046875 217.910156 247.378906 216.757812 247.476562 C 210.0625 248.054688 203.359375 248.652344 196.65625 249.113281 C 190.65625 249.53125 184.648438 249.789062 178.648438 250.089844 C 174.816406 250.289062 170.992188 250.523438 167.160156 250.582031 C 160.613281 250.691406 154.0625 250.886719 147.53125 250.628906 C 143.632812 250.476562 139.746094 250.589844 135.859375 250.492188 C 133.183594 250.417969 130.519531 250.074219 127.835938 249.902344 C 125.996094 249.78125 124.140625 249.742188 122.300781 249.699219 C 121.230469 249.667969 120.140625 249.847656 119.105469 249.683594 C 114.992188 249.023438 110.824219 249.371094 106.703125 248.871094 C 102.523438 248.363281 98.339844 247.949219 94.152344 247.484375 C 91.675781 247.210938 89.183594 247 86.714844 246.613281 C 82.222656 245.910156 77.773438 244.871094 73.261719 244.394531 C 69.390625 243.984375 65.722656 242.851562 61.980469 241.972656 C 57.226562 240.859375 52.445312 239.84375 47.734375 238.570312 C 44.929688 237.8125 42.234375 236.628906 39.484375 235.660156 C 38.808594 235.425781 38.113281 235.261719 37.425781 235.078125 C 36.652344 234.875 35.8125 234.8125 35.105469 234.480469 C 31.628906 232.859375 28.136719 231.269531 24.75 229.464844 C 21.394531 227.675781 18.191406 225.699219 15.375 223.011719 C 13.433594 221.164062 11.320312 219.511719 9.640625 217.398438 C 4.253906 210.632812 3.566406 203.128906 6.933594 195.4375 C 8.132812 192.703125 9.609375 189.816406 12.207031 187.789062 C 13.578125 186.71875 14.449219 185.03125 15.714844 183.796875 C 20.230469 179.402344 25.230469 175.652344 30.902344 172.859375 C 31.386719 172.625 31.839844 172.328125 32.3125 172.0625 C 35.546875 170.214844 38.734375 168.28125 42.03125 166.539062 C 43.984375 165.503906 46.066406 164.707031 48.128906 163.890625 C 52.027344 162.335938 55.914062 160.746094 59.867188 159.351562 C 64.179688 157.828125 68.550781 156.472656 72.914062 155.125 C 75.707031 154.261719 78.53125 153.472656 81.375 152.761719 C 82.578125 152.460938 83.878906 152.519531 85.09375 152.230469 C 88.585938 151.414062 92.023438 150.398438 95.53125 149.671875 C 99.742188 148.792969 104 148.125 108.234375 147.390625 C 110.4375 147.011719 112.648438 146.648438 114.871094 146.339844 C 120.359375 145.566406 125.84375 144.734375 131.359375 144.113281 C 137.601562 143.40625 143.851562 142.824219 150.113281 142.332031 C 155.636719 141.898438 161.167969 141.648438 166.695312 141.339844 C 167.289062 141.308594 167.878906 141.398438 168.574219 141.90625 C 167.355469 142.269531 166.167969 142.761719 164.925781 142.984375 C 155.46875 144.695312 145.996094 146.300781 136.539062 148.042969 C 131.601562 148.953125 126.714844 150.101562 121.792969 151.082031 C 119.519531 151.535156 117.21875 151.824219 114.929688 152.222656 C 114.234375 152.34375 113.558594 152.617188 112.863281 152.761719 C 111.203125 153.117188 109.535156 153.398438 107.886719 153.777344 C 106.410156 154.117188 104.960938 154.566406 103.492188 154.929688 C 99.660156 155.867188 95.757812 156.578125 92.015625 157.769531 C 89.183594 158.671875 86.167969 159.003906 83.480469 159.996094 C 78.941406 161.671875 74.261719 162.738281 69.714844 164.277344 C 67.019531 165.183594 64.390625 166.3125 61.714844 167.296875 C 58.050781 168.648438 54.324219 169.835938 50.71875 171.320312 C 48.589844 172.199219 46.703125 173.636719 44.605469 174.617188 C 40.429688 176.5625 36.21875 178.425781 32.339844 180.933594 C 30.46875 182.144531 28.773438 183.621094 26.925781 184.863281 C 22.925781 187.5625 20.007812 191.386719 16.617188 194.71875 C 15.480469 195.839844 14.882812 197.636719 14.359375 199.226562 C 12.054688 206.210938 14.222656 212.066406 20.175781 216.34375 C 21.757812 217.480469 22.917969 219.078125 24.828125 219.882812 C 27.433594 220.980469 29.886719 222.429688 32.394531 223.753906 C 33.328125 224.246094 34.152344 224.980469 35.121094 225.34375 C 38.195312 226.488281 41.308594 227.527344 44.421875 228.554688 C 48.824219 230.019531 53.226562 231.503906 57.664062 232.835938 C 60.027344 233.546875 62.464844 234.023438 64.898438 234.480469 C 68.15625 235.09375 71.441406 235.601562 74.714844 236.136719 C 78.933594 236.828125 83.175781 237.417969 87.378906 238.222656 C 90.78125 238.871094 94.207031 239.230469 97.652344 239.492188 C 98.347656 239.546875 99.039062 239.796875 99.726562 239.964844 C 100.25 240.09375 100.789062 240.378906 101.289062 240.328125 C 106.332031 239.8125 111.25 240.859375 116.195312 241.53125 C 117.082031 241.652344 117.996094 241.585938 118.898438 241.636719 C 122.746094 241.859375 126.585938 242.167969 130.4375 242.296875 C 133.449219 242.402344 136.480469 242.242188 139.496094 242.304688 C 142.625 242.363281 145.746094 242.613281 148.871094 242.660156 C 152.191406 242.707031 155.507812 242.601562 158.832031 242.585938 C 160.8125 242.578125 162.789062 242.53125 164.765625 242.652344 C 168.515625 242.878906 172.226562 242.628906 175.976562 242.355469 C 181.042969 241.984375 186.15625 242.257812 191.238281 242.078125 C 194.441406 241.964844 197.640625 241.464844 200.84375 241.214844 C 203.417969 241.015625 206.003906 240.933594 208.578125 240.796875 C 210.257812 240.707031 211.949219 240.667969 213.613281 240.5 C 218.789062 239.972656 223.960938 239.402344 229.136719 238.804688 C 233.226562 238.328125 237.308594 237.714844 241.40625 237.28125 C 246.640625 236.730469 251.835938 236.03125 257.003906 235.003906 C 259.980469 234.402344 263.011719 234.09375 266.003906 233.539062 C 270.054688 232.78125 274.09375 231.964844 278.113281 231.085938 C 283.433594 229.925781 288.757812 228.8125 294.023438 227.457031 C 299.566406 226.035156 305.074219 224.421875 310.558594 222.753906 C 320.179688 219.835938 329.53125 216.15625 338.570312 211.800781 C 346.25 208.105469 353.550781 203.679688 359.535156 197.460938 C 362.507812 194.371094 364.777344 190.710938 365.253906 186.417969 C 365.632812 183.023438 364.871094 179.601562 363.007812 176.621094 C 359.042969 170.3125 353.484375 165.675781 347.023438 162.148438 C 342.386719 159.609375 337.691406 157.109375 332.789062 155.179688 C 327.214844 152.980469 321.398438 151.375 315.65625 149.617188 C 312.851562 148.761719 309.980469 148.125 307.125 147.460938 C 300.914062 146.019531 294.734375 144.527344 288.347656 143.921875 C 282.902344 143.40625 277.492188 142.445312 272.0625 141.761719 C 268.941406 141.371094 265.796875 141.136719 262.667969 140.847656 C 257.050781 140.339844 251.4375 139.734375 245.808594 139.394531 C 241.253906 139.121094 236.679688 139.203125 232.121094 139.105469 C 225.394531 138.960938 218.660156 138.742188 211.933594 138.644531 C 205.046875 138.542969 198.15625 138.589844 191.269531 138.492188 C 183.914062 138.386719 176.550781 138.179688 169.195312 138.027344 C 167.703125 138 166.195312 138.058594 164.710938 137.960938 C 163.96875 137.90625 163.242188 137.582031 162.507812 137.386719 C 162.515625 137.203125 162.53125 137.027344 162.546875 136.855469 Z M 162.546875 136.855469 " fill-opacity="1" fill-rule="nonzero"/></g><g clip-path="url(#332a5902d0)"><path fill="#ffffff" d="M 187.5 273.746094 C 143.007812 273.746094 106.96875 237.457031 106.96875 193.214844 C 106.96875 148.972656 143.007812 112.683594 187.5 112.683594 C 231.988281 112.683594 268.03125 148.722656 268.03125 193.214844 C 268.03125 237.707031 231.742188 273.746094 187.5 273.746094 Z M 187.5 117.65625 C 145.742188 117.65625 111.9375 151.457031 111.9375 193.214844 C 111.9375 234.972656 145.742188 268.777344 187.5 268.777344 C 229.253906 268.777344 263.058594 234.972656 263.058594 193.214844 C 263.058594 151.457031 229.007812 117.65625 187.5 117.65625 Z M 187.5 117.65625 " fill-opacity="1" fill-rule="nonzero"/></g><g clip-path="url(#463455bf25)"><path fill="#ffffff" d="M 163.140625 138.207031 C 163.679688 138.09375 164.210938 137.902344 164.75 137.894531 C 169.917969 137.851562 175.09375 137.863281 180.265625 137.804688 C 182.609375 137.777344 184.957031 137.570312 187.304688 137.523438 C 191.058594 137.457031 194.816406 137.472656 198.570312 137.445312 C 199.355469 137.4375 200.136719 137.382812 200.921875 137.378906 C 205.285156 137.347656 209.648438 137.363281 214.007812 137.289062 C 217.277344 137.230469 220.554688 136.976562 223.820312 136.96875 C 226.511719 136.964844 229.210938 137.222656 231.902344 137.296875 C 234.792969 137.371094 237.683594 137.28125 240.570312 137.40625 C 247.398438 137.695312 254.238281 137.976562 261.0625 138.433594 C 267.617188 138.871094 274.195312 139.210938 280.679688 140.164062 C 288.554688 141.324219 296.503906 142.078125 304.238281 144.179688 C 309.472656 145.597656 314.863281 146.472656 320.039062 148.054688 C 325.546875 149.738281 330.921875 151.898438 336.28125 154.019531 C 339.277344 155.210938 342.265625 156.542969 345.03125 158.175781 C 349.007812 160.535156 352.867188 163.0625 356.34375 166.214844 C 359.722656 169.273438 362.40625 172.757812 364.453125 176.777344 C 366.035156 179.878906 367.019531 183.136719 366.554688 186.65625 C 366.101562 190.042969 365.164062 193.207031 363.144531 196.113281 C 359.1875 201.800781 354.085938 206.125 348.503906 210.125 C 341.589844 215.070312 334.003906 218.644531 326.269531 221.957031 C 321.871094 223.839844 317.28125 225.296875 312.742188 226.851562 C 308.199219 228.402344 303.660156 229.941406 299.054688 231.273438 C 295.195312 232.390625 291.246094 233.179688 287.34375 234.148438 C 286.246094 234.421875 285.191406 234.875 284.089844 235.132812 C 279.695312 236.160156 275.3125 237.269531 270.882812 238.113281 C 265.476562 239.140625 260.027344 239.914062 254.601562 240.847656 C 252.363281 241.230469 250.160156 241.824219 247.917969 242.148438 C 245.003906 242.570312 242.054688 242.734375 239.140625 243.148438 C 235.933594 243.605469 232.769531 244.34375 229.558594 244.75 C 226.1875 245.179688 222.785156 245.335938 219.398438 245.660156 C 218.277344 245.765625 217.179688 246.089844 216.058594 246.1875 C 209.523438 246.746094 202.976562 247.332031 196.433594 247.78125 C 190.578125 248.191406 184.714844 248.441406 178.859375 248.738281 C 175.117188 248.929688 171.382812 249.15625 167.640625 249.21875 C 161.253906 249.320312 154.859375 249.511719 148.484375 249.261719 C 144.675781 249.113281 140.882812 249.226562 137.089844 249.128906 C 134.480469 249.054688 131.878906 248.722656 129.261719 248.550781 C 127.464844 248.433594 125.652344 248.398438 123.855469 248.351562 C 122.8125 248.324219 121.75 248.5 120.734375 248.335938 C 116.71875 247.695312 112.652344 248.035156 108.632812 247.546875 C 104.550781 247.050781 100.46875 246.644531 96.378906 246.191406 C 93.960938 245.925781 91.53125 245.71875 89.121094 245.34375 C 84.734375 244.65625 80.394531 243.640625 75.988281 243.175781 C 72.210938 242.777344 68.628906 241.667969 64.976562 240.808594 C 60.335938 239.722656 55.667969 238.734375 51.070312 237.492188 C 48.335938 236.75 45.703125 235.597656 43.019531 234.652344 C 42.359375 234.421875 41.679688 234.257812 41.007812 234.082031 C 40.253906 233.882812 39.433594 233.824219 38.746094 233.496094 C 35.351562 231.914062 31.941406 230.363281 28.636719 228.601562 C 25.363281 226.859375 22.234375 224.929688 19.484375 222.304688 C 17.589844 220.5 15.527344 218.886719 13.886719 216.824219 C 8.628906 210.222656 7.957031 202.894531 11.246094 195.390625 C 12.414062 192.71875 13.855469 189.902344 16.394531 187.921875 C 17.730469 186.878906 18.582031 185.230469 19.816406 184.023438 C 24.222656 179.738281 29.101562 176.078125 34.640625 173.347656 C 35.113281 173.121094 35.558594 172.832031 36.015625 172.570312 C 39.171875 170.769531 42.285156 168.882812 45.503906 167.183594 C 47.410156 166.167969 49.445312 165.394531 51.453125 164.59375 C 55.261719 163.078125 59.054688 161.527344 62.914062 160.164062 C 67.121094 158.679688 71.386719 157.355469 75.648438 156.039062 C 78.375 155.195312 81.132812 154.425781 83.90625 153.734375 C 85.082031 153.4375 86.355469 153.496094 87.535156 153.214844 C 90.945312 152.417969 94.300781 151.425781 97.726562 150.714844 C 101.835938 149.859375 105.992188 149.207031 110.125 148.492188 C 112.277344 148.121094 114.4375 147.765625 116.601562 147.460938 C 121.964844 146.707031 127.316406 145.894531 132.699219 145.289062 C 138.792969 144.601562 144.890625 144.03125 151.007812 143.550781 C 156.394531 143.128906 161.792969 142.886719 167.191406 142.582031 C 167.769531 142.554688 168.34375 142.640625 169.023438 143.136719 C 167.835938 143.492188 166.675781 143.972656 165.460938 144.1875 C 156.234375 145.859375 146.984375 147.425781 137.757812 149.125 C 132.933594 150.011719 128.167969 151.136719 123.359375 152.089844 C 121.140625 152.535156 118.894531 152.816406 116.660156 153.207031 C 115.980469 153.324219 115.324219 153.59375 114.644531 153.734375 C 113.023438 154.078125 111.398438 154.355469 109.785156 154.722656 C 108.34375 155.054688 106.929688 155.492188 105.496094 155.847656 C 101.753906 156.765625 97.949219 157.460938 94.296875 158.621094 C 91.53125 159.5 88.585938 159.824219 85.960938 160.792969 C 81.53125 162.429688 76.964844 163.46875 72.527344 164.972656 C 69.894531 165.859375 67.328125 166.960938 64.71875 167.921875 C 61.140625 169.238281 57.503906 170.398438 53.984375 171.847656 C 51.90625 172.707031 50.066406 174.109375 48.015625 175.0625 C 43.941406 176.964844 39.832031 178.78125 36.046875 181.230469 C 34.21875 182.414062 32.5625 183.855469 30.757812 185.066406 C 26.855469 187.699219 24.007812 191.433594 20.695312 194.6875 C 19.585938 195.78125 19.003906 197.535156 18.492188 199.085938 C 16.246094 205.902344 18.359375 211.621094 24.171875 215.796875 C 25.714844 216.90625 26.847656 218.464844 28.710938 219.25 C 31.253906 220.320312 33.648438 221.734375 36.097656 223.027344 C 37.007812 223.507812 37.8125 224.226562 38.757812 224.582031 C 41.761719 225.699219 44.800781 226.710938 47.839844 227.714844 C 52.136719 229.144531 56.429688 230.59375 60.761719 231.894531 C 63.070312 232.589844 65.453125 233.054688 67.824219 233.496094 C 71.003906 234.097656 74.214844 234.59375 77.40625 235.117188 C 81.527344 235.789062 85.667969 236.367188 89.769531 237.152344 C 93.089844 237.785156 96.433594 238.132812 99.796875 238.394531 C 100.476562 238.445312 101.148438 238.6875 101.820312 238.851562 C 102.332031 238.976562 102.855469 239.257812 103.34375 239.207031 C 108.269531 238.703125 113.066406 239.722656 117.894531 240.382812 C 118.761719 240.5 119.65625 240.433594 120.535156 240.484375 C 124.292969 240.699219 128.039062 241.003906 131.796875 241.128906 C 134.738281 241.230469 137.695312 241.078125 140.640625 241.136719 C 143.695312 241.195312 146.738281 241.4375 149.792969 241.484375 C 153.03125 241.527344 156.269531 241.425781 159.515625 241.410156 C 161.445312 241.402344 163.375 241.359375 165.304688 241.476562 C 168.964844 241.699219 172.589844 241.453125 176.25 241.1875 C 181.195312 240.824219 186.1875 241.089844 191.148438 240.914062 C 194.273438 240.804688 197.394531 240.316406 200.523438 240.070312 C 203.035156 239.878906 205.558594 239.796875 208.074219 239.664062 C 209.714844 239.574219 211.363281 239.539062 212.988281 239.375 C 218.039062 238.859375 223.089844 238.304688 228.140625 237.71875 C 232.132812 237.253906 236.117188 236.65625 240.117188 236.234375 C 245.226562 235.695312 250.300781 235.011719 255.339844 234.007812 C 258.246094 233.425781 261.203125 233.121094 264.125 232.582031 C 268.082031 231.839844 272.023438 231.042969 275.949219 230.183594 C 281.140625 229.054688 286.335938 227.96875 291.476562 226.644531 C 296.886719 225.253906 302.261719 223.679688 307.617188 222.050781 C 317.007812 219.207031 326.136719 215.613281 334.957031 211.359375 C 342.457031 207.753906 349.585938 203.433594 355.425781 197.363281 C 358.324219 194.347656 360.542969 190.777344 361.007812 186.582031 C 361.378906 183.269531 360.628906 179.929688 358.8125 177.023438 C 354.945312 170.863281 349.515625 166.339844 343.210938 162.894531 C 338.683594 160.417969 334.101562 157.976562 329.316406 156.089844 C 323.875 153.945312 318.195312 152.378906 312.59375 150.664062 C 309.855469 149.828125 307.054688 149.207031 304.265625 148.558594 C 298.203125 147.152344 292.171875 145.695312 285.9375 145.105469 C 280.621094 144.601562 275.34375 143.660156 270.039062 142.996094 C 266.996094 142.613281 263.925781 142.382812 260.871094 142.101562 C 255.386719 141.605469 249.90625 141.015625 244.414062 140.683594 C 239.96875 140.417969 235.503906 140.496094 231.050781 140.402344 C 224.488281 140.261719 217.914062 140.046875 211.347656 139.949219 C 204.625 139.855469 197.898438 139.898438 191.175781 139.800781 C 183.996094 139.699219 176.8125 139.5 169.632812 139.351562 C 168.175781 139.320312 166.703125 139.382812 165.253906 139.285156 C 164.53125 139.234375 163.820312 138.914062 163.101562 138.722656 C 163.109375 138.546875 163.125 138.375 163.140625 138.207031 Z M 163.140625 138.207031 " fill-opacity="1" fill-rule="nonzero"/></g><g clip-path="url(#b4cf322cce)"><path fill="#ffffff" d="M 165.132812 142.695312 C 165.628906 142.59375 166.117188 142.414062 166.613281 142.410156 C 171.359375 142.367188 176.113281 142.382812 180.859375 142.328125 C 183.011719 142.300781 185.167969 142.109375 187.324219 142.070312 C 190.773438 142.007812 194.222656 142.023438 197.671875 141.996094 C 198.390625 141.988281 199.109375 141.941406 199.828125 141.933594 C 203.835938 141.90625 207.84375 141.917969 211.847656 141.851562 C 214.851562 141.796875 217.859375 141.566406 220.859375 141.558594 C 223.332031 141.554688 225.808594 141.789062 228.28125 141.859375 C 230.9375 141.925781 233.589844 141.84375 236.238281 141.960938 C 242.511719 142.226562 248.792969 142.484375 255.0625 142.90625 C 261.078125 143.304688 267.121094 143.617188 273.078125 144.492188 C 280.308594 145.558594 287.609375 146.253906 294.710938 148.179688 C 299.519531 149.484375 304.46875 150.285156 309.222656 151.738281 C 314.28125 153.285156 319.214844 155.269531 324.140625 157.21875 C 326.890625 158.3125 329.632812 159.535156 332.171875 161.035156 C 335.824219 163.199219 339.371094 165.523438 342.5625 168.414062 C 345.664062 171.226562 348.128906 174.425781 350.011719 178.117188 C 351.464844 180.964844 352.367188 183.957031 351.9375 187.191406 C 351.523438 190.300781 350.660156 193.207031 348.808594 195.875 C 345.175781 201.097656 340.488281 205.070312 335.363281 208.742188 C 329.015625 213.285156 322.046875 216.566406 314.945312 219.605469 C 310.90625 221.339844 306.6875 222.675781 302.519531 224.101562 C 298.351562 225.527344 294.179688 226.941406 289.949219 228.164062 C 286.40625 229.1875 282.78125 229.914062 279.195312 230.804688 C 278.191406 231.054688 277.21875 231.46875 276.207031 231.707031 C 272.171875 232.652344 268.148438 233.667969 264.078125 234.445312 C 259.117188 235.386719 254.109375 236.101562 249.128906 236.957031 C 247.070312 237.308594 245.046875 237.851562 242.988281 238.152344 C 240.3125 238.539062 237.605469 238.6875 234.929688 239.066406 C 231.980469 239.488281 229.074219 240.167969 226.128906 240.542969 C 223.03125 240.933594 219.910156 241.078125 216.800781 241.375 C 215.765625 241.472656 214.761719 241.769531 213.730469 241.859375 C 207.726562 242.375 201.71875 242.910156 195.707031 243.324219 C 190.332031 243.699219 184.945312 243.929688 179.566406 244.203125 C 176.132812 244.378906 172.703125 244.589844 169.265625 244.644531 C 163.398438 244.738281 157.527344 244.914062 151.671875 244.683594 C 148.175781 244.546875 144.691406 244.648438 141.210938 244.5625 C 138.8125 244.492188 136.421875 244.1875 134.019531 244.03125 C 132.367188 243.921875 130.707031 243.890625 129.054688 243.847656 C 128.097656 243.820312 127.121094 243.984375 126.191406 243.835938 C 122.503906 243.242188 118.769531 243.554688 115.074219 243.109375 C 111.324219 242.652344 107.578125 242.28125 103.824219 241.867188 C 101.601562 241.621094 99.367188 241.429688 97.15625 241.085938 C 93.128906 240.453125 89.140625 239.523438 85.09375 239.09375 C 81.625 238.730469 78.339844 237.710938 74.984375 236.921875 C 70.71875 235.925781 66.433594 235.015625 62.210938 233.875 C 59.699219 233.195312 57.28125 232.136719 54.816406 231.265625 C 54.214844 231.054688 53.589844 230.90625 52.96875 230.742188 C 52.277344 230.558594 51.523438 230.503906 50.894531 230.207031 C 47.777344 228.753906 44.644531 227.328125 41.609375 225.710938 C 38.601562 224.109375 35.730469 222.335938 33.203125 219.925781 C 31.464844 218.269531 29.570312 216.789062 28.0625 214.894531 C 23.234375 208.832031 22.617188 202.101562 25.640625 195.210938 C 26.710938 192.757812 28.035156 190.171875 30.367188 188.351562 C 31.59375 187.394531 32.375 185.878906 33.507812 184.773438 C 37.554688 180.835938 42.039062 177.472656 47.125 174.96875 C 47.558594 174.757812 47.964844 174.492188 48.386719 174.253906 C 51.285156 172.597656 54.144531 170.867188 57.097656 169.304688 C 58.851562 168.375 60.71875 167.660156 62.566406 166.929688 C 66.0625 165.535156 69.546875 164.109375 73.089844 162.859375 C 76.953125 161.496094 80.871094 160.28125 84.78125 159.070312 C 87.289062 158.296875 89.820312 157.59375 92.367188 156.953125 C 93.445312 156.683594 94.613281 156.734375 95.703125 156.476562 C 98.832031 155.746094 101.914062 154.835938 105.058594 154.183594 C 108.832031 153.394531 112.648438 152.796875 116.445312 152.140625 C 118.421875 151.800781 120.40625 151.472656 122.394531 151.195312 C 127.316406 150.503906 132.234375 149.757812 137.175781 149.199219 C 142.773438 148.566406 148.375 148.042969 153.988281 147.601562 C 158.9375 147.214844 163.894531 146.992188 168.851562 146.714844 C 169.382812 146.6875 169.914062 146.769531 170.535156 147.222656 C 169.445312 147.550781 168.378906 147.992188 167.265625 148.1875 C 158.789062 149.722656 150.296875 151.160156 141.820312 152.722656 C 137.394531 153.539062 133.015625 154.570312 128.601562 155.445312 C 126.5625 155.855469 124.5 156.113281 122.449219 156.472656 C 121.824219 156.582031 121.21875 156.824219 120.59375 156.953125 C 119.109375 157.273438 117.613281 157.523438 116.132812 157.863281 C 114.808594 158.167969 113.511719 158.570312 112.195312 158.894531 C 108.757812 159.738281 105.261719 160.375 101.90625 161.441406 C 99.367188 162.25 96.664062 162.546875 94.253906 163.4375 C 90.1875 164.9375 85.992188 165.894531 81.917969 167.273438 C 79.5 168.089844 77.144531 169.101562 74.746094 169.984375 C 71.460938 171.191406 68.121094 172.257812 64.886719 173.589844 C 62.980469 174.378906 61.289062 175.667969 59.40625 176.542969 C 55.667969 178.289062 51.890625 179.957031 48.414062 182.207031 C 46.738281 183.292969 45.214844 184.617188 43.558594 185.730469 C 39.972656 188.148438 37.359375 191.578125 34.316406 194.566406 C 33.300781 195.570312 32.761719 197.179688 32.292969 198.605469 C 30.230469 204.867188 32.171875 210.113281 37.507812 213.949219 C 38.929688 214.96875 39.96875 216.402344 41.679688 217.121094 C 44.015625 218.105469 46.214844 219.402344 48.460938 220.59375 C 49.296875 221.03125 50.035156 221.691406 50.90625 222.019531 C 53.664062 223.042969 56.453125 223.972656 59.246094 224.898438 C 63.191406 226.207031 67.136719 227.539062 71.113281 228.734375 C 73.234375 229.371094 75.417969 229.800781 77.597656 230.207031 C 80.519531 230.757812 83.464844 231.210938 86.398438 231.695312 C 90.179688 232.3125 93.984375 232.839844 97.753906 233.5625 C 100.800781 234.144531 103.871094 234.464844 106.960938 234.703125 C 107.585938 234.75 108.203125 234.972656 108.820312 235.121094 C 109.289062 235.238281 109.769531 235.496094 110.21875 235.449219 C 114.742188 234.988281 119.148438 235.925781 123.582031 236.527344 C 124.375 236.636719 125.199219 236.574219 126.007812 236.625 C 129.457031 236.820312 132.898438 237.097656 136.347656 237.214844 C 139.050781 237.308594 141.765625 237.167969 144.46875 237.222656 C 147.273438 237.277344 150.070312 237.5 152.875 237.539062 C 155.847656 237.582031 158.824219 237.484375 161.804688 237.472656 C 163.578125 237.464844 165.347656 237.425781 167.121094 237.535156 C 170.484375 237.738281 173.808594 237.511719 177.171875 237.269531 C 181.714844 236.9375 186.296875 237.179688 190.851562 237.015625 C 193.726562 236.914062 196.589844 236.46875 199.464844 236.242188 C 201.773438 236.066406 204.085938 235.992188 206.394531 235.871094 C 207.902344 235.789062 209.417969 235.753906 210.910156 235.605469 C 215.550781 235.128906 220.1875 234.621094 224.824219 234.085938 C 228.492188 233.65625 232.152344 233.105469 235.824219 232.71875 C 240.515625 232.222656 245.175781 231.597656 249.804688 230.675781 C 252.476562 230.140625 255.191406 229.859375 257.875 229.363281 C 261.507812 228.6875 265.125 227.953125 268.730469 227.164062 C 273.496094 226.125 278.269531 225.128906 282.988281 223.914062 C 287.960938 222.636719 292.898438 221.1875 297.8125 219.695312 C 306.4375 217.082031 314.824219 213.78125 322.921875 209.875 C 329.808594 206.5625 336.355469 202.597656 341.71875 197.023438 C 344.382812 194.253906 346.417969 190.972656 346.847656 187.121094 C 347.183594 184.082031 346.5 181.011719 344.828125 178.34375 C 341.277344 172.6875 336.292969 168.53125 330.5 165.367188 C 326.347656 163.09375 322.136719 160.851562 317.742188 159.121094 C 312.746094 157.152344 307.53125 155.710938 302.382812 154.136719 C 299.871094 153.367188 297.296875 152.796875 294.738281 152.199219 C 289.167969 150.910156 283.628906 149.574219 277.90625 149.03125 C 273.023438 148.566406 268.175781 147.707031 263.304688 147.09375 C 260.507812 146.742188 257.691406 146.53125 254.886719 146.273438 C 249.847656 145.816406 244.816406 145.273438 239.769531 144.96875 C 235.6875 144.722656 231.589844 144.800781 227.5 144.710938 C 221.46875 144.582031 215.433594 144.386719 209.402344 144.296875 C 203.230469 144.207031 197.054688 144.25 190.878906 144.160156 C 184.285156 144.066406 177.6875 143.882812 171.09375 143.746094 C 169.757812 143.71875 168.40625 143.773438 167.074219 143.683594 C 166.410156 143.636719 165.757812 143.347656 165.097656 143.167969 C 165.105469 143.007812 165.117188 142.851562 165.132812 142.695312 Z M 165.132812 142.695312 " fill-opacity="1" fill-rule="nonzero"/></g><g clip-path="url(#b74abe6e50)"><path fill="#ffffff" d="M 165.503906 143.542969 C 165.992188 143.445312 166.472656 143.269531 166.960938 143.265625 C 171.625 143.222656 176.300781 143.238281 180.96875 143.183594 C 183.082031 143.15625 185.207031 142.96875 187.324219 142.929688 C 190.714844 142.871094 194.105469 142.882812 197.496094 142.855469 C 198.207031 142.851562 198.914062 142.804688 199.621094 142.796875 C 203.558594 142.769531 207.5 142.78125 211.4375 142.714844 C 214.386719 142.664062 217.347656 142.4375 220.296875 142.429688 C 222.726562 142.421875 225.164062 142.65625 227.59375 142.722656 C 230.203125 142.789062 232.816406 142.710938 235.417969 142.824219 C 241.585938 143.082031 247.761719 143.335938 253.925781 143.75 C 259.839844 144.144531 265.78125 144.453125 271.636719 145.3125 C 278.746094 146.363281 285.925781 147.042969 292.910156 148.9375 C 297.636719 150.21875 302.503906 151.007812 307.175781 152.4375 C 312.148438 153.960938 317.003906 155.910156 321.84375 157.824219 C 324.546875 158.898438 327.246094 160.101562 329.742188 161.578125 C 333.332031 163.707031 336.820312 165.988281 339.957031 168.832031 C 343.007812 171.597656 345.429688 174.742188 347.28125 178.375 C 348.707031 181.171875 349.597656 184.117188 349.175781 187.292969 C 348.769531 190.351562 347.921875 193.210938 346.097656 195.832031 C 342.527344 200.96875 337.921875 204.871094 332.878906 208.484375 C 326.636719 212.949219 319.789062 216.175781 312.804688 219.167969 C 308.832031 220.867188 304.683594 222.183594 300.585938 223.585938 C 296.488281 224.988281 292.386719 226.378906 288.226562 227.578125 C 284.742188 228.585938 281.179688 229.300781 277.652344 230.175781 C 276.664062 230.421875 275.710938 230.832031 274.714844 231.0625 C 270.75 231.992188 266.789062 232.992188 262.792969 233.753906 C 257.910156 234.683594 252.992188 235.382812 248.089844 236.222656 C 246.066406 236.570312 244.078125 237.105469 242.054688 237.398438 C 239.425781 237.78125 236.761719 237.925781 234.128906 238.300781 C 231.234375 238.714844 228.375 239.382812 225.476562 239.75 C 222.433594 240.136719 219.363281 240.277344 216.304688 240.570312 C 215.289062 240.664062 214.300781 240.957031 213.285156 241.042969 C 207.386719 241.550781 201.476562 242.078125 195.566406 242.488281 C 190.28125 242.855469 184.984375 243.082031 179.699219 243.347656 C 176.320312 243.523438 172.949219 243.730469 169.570312 243.78125 C 163.800781 243.875 158.027344 244.050781 152.273438 243.820312 C 148.832031 243.6875 145.410156 243.789062 141.984375 243.703125 C 139.628906 243.636719 137.277344 243.335938 134.914062 243.179688 C 133.292969 243.074219 131.65625 243.042969 130.035156 243 C 129.09375 242.972656 128.128906 243.132812 127.214844 242.988281 C 123.589844 242.40625 119.917969 242.714844 116.285156 242.273438 C 112.601562 241.824219 108.917969 241.457031 105.222656 241.050781 C 103.042969 240.8125 100.84375 240.625 98.667969 240.285156 C 94.710938 239.664062 90.789062 238.75 86.8125 238.328125 C 83.398438 237.96875 80.167969 236.964844 76.871094 236.191406 C 72.675781 235.210938 68.464844 234.316406 64.3125 233.195312 C 61.839844 232.527344 59.464844 231.484375 57.042969 230.628906 C 56.449219 230.421875 55.832031 230.277344 55.226562 230.117188 C 54.542969 229.9375 53.804688 229.882812 53.183594 229.589844 C 50.117188 228.160156 47.039062 226.757812 44.054688 225.167969 C 41.097656 223.59375 38.273438 221.851562 35.789062 219.480469 C 34.082031 217.851562 32.21875 216.394531 30.738281 214.535156 C 25.988281 208.570312 25.382812 201.957031 28.351562 195.179688 C 29.410156 192.769531 30.710938 190.226562 33 188.4375 C 34.207031 187.496094 34.976562 186.003906 36.089844 184.917969 C 40.070312 181.046875 44.476562 177.742188 49.476562 175.277344 C 49.90625 175.070312 50.304688 174.808594 50.71875 174.574219 C 53.570312 172.945312 56.378906 171.246094 59.285156 169.707031 C 61.007812 168.792969 62.84375 168.09375 64.660156 167.371094 C 68.097656 166.003906 71.523438 164.601562 75.007812 163.371094 C 78.804688 162.03125 82.660156 160.835938 86.503906 159.648438 C 88.96875 158.886719 91.457031 158.191406 93.960938 157.566406 C 95.023438 157.296875 96.171875 157.351562 97.238281 157.097656 C 100.316406 156.375 103.347656 155.480469 106.4375 154.839844 C 110.152344 154.066406 113.902344 153.480469 117.636719 152.832031 C 119.578125 152.496094 121.527344 152.175781 123.484375 151.902344 C 128.324219 151.222656 133.15625 150.488281 138.019531 149.941406 C 143.519531 149.320312 149.027344 148.804688 154.550781 148.371094 C 159.414062 147.992188 164.289062 147.769531 169.164062 147.496094 C 169.683594 147.46875 170.203125 147.550781 170.820312 147.996094 C 169.742188 148.316406 168.695312 148.75 167.601562 148.945312 C 159.269531 150.453125 150.917969 151.871094 142.585938 153.40625 C 138.230469 154.207031 133.925781 155.222656 129.585938 156.082031 C 127.582031 156.484375 125.554688 156.738281 123.539062 157.089844 C 122.921875 157.199219 122.328125 157.4375 121.714844 157.566406 C 120.253906 157.878906 118.785156 158.125 117.328125 158.460938 C 116.027344 158.757812 114.75 159.152344 113.457031 159.472656 C 110.078125 160.300781 106.640625 160.929688 103.339844 161.976562 C 100.84375 162.773438 98.1875 163.066406 95.816406 163.941406 C 91.816406 165.414062 87.691406 166.355469 83.6875 167.710938 C 81.308594 168.511719 78.992188 169.507812 76.636719 170.375 C 73.40625 171.566406 70.121094 172.613281 66.941406 173.921875 C 65.066406 174.695312 63.402344 175.964844 61.554688 176.824219 C 57.875 178.542969 54.164062 180.183594 50.746094 182.394531 C 49.097656 183.460938 47.601562 184.765625 45.972656 185.859375 C 42.445312 188.234375 39.875 191.605469 36.886719 194.542969 C 35.882812 195.53125 35.355469 197.113281 34.894531 198.515625 C 32.867188 204.671875 34.777344 209.832031 40.023438 213.605469 C 41.417969 214.605469 42.441406 216.015625 44.121094 216.722656 C 46.417969 217.691406 48.582031 218.964844 50.792969 220.132812 C 51.613281 220.570312 52.339844 221.214844 53.195312 221.535156 C 55.90625 222.542969 58.652344 223.460938 61.394531 224.367188 C 65.273438 225.65625 69.152344 226.964844 73.066406 228.140625 C 75.148438 228.765625 77.296875 229.1875 79.441406 229.589844 C 82.3125 230.128906 85.207031 230.578125 88.09375 231.050781 C 91.8125 231.65625 95.550781 232.179688 99.253906 232.886719 C 102.253906 233.460938 105.269531 233.773438 108.308594 234.007812 C 108.921875 234.054688 109.53125 234.273438 110.136719 234.421875 C 110.597656 234.535156 111.074219 234.789062 111.511719 234.742188 C 115.960938 234.289062 120.292969 235.210938 124.652344 235.804688 C 125.433594 235.910156 126.242188 235.851562 127.035156 235.898438 C 130.425781 236.089844 133.8125 236.363281 137.203125 236.476562 C 139.859375 236.570312 142.53125 236.429688 145.1875 236.484375 C 147.945312 236.539062 150.695312 236.757812 153.453125 236.796875 C 156.378906 236.839844 159.300781 236.746094 162.234375 236.730469 C 163.976562 236.726562 165.71875 236.683594 167.460938 236.792969 C 170.765625 236.992188 174.035156 236.773438 177.339844 236.53125 C 181.808594 236.203125 186.316406 236.445312 190.792969 236.285156 C 193.617188 236.183594 196.4375 235.742188 199.261719 235.523438 C 201.53125 235.351562 203.804688 235.277344 206.078125 235.15625 C 207.558594 235.078125 209.046875 235.042969 210.515625 234.894531 C 215.074219 234.429688 219.636719 233.929688 224.195312 233.402344 C 227.800781 232.980469 231.398438 232.4375 235.011719 232.058594 C 239.625 231.570312 244.203125 230.957031 248.757812 230.050781 C 251.382812 229.523438 254.050781 229.246094 256.691406 228.761719 C 260.261719 228.09375 263.820312 227.371094 267.363281 226.597656 C 272.050781 225.574219 276.746094 224.59375 281.386719 223.398438 C 286.273438 222.144531 291.125 220.722656 295.960938 219.253906 C 304.4375 216.683594 312.683594 213.4375 320.648438 209.597656 C 327.417969 206.339844 333.855469 202.441406 339.128906 196.960938 C 341.746094 194.238281 343.75 191.011719 344.167969 187.226562 C 344.503906 184.234375 343.828125 181.21875 342.1875 178.59375 C 338.695312 173.035156 333.792969 168.949219 328.097656 165.835938 C 324.011719 163.601562 319.875 161.398438 315.554688 159.695312 C 310.640625 157.757812 305.511719 156.34375 300.453125 154.792969 C 297.984375 154.039062 295.453125 153.480469 292.933594 152.890625 C 287.460938 151.621094 282.011719 150.308594 276.382812 149.773438 C 271.585938 149.320312 266.816406 148.472656 262.03125 147.871094 C 259.28125 147.523438 256.507812 147.316406 253.75 147.0625 C 248.796875 146.617188 243.851562 146.082031 238.890625 145.78125 C 234.878906 145.539062 230.84375 145.613281 226.828125 145.527344 C 220.898438 145.398438 214.960938 145.207031 209.035156 145.121094 C 202.964844 145.03125 196.890625 145.074219 190.820312 144.988281 C 184.339844 144.894531 177.847656 144.710938 171.367188 144.578125 C 170.050781 144.550781 168.722656 144.605469 167.414062 144.519531 C 166.757812 144.472656 166.117188 144.183594 165.472656 144.011719 C 165.476562 143.851562 165.492188 143.699219 165.503906 143.542969 Z M 165.503906 143.542969 " fill-opacity="1" fill-rule="nonzero"/></g><g clip-path="url(#cf9ea702a5)"><path fill="#ffffff" d="M 166.035156 144.734375 C 166.507812 144.636719 166.976562 144.46875 167.453125 144.460938 C 172.007812 144.421875 176.570312 144.433594 181.125 144.382812 C 183.191406 144.355469 185.261719 144.171875 187.328125 144.132812 C 190.636719 144.074219 193.949219 144.089844 197.257812 144.0625 C 197.949219 144.054688 198.640625 144.011719 199.332031 144.003906 C 203.175781 143.976562 207.019531 143.992188 210.863281 143.925781 C 213.746094 143.875 216.632812 143.652344 219.511719 143.644531 C 221.882812 143.640625 224.261719 143.867188 226.632812 143.933594 C 229.179688 143.996094 231.730469 143.917969 234.269531 144.03125 C 240.292969 144.285156 246.320312 144.53125 252.332031 144.9375 C 258.105469 145.320312 263.90625 145.621094 269.621094 146.460938 C 276.558594 147.484375 283.566406 148.148438 290.382812 150 C 294.996094 151.25 299.746094 152.019531 304.304688 153.414062 C 309.160156 154.898438 313.898438 156.800781 318.621094 158.671875 C 321.261719 159.722656 323.894531 160.894531 326.332031 162.335938 C 329.835938 164.414062 333.238281 166.640625 336.300781 169.417969 C 339.277344 172.113281 341.644531 175.183594 343.449219 178.730469 C 344.84375 181.460938 345.710938 184.332031 345.300781 187.433594 C 344.902344 190.417969 344.074219 193.207031 342.296875 195.769531 C 338.808594 200.78125 334.3125 204.589844 329.394531 208.117188 C 323.300781 212.476562 316.613281 215.625 309.800781 218.542969 C 305.921875 220.203125 301.875 221.488281 297.875 222.855469 C 293.875 224.222656 289.871094 225.578125 285.8125 226.753906 C 282.410156 227.738281 278.933594 228.433594 275.492188 229.289062 C 274.527344 229.527344 273.59375 229.925781 272.625 230.152344 C 268.753906 231.058594 264.890625 232.039062 260.988281 232.78125 C 256.222656 233.6875 251.421875 234.371094 246.636719 235.191406 C 244.664062 235.53125 242.722656 236.050781 240.746094 236.339844 C 238.179688 236.710938 235.582031 236.851562 233.011719 237.21875 C 230.183594 237.621094 227.394531 238.273438 224.566406 238.632812 C 221.597656 239.007812 218.597656 239.148438 215.613281 239.433594 C 214.625 239.523438 213.660156 239.8125 212.667969 239.894531 C 206.910156 240.390625 201.140625 240.90625 195.375 241.304688 C 190.214844 241.660156 185.046875 241.882812 179.886719 242.144531 C 176.589844 242.3125 173.300781 242.515625 170 242.566406 C 164.371094 242.660156 158.734375 242.828125 153.117188 242.605469 C 149.761719 242.476562 146.421875 242.574219 143.078125 242.488281 C 140.777344 242.425781 138.484375 242.132812 136.175781 241.980469 C 134.59375 241.875 132.996094 241.84375 131.414062 241.804688 C 130.496094 241.777344 129.554688 241.933594 128.664062 241.792969 C 125.125 241.226562 121.542969 241.523438 117.996094 241.09375 C 114.398438 240.660156 110.800781 240.300781 107.199219 239.902344 C 105.070312 239.667969 102.925781 239.484375 100.800781 239.152344 C 96.9375 238.546875 93.113281 237.65625 89.226562 237.242188 C 85.898438 236.890625 82.746094 235.914062 79.523438 235.160156 C 75.433594 234.199219 71.320312 233.328125 67.269531 232.234375 C 64.855469 231.582031 62.539062 230.566406 60.171875 229.730469 C 59.59375 229.527344 58.992188 229.386719 58.398438 229.230469 C 57.734375 229.054688 57.011719 229 56.40625 228.714844 C 53.414062 227.320312 50.410156 225.953125 47.5 224.402344 C 44.613281 222.863281 41.855469 221.160156 39.429688 218.847656 C 37.761719 217.257812 35.945312 215.839844 34.5 214.019531 C 29.867188 208.203125 29.273438 201.742188 32.171875 195.128906 C 33.203125 192.777344 34.472656 190.296875 36.707031 188.546875 C 37.886719 187.628906 38.636719 186.175781 39.722656 185.113281 C 43.609375 181.335938 47.910156 178.109375 52.789062 175.707031 C 53.207031 175.503906 53.597656 175.25 54 175.019531 C 56.785156 173.429688 59.527344 171.769531 62.363281 170.269531 C 64.042969 169.378906 65.835938 168.695312 67.605469 167.992188 C 70.964844 166.65625 74.304688 165.285156 77.707031 164.085938 C 81.414062 162.777344 85.175781 161.609375 88.929688 160.449219 C 91.332031 159.707031 93.761719 159.03125 96.207031 158.417969 C 97.242188 158.15625 98.363281 158.210938 99.40625 157.960938 C 102.410156 157.257812 105.367188 156.386719 108.386719 155.757812 C 112.007812 155.003906 115.671875 154.429688 119.3125 153.796875 C 121.207031 153.472656 123.113281 153.160156 125.019531 152.890625 C 129.746094 152.226562 134.460938 151.511719 139.207031 150.976562 C 144.574219 150.371094 149.953125 149.867188 155.339844 149.445312 C 160.089844 149.074219 164.847656 148.859375 169.605469 148.589844 C 170.113281 148.566406 170.621094 148.644531 171.21875 149.082031 C 170.171875 149.394531 169.148438 149.816406 168.078125 150.003906 C 159.949219 151.476562 151.796875 152.859375 143.664062 154.359375 C 139.414062 155.140625 135.210938 156.132812 130.976562 156.972656 C 129.023438 157.363281 127.039062 157.609375 125.074219 157.957031 C 124.472656 158.058594 123.894531 158.292969 123.292969 158.417969 C 121.867188 158.722656 120.433594 158.964844 119.011719 159.292969 C 117.742188 159.585938 116.496094 159.96875 115.234375 160.28125 C 111.9375 161.089844 108.582031 161.703125 105.363281 162.726562 C 102.925781 163.5 100.332031 163.789062 98.019531 164.640625 C 94.113281 166.082031 90.085938 167 86.179688 168.324219 C 83.859375 169.105469 81.597656 170.074219 79.296875 170.921875 C 76.144531 172.082031 72.9375 173.105469 69.835938 174.382812 C 68.003906 175.136719 66.382812 176.375 64.578125 177.21875 C 60.988281 178.890625 57.363281 180.496094 54.027344 182.652344 C 52.417969 183.695312 50.957031 184.964844 49.367188 186.035156 C 45.929688 188.351562 43.417969 191.644531 40.5 194.511719 C 39.523438 195.476562 39.007812 197.019531 38.558594 198.386719 C 36.578125 204.394531 38.441406 209.433594 43.5625 213.113281 C 44.925781 214.09375 45.921875 215.46875 47.5625 216.15625 C 49.804688 217.101562 51.917969 218.347656 54.074219 219.488281 C 54.875 219.910156 55.585938 220.542969 56.417969 220.855469 C 59.0625 221.839844 61.742188 222.734375 64.421875 223.617188 C 68.207031 224.875 71.992188 226.152344 75.8125 227.300781 C 77.84375 227.914062 79.941406 228.324219 82.035156 228.714844 C 84.835938 229.242188 87.664062 229.679688 90.480469 230.140625 C 94.109375 230.734375 97.757812 231.242188 101.375 231.933594 C 104.300781 232.492188 107.246094 232.800781 110.210938 233.027344 C 110.808594 233.074219 111.402344 233.289062 111.996094 233.433594 C 112.445312 233.542969 112.90625 233.789062 113.335938 233.746094 C 117.675781 233.300781 121.90625 234.199219 126.160156 234.78125 C 126.921875 234.886719 127.710938 234.828125 128.488281 234.871094 C 131.796875 235.0625 135.101562 235.328125 138.410156 235.4375 C 141.003906 235.53125 143.613281 235.394531 146.203125 235.445312 C 148.894531 235.496094 151.582031 235.710938 154.273438 235.75 C 157.125 235.789062 159.980469 235.699219 162.839844 235.6875 C 164.542969 235.679688 166.242188 235.640625 167.941406 235.746094 C 171.167969 235.941406 174.359375 235.726562 177.585938 235.492188 C 181.945312 235.171875 186.34375 235.40625 190.714844 235.25 C 193.472656 235.152344 196.222656 234.722656 198.980469 234.507812 C 201.195312 234.335938 203.417969 234.265625 205.632812 234.148438 C 207.078125 234.070312 208.53125 234.039062 209.964844 233.894531 C 214.414062 233.4375 218.867188 232.949219 223.316406 232.433594 C 226.835938 232.023438 230.347656 231.496094 233.875 231.125 C 238.375 230.648438 242.847656 230.050781 247.289062 229.164062 C 249.851562 228.648438 252.457031 228.382812 255.03125 227.90625 C 258.515625 227.253906 261.992188 226.550781 265.449219 225.796875 C 270.023438 224.796875 274.605469 223.839844 279.132812 222.671875 C 283.902344 221.449219 288.640625 220.0625 293.359375 218.628906 C 301.632812 216.117188 309.683594 212.953125 317.457031 209.203125 C 324.0625 206.023438 330.34375 202.21875 335.492188 196.871094 C 338.046875 194.210938 340 191.0625 340.414062 187.371094 C 340.738281 184.449219 340.078125 181.503906 338.476562 178.945312 C 335.070312 173.515625 330.285156 169.527344 324.726562 166.492188 C 320.738281 164.308594 316.699219 162.160156 312.484375 160.496094 C 307.6875 158.605469 302.683594 157.226562 297.746094 155.714844 C 295.332031 154.976562 292.863281 154.429688 290.40625 153.855469 C 285.0625 152.617188 279.746094 151.335938 274.253906 150.8125 C 269.570312 150.371094 264.917969 149.542969 260.242188 148.957031 C 257.558594 148.617188 254.855469 148.414062 252.164062 148.167969 C 247.328125 147.730469 242.5 147.210938 237.660156 146.917969 C 233.742188 146.683594 229.808594 146.753906 225.882812 146.667969 C 220.097656 146.546875 214.304688 146.355469 208.519531 146.273438 C 202.59375 146.1875 196.664062 146.226562 190.742188 146.140625 C 184.414062 146.050781 178.082031 145.875 171.753906 145.746094 C 170.472656 145.71875 169.175781 145.769531 167.898438 145.683594 C 167.257812 145.640625 166.632812 145.359375 166 145.191406 C 166.007812 145.035156 166.019531 144.882812 166.035156 144.734375 Z M 166.035156 144.734375 " fill-opacity="1" fill-rule="nonzero"/></g></svg>